<?xml version="1.0" standalone="no"?>
<!DOCTYPE svg PUBLIC "-//W3C//DTD SVG 1.1//EN" "http://www.w3.org/Graphics/SVG/1.1/DTD/svg11.dtd" >
<svg xmlns="http://www.w3.org/2000/svg">
<metadata></metadata>
<defs>
<font id="bix_antique_script_hmkregular" horiz-adv-x="1513" >
<font-face units-per-em="2048" ascent="1638" descent="-410" />
<missing-glyph horiz-adv-x="532" />
<glyph horiz-adv-x="2048" />
<glyph horiz-adv-x="2048" />
<glyph unicode="&#xd;" horiz-adv-x="0" />
<glyph unicode=" "  horiz-adv-x="532" />
<glyph unicode="&#x09;" horiz-adv-x="532" />
<glyph unicode="&#xa0;" horiz-adv-x="532" />
<glyph unicode="!" horiz-adv-x="663" d="M10 104q0 4 2 11v8q18 25 33.5 41t36.5 24q8 -4 51 -8q29 -2 49 -20q2 -8 15.5 -28t13.5 -32q0 -4 -2 -12q-25 -90 -119 -90q-20 0 -37 8q-43 61 -43 98zM168 315q4 16 47 62q37 39 184 280q106 174 271 430q49 63 143 193q2 6 10 14q39 47 119 47q23 0 47 -8v-14 q0 -72 -78 -184q-113 -162 -118 -177q-106 -90 -269 -278q-164 -195 -229 -309q-90 -59 -119 -62z" />
<glyph unicode="&#x22;" horiz-adv-x="753" d="M575 1116v10q0 4 33 37q57 57 140 200.5t145 201.5q47 45 137 45q4 -13 4 -25q0 -33 -37 -80q-39 -53 -45 -73q-47 -33 -135 -119q-96 -90 -121 -129q-92 -66 -121 -68zM864 1116v10q0 6 31 37q57 57 141 199.5t146 202.5q47 45 133 45q6 -19 6 -29q0 -27 -38 -78 t-44 -71q-45 -33 -137 -119q-98 -96 -117 -129q-92 -66 -121 -68z" />
<glyph unicode="#" horiz-adv-x="1146" d="M-8 424q0 8 5 21.5t5 21.5q0 10 -4 27q20 25 16 36l17 7q12 0 40.5 -8.5t43.5 -8.5q-12 0 37 2h36q14 0 42 8.5t42 8.5q18 0 31 -4q20 41 68 112q4 6 35 78l-183 -2q-23 -8 -65 -29q-14 27 -15 43q0 6 3.5 20.5t3.5 20.5q0 14 -11 33q8 6 21 20q12 6 10 19l16 2 q12 0 39 -7t41 -7h35q27 2 80 10q29 8 43 8q16 0 31 -6l14 -2l123 264q14 31 115 178q37 -31 36 -55q0 -18 -22.5 -47t-24.5 -41q-29 -37 -57 -94l-49 -99q-27 -35 -68 -110h39q8 0 266 6q27 57 97 209q12 29 51 102q31 51 88 129q37 -31 37 -55q0 -18 -21.5 -47t-23.5 -41 q-29 -37 -58 -94l-49 -99q-25 -33 -65 -102q47 2 155 2q6 0 21 -2h18q4 0 14.5 10t20.5 10q13 0 23 -10q0 -23 -23 -63q-23 -47 -27 -66h-75q-4 0 -185 -4q-31 -63 -92 -194q23 0 68 2t67 2q33 0 58 -2q2 -2 4 -2l10 10q8 10 21 10q8 0 22 -12q-2 -23 -23.5 -63t-21.5 -64 h-82q-4 0 -180 -4q-90 -199 -215 -428q-35 -66 -92 -66q16 88 77 209q72 141 91 199q37 43 59 84l-279 -4q-100 -215 -213 -422q-35 -66 -88 -66q12 94 72 209q78 152 92 199q31 33 58 80l-166 -3q-20 -6 -62 -22q-18 25 -18 43zM375 528h121q90 0 161 2q41 62 113 199 l-305 -4q-47 -94 -90 -197z" />
<glyph unicode="$" horiz-adv-x="966" d="M-209 4q10 31 35 88q12 10 29 35q23 55 73 160q18 23 41 49q16 78 54 115l43 -7q-8 -31 -25 -90q-16 -31 -33 -116v-27q2 -18 2 -25q0 -6 -3 -20t-3 -21q0 -82 109 -133q10 18 30 58q12 14 31 47q37 86 117 256q45 74 125 227q-76 51 -105 111q-12 29 -41 147 q-2 16 -2 29q0 8 31 92q25 74 66 115q10 8 28 22q164 156 361 133l55 117l49 78l49 -14q-35 -106 -92 -189q2 -2 39 -27q25 -12 72 -38q31 -23 41 -23q4 0 17 17.5t17.5 20.5t20.5 17l37 -16q-8 -23 -25 -62q-14 -16 -39 -53q-12 -35 -41 -100q-12 -16 -34 -47 q-14 -43 -60 -117l-39 16q6 12 13 35q0 6 18 51q12 29 12 39q0 2 -2 8.5t-2 10.5q0 8 7 26.5t7 26.5q0 86 -94 154q-18 -39 -55 -115q-27 -41 -41 -70q-74 -143 -162 -299q4 -4 35 -24q141 -96 141 -295q0 -20 -16 -65.5t-29 -63.5l-10 -15q-20 -39 -74 -116 q-55 -61 -93 -84t-122 -56q-10 -8 -35 -18q-37 -10 -169 -10q-63 -129 -121 -219l-49 18q68 106 67 154l35 57q-47 10 -78 35q-8 12 -27 35q-41 37 -67 37q-8 0 -57 -54q-6 -6 -23 -24zM172 -2q10 -2 33 -2q27 0 65.5 14.5t57.5 16.5q53 6 190 186q16 20 17 63q0 16 6 52.5 t6 54.5q0 113 -86 184q-18 -41 -58 -125q-35 -53 -55 -97t-69 -148q-39 -66 -107 -199zM410 911q0 -98 73 -176q33 63 97 193q14 39 47 114q16 16 43 52l24 55l33 55q-10 2 -25 2q-84 0 -172 -61q-16 -6 -41 -23l-28 -49q-51 -78 -51 -162z" />
<glyph unicode="%" horiz-adv-x="1292" d="M53 -104q12 35 43 71q41 47 49 60q47 63 146 221q43 37 86 100q35 53 76 111q35 43 122 161.5t310 430.5q12 16 12 20q0 6 -27 6h-133q-23 0 -39 -2q-10 -104 -137 -239q-41 -47 -133 -140q-92 -78 -225 -78q-125 0 -125 173q0 31 18 104q4 4 8.5 27.5t18.5 31.5 q57 90 104 127l47 47q86 86 158 97q53 35 123 35q61 0 86 -27l55 -59l6 -44q16 -4 82 -4h158l107 129q26 -24 26 -51q0 -20 -26.5 -49t-30.5 -43q-41 -41 -90 -111q-43 -57 -84 -116l-10 -13q-76 -109 -271 -378q-63 -80 -225 -291q-39 -57 -119 -174q-98 -137 -131 -138 q-6 0 -17.5 2.5t-17.5 2.5zM190 743q0 -37 21 -69q10 -4 29 -4q49 0 113.5 40t78.5 85q143 190 143 346q0 49 -32 65h-8q-80 0 -142 -67q-23 -33 -92 -135q-16 -20 -53 -76q-57 -90 -58 -185zM502 94q0 35 18 105q6 6 10.5 28.5t18.5 30.5l47 68q31 29 88 90q29 37 81 71.5 t95 40.5q53 37 119 37q35 0 76 -14q20 -27 69 -74q4 -43 4 -61q0 -127 -141 -277q-16 -18 -57 -69q-125 -147 -303 -148q-125 0 -125 172zM616 47q0 -37 23 -70q8 -2 25 -2q49 0 115.5 40t76.5 85q143 188 143 344q0 49 -30 66h-8q-82 0 -144 -68q-27 -29 -92 -133 q-14 -23 -51 -78q-57 -90 -58 -184z" />
<glyph unicode="&#x26;" horiz-adv-x="2232" d="M6 205q41 109 105 190q143 184 444 373q47 33 170 119q-2 27 -2 28q2 25 2 27v23l-12 86q0 43 32.5 131t28.5 137q201 373 408 373q147 0 147 -174q0 -166 -225 -408q-115 -92 -256 -229q-2 -4 -2 -15q0 -18 12 -46.5t12 -41.5q0 -6 -2 -14q14 -49 101 -199q2 -2 12 -18 q20 6 98 100q8 10 25 25q25 23 135 155q66 80 203 234q61 70 168 153q121 96 187.5 118t170.5 22q84 0 135 -52.5t51 -136.5q0 -88 -73 -127q-45 -25 -78 -26q-27 27 -27 61q0 14 4.5 41t4.5 41q0 49 -41 78t-93 29q-47 0 -75 -13q-156 -70 -277 -202q-74 -88 -223 -261 q-119 -131 -234 -272q-8 -10 -24 -25q0 -12 65 -90q254 -299 537 -299q139 0 313 113q43 43 142 117q8 -14 8 -21l-12 -33q-135 -141 -234 -202q-137 -86 -293 -86q-86 0 -213 35q-139 37 -194 83q-31 35 -107 91q-47 43 -129 139q-12 20 -22 20l-19 -18q-23 -18 -69 -55 q-66 -59 -201 -177q-154 -102 -275 -141q-51 0 -149 6q-90 8 -125 72q-27 14 -31 55v68q0 14 -4 39zM143 150q0 -55 32 -94.5t85 -39.5t98 27q88 14 201 107q59 51 182 151q35 39 105 115h-2q-6 33 -23 90q-27 53 -51 108q-29 68 -25 115q-14 76 -24 76q-18 0 -70 -35 q-63 -43 -69 -49q-80 -41 -179 -119q-104 -84 -151 -149q-109 -154 -109 -303zM827 1075q0 -72 19 -121q129 98 239 244q132 174 132 305q0 49 -19 92q-37 35 -78 35q-14 0 -20 -2q-131 -57 -207 -235q-66 -154 -66 -318z" />
<glyph unicode="'" horiz-adv-x="497" d="M573 1126q4 8 33 37q55 57 142 203q82 139 143 199q47 45 137 45q4 -13 4 -25q0 -33 -37 -80q-39 -53 -45 -73q-47 -33 -135 -119q-96 -90 -121 -129q-94 -68 -110 -68q-10 0 -11 10z" />
<glyph unicode="(" horiz-adv-x="921" d="M49 -154q0 653 541 1274q217 250 438 404q229 158 535 264l39 -23q-426 -166 -775 -530q-326 -344 -518 -789q-141 -328 -141 -610q0 -129 43 -289q39 -145 39 -149q0 -10 -14 -10q-4 0 -15 14q-2 4 -8 -2q-78 74 -123 207q-41 121 -41 239z" />
<glyph unicode=")" horiz-adv-x="978" d="M-522 -645q434 184 803 563q342 354 561 807q178 369 178 657q0 117 -45 295l-23 90q0 12 13 13q23 0 28 -19l13 6q61 -70 100 -188q37 -111 37 -211q0 -641 -619 -1325q-240 -266 -463 -424q-238 -168 -557 -287z" />
<glyph unicode="*" horiz-adv-x="1169" d="M770 1292q0 12 23 45q20 41 77 41q10 0 30 -4t32 -4t44 -12t48 -12q2 0 9 3t9 3h37q49 0 92 6q-51 53 -100 76q-10 2 -31 10q-10 8 -30 20q-23 6 -60 29q-6 8 -18 61q0 2 -4 9.5t-4 9.5q0 29 26.5 51.5t55.5 22.5q23 0 57.5 -24t40.5 -44v-37q0 -10 10 -28.5t10 -28.5 t19.5 -35t19.5 -29v-8q-2 -4 -2 -8t33 -35q12 18 29 51q0 6 2 17l30 69q6 18 17 58q2 33 18 92l19 18q16 25 23 33t29.5 14.5t35.5 10.5q29 0 46 -32t17 -63q0 -23 -16.5 -40t-32.5 -33q-31 -33 -80 -72q-12 -8 -43 -35q-10 -14 -28 -45q-14 -14 -39 -45q25 6 75 16 q12 0 37 5q16 12 53 34q20 8 60 29q16 16 57 31l2 2q4 0 9.5 -3t9.5 -3t13 3t13 3q25 0 47.5 -24.5t22.5 -49.5q0 -29 -22.5 -59.5t-49.5 -30.5q-20 0 -84 14q-82 18 -151 19q-20 0 -92 -13q23 -27 73 -67q20 -4 64 -14q8 -8 26 -23q20 -6 56 -31q4 -8 10 -26q18 -33 18 -43 q0 -31 -30.5 -56.5t-61.5 -25.5q-8 0 -16 7t-12 7q-51 16 -72 98q-4 31 -23 86q-8 6 -24 25q-14 27 -33 53q-4 -6 -47 -110q-6 -8 -14 -27q0 -18 -5 -51q-6 -10 -16 -35q-2 -14 -6 -47q-27 -94 -104 -94q-31 0 -52.5 28.5t-21.5 61.5q0 14 7 23.5t9 13.5l2 14q8 2 21 8 q6 14 24 41q29 18 84 62q12 16 35 47q10 8 27 24q8 8 30 43q-66 -12 -49 -12h-6q-4 2 -6 2q-10 0 -46 -22.5t-52 -22.5q-8 0 -39 -23.5t-39 -23.5q-2 0 -7 2t-7 2l-19 -10q-18 -10 -39 -11q-90 0 -90 78z" />
<glyph unicode="+" horiz-adv-x="1116" d="M-39 416l47 69h426l273 430h84l-273 -430h424l-47 -69h-424l-270 -428h-86l272 428h-426z" />
<glyph unicode="," horiz-adv-x="507" d="M-133 -156q0 16 37 25q96 18 155 92q4 16 11 47q-18 39 -70 66q-6 10 -6 28q0 70 33 82l86 21q35 -6 63.5 -38t28.5 -67q0 -115 -101.5 -191.5t-218.5 -76.5q-18 0 -18 12z" />
<glyph unicode="-" horiz-adv-x="1060" d="M188 416q0 16 16.5 50t16.5 60q23 18 27 27l8 -4l-2 14l16 8q94 -20 84 -20q-12 0 37 2h39q16 0 47 11t47 11q18 0 31 -10q39 -4 55 -4q25 0 72 6t72 6q6 0 16 -2h16l7 -2q29 25 36 25q11 0 23 -14q-8 -31 -46 -80t-48 -76h-80q-6 0 -410 -12q-25 -8 -73 -33q-6 29 -7 37 z" />
<glyph unicode="." horiz-adv-x="552" d="M0 100q0 59 57 82q10 0 27.5 2t28.5 2q27 0 47 -12q2 -8 20.5 -27.5t18.5 -29.5q-2 -6 -4 -19q-14 -57 -29 -69q-39 -31 -88 -31q-4 0 -12 2h-11q-55 59 -55 100z" />
<glyph unicode="/" horiz-adv-x="710" d="M-391 -338q47 119 147 256q152 209 169.5 239.5t58.5 78.5q35 39 67 75q39 53 139 189q2 2 84 102q76 92 351 488q20 31 73 108q18 27 138 160q34 -35 34 -60q0 -29 -34 -63q-39 -45 -45 -57q-45 -51 -175 -222q-23 -27 -79 -96q-18 -25 -80 -112l-201 -283 q-197 -279 -520 -723q-35 -45 -51 -57q-27 -20 -76 -23z" />
<glyph unicode="0" horiz-adv-x="899" d="M-121 135q0 289 350 602q186 168 328 168q117 0 152 -98q18 -52 22 -199q-96 -260 -235 -405q-246 -258 -412 -258q-66 0 -119 24q-66 29 -80 84q-6 25 -6 82zM29 57q0 -61 110 -61q131 51 301 303q146 217 146 504q0 23 -21.5 38t-44.5 15q-41 0 -114 -59 q-55 -45 -97 -97q-281 -354 -280 -643z" />
<glyph unicode="1" horiz-adv-x="641" d="M-113 -45q0 33 62 94q2 4 18 39q8 16 33 57q186 319 287 539q-6 2 -13 2q-53 -43 -145 -106q-111 -76 -145 -84q-18 4 -45 22q10 14 43 31q160 80 340 254q156 150 194 149q16 0 55 -6q-23 -45 -69 -133l-207 -387q-113 -219 -184 -397q-96 -96 -215 -101q-8 14 -9 27z " />
<glyph unicode="2" horiz-adv-x="761" d="M-248 -12l277 166q158 96 243 206q193 246 193 396q0 125 -94 125q-125 0 -217.5 -108.5t-92.5 -235.5v-23q23 -23 52 -22q31 0 80 18q74 27 81 29q-20 -43 -102 -109q-74 10 -147 19q-66 23 -66 120q0 119 168 265q115 100 250 100q55 0 131 -29q57 -23 78 -49 q14 -25 26 -90q4 -24 4 -49q0 -115 -102 -248q-90 -117 -199 -190q-76 -51 -225 -158q98 -18 197 -35q113 -18 196 -14q-8 -29 -40.5 -63t-60.5 -46t-73 -12q-59 0 -163.5 48t-143.5 48q-41 0 -123 -48t-127 -52v41z" />
<glyph unicode="3" horiz-adv-x="843" d="M-428 -215q0 27 18.5 72t20.5 65q45 33 133 33h18q29 -16 39 -51q2 -4 11 -66q-6 -25 -50.5 -63.5t-44.5 -65.5q31 -47 138 -47q23 0 64.5 16.5t64.5 16.5q123 70 188 151q55 27 90 111q23 72 47 141q6 18 39 111q-12 72 -20 96q-23 57 -70 57q-20 0 -64 -15t-69 -15h-8 l2 30q236 61 346 289q31 63 31 115q0 88 -88 88q-72 0 -160 -66q-94 -68 -94 -137q0 -14 9 -39.5t9 -40.5q0 -29 -33 -28q-63 0 -73 61q-12 14 -13 29q0 23 22.5 53.5t22.5 46.5q86 119 232 166q39 12 106 12q191 0 191 -174q0 -109 -88 -194q-55 -53 -185 -125 q139 -55 140 -246q0 -55 -37 -129q-96 -193 -193 -266q-147 -113 -266 -142q-14 -2 -50 -19t-52 -17q-80 0 -175 32q-150 53 -149 154z" />
<glyph unicode="4" horiz-adv-x="903" d="M-322 6q68 47 201 144q25 25 92 86q59 47 211 172q96 88 291 260q41 33 143 116q14 16 29 33q100 109 135 109q21 -1 27 -21q-76 -131 -205 -407.5t-207 -409.5l6 -10q82 4 197 4q18 0 18 -35q0 -6 -2 -10q-70 -33 -264 -45q-145 -236 -178 -371q-39 -53 -143 -57 q-6 16 -6 30q0 35 51 156q31 35 114 232q-59 6 -129 6q-61 0 -185 -7.5t-185 -7.5q-10 0 -11 17v16zM-127 61l203 7q25 8 35 8q12 0 37.5 -3t37.5 -3q37 0 64 16q68 102 149 274q107 228 138 283q-39 -16 -131 -121q-8 -6 -66 -51q-94 -74 -150 -135q-45 -49 -157.5 -133 t-159.5 -142z" />
<glyph unicode="5" horiz-adv-x="901" d="M-291 -207q0 51 78 170q8 -4 12 -4q2 0 17.5 10.5t23.5 12.5q4 -4 70 -45q39 -25 39 -68q0 -16 -8 -35v-10q0 -31 -34 -64.5t-34 -40.5q0 -35 45 -55q37 -18 76 -18q74 0 112 18q23 10 76 57q246 215 246 488q0 219 -127 219q-25 0 -85 -29.5t-87 -50.5q-2 -2 -31 -43 q-20 -29 -45 -29q-10 0 -30 9l20 69q41 39 199 250q23 25 63 76q25 39 43 70q76 127 127 174q43 0 121 -32t113 -32q8 0 22 4q6 -2 14 -2q25 0 73 15.5t73 15.5q-31 -74 -84 -100q-25 -12 -129 -31q-35 -29 -90 -29q-16 0 -51 3t-52 3q-45 0 -63 -28q-45 -23 -94 -103 q-57 -90 -86 -114l14 2q150 0 250 -66q76 -127 76 -266q0 -203 -194.5 -389.5t-399.5 -186.5q-207 0 -267 140q-12 29 -12 65z" />
<glyph unicode="6" horiz-adv-x="940" d="M-63 203q0 299 315 643q285 309 496 426q133 74 325 102l21 -18q-309 -78 -613 -404q-152 -164 -262 -393h6q133 203 295 250q143 -20 185 -115q16 -37 16 -110q0 -111 -66 -240q-59 -117 -147 -201q-104 -100 -172 -143q-106 -70 -207 -70q-193 0 -192 273zM55 43 q31 -53 60 -53q37 0 96 20q242 84 391 496q0 23 7 69.5t7 69.5q0 41 -22.5 76t-61.5 35q-33 0 -151 -78q-41 -27 -90 -101.5t-86 -101.5q-8 -2 -29 -10q-119 -254 -121 -422z" />
<glyph unicode="7" horiz-adv-x="770" d="M-246 -418q35 86 115 201q98 141 129 190q14 23 45 52q39 35 49 47l14 20q51 76 101 137q25 29 90 109q33 49 152 221q41 57 145 205l-2 2l-434 -12q-20 -33 -90 -90q-6 27 -7 36q0 27 24 82.5t21 87.5q4 2 93 109q55 66 116 74q6 -14 7 -25q0 -18 -31 -62t-31 -55 q0 -10 47 -10q18 0 55 10.5t56 10.5q6 0 33 -9q20 -6 92 -6q25 0 76 4t75 4q25 0 43 -2q25 -24 25 -49q0 -27 -41 -66.5t-43 -52.5q-33 -33 -168 -215q-12 -16 -82 -102q-102 -127 -274 -403.5t-273 -401.5q-33 -41 -127 -41z" />
<glyph unicode="8" horiz-adv-x="991" d="M-88 207q0 61 35 149q31 82 71 138q47 63 168 124q160 80 193 103q-20 61 -21 133q0 182 142 342q18 20 26 25q70 43 187 43q102 0 202 -68q55 -37 68 -96q6 -29 6 -121q0 -35 -2 -49q-16 -109 -149 -242q-2 -2 -226 -194q14 -82 15 -144q0 -188 -109 -311 q-113 -129 -299 -129q-166 0 -254 133q-53 84 -53 164zM70 213q0 -84 47 -158q51 -84 131 -84q168 0 260 168v47q39 60 39 119q0 63 -60 176q-12 25 -98 166q-319 -166 -319 -434zM451 930q0 -193 129 -385q123 57 197.5 176t74.5 256q-27 74 -55 145q-39 74 -127 74 q-80 0 -189 -98q-31 -78 -30 -168z" />
<glyph unicode="9" horiz-adv-x="950" d="M-494 -260q2 27 82 92q20 -20 21 -37q0 -8 -8.5 -24.5t-8.5 -22.5q0 -10 7 -24q25 -61 57 -78q25 -12 96 -13q90 0 240 82q23 12 63 43q16 20 19 23q12 10 26 10q27 23 119 137q72 90 131 226q-143 -125 -256 -125q-178 0 -178 157q0 121 49 234q14 35 70 110 q47 70 61 113q186 160 219 182q131 90 263 90h20q14 -2 20 -2q49 -23 83 -78t34 -110q0 -276 -215 -596q-86 -127 -100 -147q-53 -70 -123 -134q-295 -266 -555 -266q-78 0 -90 2q-47 8 -141 111q-4 10 -5 22v23zM63 154q0 -41 25 -70h14q125 0 254 154q127 68 203 299 q47 143 47 221q0 51 -28 94q-16 4 -31 4q-90 0 -137 -37q-14 -10 -62 -63q-252 -279 -280 -520q-4 -35 -5 -82z" />
<glyph unicode=":" horiz-adv-x="557" d="M6 100q0 59 55 82q10 0 29 2t29 2q27 0 45 -12q4 -8 21.5 -27.5t17.5 -29.5q0 -4 -2 -13q-4 -31 -31 -75q-39 -31 -88 -31q-4 0 -10 2h-11q-55 59 -55 100zM371 616q0 59 57 84q10 0 27.5 2.5t27.5 2.5q27 0 47 -15q2 -8 19.5 -27.5t17.5 -29.5q0 -14 -11 -47t-19 -41 q-41 -31 -88 -31q-4 0 -13 2h-10q-55 59 -55 100z" />
<glyph unicode=";" horiz-adv-x="544" d="M-117 -168q0 14 25 23l8 4q43 14 88 28q37 16 72 58q6 18 12 53q-4 2 -6 4q-12 35 -64 53q-8 18 -8 35q0 57 31 78q10 4 84 25q29 -4 74 -46q20 -18 20 -57q0 -20 -8 -53l-12 -51q-45 -76 -124 -123t-165 -47q-27 0 -27 16zM373 618q0 59 57 82q10 0 27.5 2.5t27.5 2.5 q27 0 47 -13q4 -8 21.5 -26t17.5 -41q-6 -31 -32 -76q-41 -33 -88 -33q-4 0 -11 2h-12q-55 59 -55 100z" />
<glyph unicode="&#x3c;" horiz-adv-x="1456" d="M61 569l21 107l1229 491l30 -100l-1140 -461l886 -448l-61 -76z" />
<glyph unicode="=" horiz-adv-x="1456" d="M225 406l37 96h987l-37 -96h-987zM307 676l29 98h989l-31 -98h-987z" />
<glyph unicode="&#x3e;" horiz-adv-x="1456" d="M117 176l1100 449l-934 450l59 82l1012 -483l-17 -105l-1194 -495z" />
<glyph unicode="?" horiz-adv-x="833" d="M219 100q0 59 57 82q10 0 28 2t28 2q27 0 47 -12q2 -8 19.5 -27.5t17.5 -29.5q0 -8 -4 -19q-12 -59 -27 -69q-39 -31 -88 -31q-4 0 -12 2h-11q-55 59 -55 100zM338 326v10q0 68 154 172l172 119q96 68 153 143q14 20 49 72q141 205 142 325q0 143 -101 144 q-125 0 -218 -109.5t-93 -236.5q0 8 2 -37q25 -27 53 -27q29 0 78 21q59 25 78 28q-10 -39 -94 -104q-76 8 -152 18q-76 23 -76 119q0 119 170 272q113 102 256 103q43 0 120 -26.5t102 -55.5q16 -18 30 -94q6 -34 6 -52q0 -231 -292 -444q-27 -16 -97 -61 q-55 -41 -170 -119q-57 -37 -139 -92q-94 -72 -96 -121l-35 22q0 4 -2 11z" />
<glyph unicode="@" horiz-adv-x="2170" d="M381 539q0 14 8 26q-4 16 -4 29q0 14 4 45t4 45q0 6 -2 18v17q0 37 10 78q8 33 19 77q0 10 8 33t8 35q0 10 -4 21q25 16 64 106q51 119 55 125q102 172 475 416q20 12 43 12q211 100 512 100q174 0 256 -41q8 -6 33 -14q2 0 6 2q129 -61 215 -141q2 -27 31 -35 q2 -16 22 -66q10 -18 23 -45q45 -100 45 -227q0 -172 -92 -319q-14 -18 -31 -37q-16 -25 -16 -43q0 -8 2 -15q-25 -10 -62 -57q-127 -166 -287 -254q-20 -14 -77 -47q-94 -51 -226 -51q-190 0 -176 153q-106 -78 -147 -100q-92 -53 -164 -53q-37 0 -76 20q-61 70 -61 164 q0 123 135 266q76 76 227 226q14 0 31 14q27 25 29 25q59 41 182 118q102 61 203 62q74 0 112 -76q10 8 29 63q16 47 31 48l8 -5q4 10 18 -10l15 -20q29 0 63 -23v-39q-158 -188 -424 -547q-45 -59 -86 -126q-12 -25 -12 -68q14 -29 65 -29q125 0 283 92q33 10 109 64l24 31 q51 49 129 139q6 12 25 37q6 23 43 67.5t33 69.5q70 104 69 250q0 31 -4 59q2 6 2 10q0 14 -16 66q-8 23 -19 66q-16 92 -202 241q-4 2 -84 35q-43 41 -252 41q-96 0 -189 -23q-18 -8 -57 -18q-23 -2 -78 -20q-33 -18 -102 -37q-82 -37 -158 -97q-115 -88 -141 -106 q-14 -20 -70 -66q-43 -35 -172 -321q-72 -158 -72 -359q0 -72 17 -186q8 -63 57 -149q8 -23 47 -84q20 -23 45 -54q68 -92 223 -143q129 -43 269 -43q315 0 569 158q57 35 268 221q33 29 37 29q23 0 23 -17q0 -51 -99 -135q-182 -156 -340 -225q-150 -66 -393 -103 q-12 4 -32 4q-14 0 -44 -2t-45 -2q33 0 -43 11q-109 12 -134 18t-77 18q-35 8 -92 33q-66 29 -90 37l-4 8q-127 80 -180 166q-6 8 -55 111q-29 45 -66 170q-6 47 -6 82zM918 399q8 -12 24 -12q10 0 33 4l31 6q199 86 446 404l117 147q69 94 69 166q0 29 -14 57q-14 2 -22 3 q-37 0 -72 -11q-96 -29 -248 -184q-127 -129 -205 -246q-10 -16 -37 -59l-82 -129q-39 -74 -40 -146z" />
<glyph unicode="A" horiz-adv-x="2392" d="M-170 143q0 45 29 68q12 47 57 86t92 39q72 0 119 -39t47 -109q0 -74 -84 -120q-49 -29 -74 -29q-23 0 -43 10q-10 -6 -20 -24l12 -58q98 -86 271 -86q145 0 309 62q27 2 123 49q313 150 780 661q123 133 440 480q37 41 137 147q43 45 158 158q20 18 72 63l147 131 q86 70 166 103q131 -6 131 -160q0 -74 -61 -156q-94 -125 -103 -139q-2 -6 -16 -29q-8 -4 -8 -16q-182 -223 -295 -401q0 -8 -8 -23q-27 -27 -62 -78q-2 -2 -12 -10l-2 -6l-234 -336q-86 -125 -108 -203q-2 -16 -33 -110q-14 -45 -14 -72q0 -23 8 -47q18 -14 41 -15 q20 0 58 11.5t53 13.5q160 88 374 307l27 -16q-8 -8 -39 -55q-23 -35 -47 -45q-135 -133 -188 -173q-121 -88 -234 -88q-76 0 -117 25q-69 42 -69 174q0 96 63 227q23 45 117 207q18 10 34.5 39t26.5 37q16 25 47 72q18 14 31 41q-49 2 -117 2q-156 0 -229 -11 q-68 -80 -207 -233q-33 -27 -85 -79t-158 -154q-18 -18 -68 -62q-16 -6 -45 -24q-35 -31 -113 -84q-12 -6 -35 -17q-31 -20 -94 -61q-127 -82 -262 -117q-8 -6 -98 -25q-102 -22 -178 -22h-7q-131 0 -231 43q-131 55 -152 164q-16 88 -20 112zM1653 774q41 -4 67 -4 q27 0 256 8q117 160 553 697q2 14 19.5 30.5t17.5 20.5q0 6 -4 16q45 42 45 105q0 33 -20 30l-7 2q-84 -16 -172 -100q-47 -49 -145 -145q-6 -6 -30.5 -29t-43.5 -41l-30 -43q-2 -4 -170 -178q-186 -197 -336 -369z" />
<glyph unicode="B" horiz-adv-x="2398" d="M-174 184q2 12 10 39q25 80 84 117q16 10 23 10q2 0 8 -2h8q10 2 12 12l13 5q8 0 22 -5.5t21 -5.5q6 0 10 4q41 -4 65.5 -40.5t24.5 -79.5q0 -129 -162 -154q-8 14 -18 12q-8 -10 -8 -20q0 -4 28 -76q98 -80 262 -80q172 0 281 41q303 115 590 471q156 205 471 615 q20 25 196 225q27 31 99 112q10 6 121 105q6 6 157 125q-119 115 -426 115q-223 0 -440 -72q-76 -25 -274 -127q-23 -10 -76 -39q-170 -102 -322 -268q-158 -172 -233 -346q-20 -47 -21 -156q0 -16 4 -47q10 -4 11 -21q0 -23 4 -26q43 -102 207 -135q20 -4 28 -5q16 0 72 15 q143 37 256 153q16 14 55 56q123 131 164 278q16 59 16 74q0 39 -36.5 63.5t-77.5 24.5q-47 0 -152 -49q-37 -47 -92 -82l-6 8q90 174 248 174q200 0 200 -209q0 -80 -39 -145q-43 -72 -96 -146q-12 -10 -37 -28q-41 -43 -75 -74q-176 -150 -412 -158q-6 6 -12 7 q-6 0 -20.5 -2.5t-20.5 -2.5q-43 0 -170 70q-90 106 -90 229q0 287 325 572q35 29 123 101.5t275 174.5q350 193 706 193q272 0 524 -111q49 33 84 41q20 8 74 27q94 35 166 45l4 -31q-141 -33 -276 -127q2 -2 59 -65q33 -35 41 -76l18 -21q20 -61 21 -125q0 -156 -129 -297 q-111 -123 -273 -188q31 -12 64 -45q115 -117 115 -281q0 -94 -66 -239q-14 -33 -90 -113q-287 -305 -674 -305q-57 0 -104 41t-47 98q0 43 32 94q29 41 60 82q37 23 110 66q178 82 344 113l11 -23l-236 -90q-133 -61 -192 -150q-31 -45 -31 -61v-43q0 -49 33 -66 q20 -10 78 -10q104 0 231 64q100 53 121 84q16 25 16 26q12 12 27 15q223 254 223 526q0 51 -30.5 103.5t-75.5 76.5q-115 -27 -267 -51q-25 -4 -28 -4q-53 0 -54 51q0 29 43 43q104 37 179 37q82 0 135 -14q139 90 225 211q100 139 100 286q0 137 -63 193 q-51 -33 -148 -129q-162 -164 -358 -436q-53 -74 -186 -265q-23 -37 -84 -127q-23 -23 -73 -82t-181 -202q-147 -145 -305 -256q-309 -217 -646 -217q-150 0 -251 59q-154 90 -154 268z" />
<glyph unicode="C" horiz-adv-x="1296" d="M43 246q0 90 41 219q10 59 51 162q2 2 86 127q12 18 160 202q-92 16 -143 27q-84 18 -140 41l6 25q172 -31 316 -43q49 57 133 133q72 61 141 123q113 102 469 331q14 2 42 18.5t44 16.5q201 90 324 90q192 0 192 -127q0 -117 -192 -268q-53 -41 -206 -124t-218 -105 q-16 -4 -47 -13q-53 -25 -115 -43q-254 -80 -407 -80q-125 -147 -183 -247q-18 -43 -61 -123q-8 -12 -25 -39q-12 -35 -41 -103q-37 -66 -55 -167q-14 -82 -14 -132q0 -215 213 -215q104 0 254 62q35 18 102 61q160 127 227 209q115 137 115 275q0 147 -156 147 q-178 0 -323 -188q-66 -84 -96 -252h-25q-6 35 -6 51q0 115 82 231q78 104 186 164q86 47 189 47q227 0 227 -213q0 -10 -8 -92q-133 -279 -379 -426q-215 -129 -389 -129q-205 0 -303 137q-51 72 -64 179q-4 16 -4 51zM627 1022h8q43 0 264 51q23 10 72 24.5t98 30.5 q115 37 295 138q55 31 111 71l100 117q74 96 74 145q0 45 -19 62q-35 4 -55 4q-100 0 -313 -96q-18 -8 -66 -31q-90 -49 -252 -186.5t-233 -221.5q-61 -72 -84 -108z" />
<glyph unicode="D" horiz-adv-x="2164" d="M-248 59q0 129 215 129q100 0 234.5 -29.5t216.5 -74.5q59 -31 114 -55q25 8 125 39q25 8 86 53q233 174 439 452q121 170 362 506q211 289 422 457l-2 6q-158 172 -446 172q-80 0 -205 -20q-135 -23 -195 -49q-45 -20 -137 -82q-350 -231 -479 -521q-35 -78 -45 -127 v-10q0 -14 -11.5 -41.5t-11.5 -42.5q0 -270 219 -270q131 0 219 51q14 10 50 33q119 76 204 182q106 129 107 246q0 29 -26.5 70t-53.5 52t-78 11q-156 0 -262 -147l-27 12q43 84 125 133t176 49q90 0 144.5 -61.5t54.5 -153.5q0 -80 -84 -223q-111 -188 -405 -283 q-69 -22 -122 -22h-5q-41 0 -119 16q-86 16 -111 35q-16 14 -45 47q-104 121 -104 266q0 252 327 553q76 70 152 131l246 129q51 10 131 45q186 41 342 41q338 0 528 -190q12 16 49 37q8 10 88 53q195 104 349 123l8 -27q-57 -16 -148 -51q-178 -68 -307 -184 q29 -41 62 -103q71 -131 71 -322v-5q0 -248 -125 -476q-213 -387 -503 -524q-23 -25 -74 -51q-57 -31 -78 -45q-10 0 -72 -33q-152 -82 -448 -82q-86 0 -334 64q-4 2 -18 4q-272 -88 -357 -88q-18 0 -53 3t-53 3q-33 0 -64 -6q-4 4 -47 14q-86 20 -119 57q-18 8 -42.5 32 t-34.5 30q-14 37 -15 63zM-164 16q10 -43 53 -57q115 -39 248 -39q173 0 318 76q-74 39 -103 39q-27 16 -164 59q-4 2 -8 2h-8q-4 -2 -6 -2q-10 0 -19 12q-131 20 -141 21q-57 0 -108.5 -28.5t-61.5 -82.5zM633 -6q10 -2 137 -33q84 -20 139 -20q197 0 334 51 q104 39 293 162q289 188 463 508q51 94 88 231.5t37 241.5q0 213 -113 340q-150 -143 -307 -390l-266 -421q-59 -72 -178 -220q-18 -31 -64 -90q-47 -47 -311 -231q-49 -27 -113 -70h-4q-27 -10 -76 -41q-31 -2 -59 -18z" />
<glyph unicode="E" horiz-adv-x="1339" d="M12 217q0 133 70 246q164 266 457 424q37 16 129 61q125 61 151 146q10 106 23.5 211.5t77.5 185.5q129 164 333 207q8 12 21 12q4 0 14 -2t15 -2q12 0 33.5 3t33.5 3q115 0 207 -61q104 -67 104 -178q0 -119 -102 -214.5t-221 -95.5q-59 0 -118.5 41t-59.5 99 q0 119 120 182l17 -25q-76 -59 -76 -182q25 -61 115 -61q92 0 172 84.5t80 179.5q0 63 -53.5 112t-118.5 60q-27 4 -66 4q-315 0 -383 -283q-16 -121 -33 -241q-25 -109 -176 -191q-82 -45 -88 -49q-59 -29 -92 -35q-416 -315 -416 -694q0 -248 232 -248q113 0 323 100 q195 92 314 258q8 12 53 82q59 92 59 203q0 63 -145 113q-152 -4 -288 -96.5t-206 -229.5q-12 -27 -30 -100l-25 10q12 184 182 326q164 139 350 139q98 0 167 -61.5t69 -157.5q0 -29 -10 -66q-82 -285 -545 -506q-143 -69 -321 -69h-5q-147 0 -245.5 104.5t-98.5 251.5z " />
<glyph unicode="F" horiz-adv-x="1679" d="M-150 113q0 35 19 77q2 8 12 29q49 76 146 76q131 0 131 -127q0 -27 -8 -51q-45 -45 -58 -54q-30 -22 -70 -22h-4q-39 0 -26 2q-14 -2 -15 -18q0 -66 95 -105q70 -29 151 -29q356 0 641 334q25 31 86 113q23 29 82 102q78 98 170 254h-10q-37 0 -98 -14q-68 -16 -97 -18 l-4 28q98 45 260 66q377 578 781 821q-8 0 -26.5 -3t-27.5 -3q-23 0 -41 12q-492 47 -604 47q-195 0 -377 -43q-213 -49 -344 -145q-51 -37 -92 -102.5t-41 -122.5q0 -76 78 -125q68 -43 148 -43q117 0 223 45q127 53 164 147q18 47 18 76q0 65 -99 65h-3q-86 0 -123 -16 q-25 -16 -76 -45l-18 18q86 98 233 99q35 0 59 -6q41 -10 82 -49.5t41 -77.5q0 -145 -174 -234q-145 -74 -305 -74q-117 0 -209 50q-115 59 -114 165q0 170 202 295q303 186 778 187q158 0 259 -13q29 -4 104 -12q29 -2 104 -12q215 -35 230 -35q61 0 145 39q127 59 228 59 q90 0 90 -37q0 -55 -181 -88q-109 -14 -217 -28q-121 -80 -159 -109q-88 -66 -144 -131q-20 -29 -65 -84q-31 -35 -101 -121q-104 -131 -254 -364l5 -2q66 6 129 10q74 12 110 59q53 70 64 80q41 41 88 41q41 0 41 -37q0 -14 -14.5 -34.5t-16.5 -30.5q-49 -39 -136 -136.5 t-141 -138.5h-8q0 51 13 78l30 68q-31 -8 -92 -9t-90 -8q-6 2 -10 2q-6 0 -33 -41q-260 -406 -604 -647q-20 -14 -53 -32q-43 -20 -123 -56q-199 -84 -379 -84q-135 0 -238 68q-117 76 -117 205z" />
<glyph unicode="G" horiz-adv-x="1521" d="M-395 -889q0 41 8 62q4 10 33 49q150 201 393 325q90 45 289 144q72 33 256 119l41 20q8 6 22 14q14 31 101 148q18 25 98 151q-325 -237 -506 -237h-2q-102 0 -150 12q-76 20 -122 82q-74 98 -74 227q0 162 172 445q16 27 61 96q23 31 142 160q487 530 872 684 q160 63 322 63q119 0 202 -51q99 -59 99 -172q0 -199 -211 -342q-18 -14 -68 -49q-129 -84 -301 -84q-70 0 -118 39t-48 106q0 57 41 135q23 14 47 41q20 20 66 39q-113 -160 -113 -211q0 -100 152 -100q100 0 186 45q29 14 76 51q219 166 219 351q0 23 -2 34 q-68 119 -227 119q-125 0 -236 -43q-84 -33 -209 -115q-45 -29 -129 -100q-410 -344 -620 -674q-113 -174 -193 -377q0 -23 -15.5 -59.5t-17.5 -52.5q-10 -63 -10 -109q0 -74 43 -100q63 -41 141 -41q113 0 242 68q63 33 215 141q119 86 236 237l202 269q47 12 78 12 q55 0 55 -39q0 -33 -55 -100q-63 -78 -71 -101q-39 -39 -179 -252q-37 -55 -147 -223q51 29 201 137l213 154l-11 -55q-90 -68 -266 -209q-18 -6 -53 -38t-62 -38q-20 -20 -41 -20q-63 -37 -94 -86q-18 -23 -61 -80q-190 -268 -285 -375q-135 -152 -287 -254 q-195 -131 -352 -131q-39 0 -67 12q-4 -2 -9 -2q-51 0 -81.5 39t-30.5 90zM-297 -893q0 -57 31 -76q14 -2 30 -2q260 0 478 256q12 18 49 60.5t131 152.5q0 18 14 35l29 33q36 59 110 180q-61 -31 -223 -106q-342 -156 -499 -299q-150 -135 -150 -234z" />
<glyph unicode="H" horiz-adv-x="2324" d="M-207 25q0 49 14 75q8 14 37 52q166 209 449 333q184 82 338 146q207 86 346 131q332 440 557 649l8 12q74 57 166 133q-29 -2 -51 -2q-84 0 -197 25q-162 35 -192 39q-51 6 -125 6q-172 0 -334 -68q-199 -84 -231 -227v-4q0 -72 63 -111q51 -32 125 -32h4q100 0 171 52 t71 148q0 45 -45 56q-12 3 -46 3q-17 0 -40 -1l-2 6q43 37 90 37q53 0 96 -36t43 -87q0 -39 -35 -94q-31 -47 -65 -76q-76 -59 -222 -60q-106 0 -184 46q-96 55 -96 153q0 109 131 201q98 68 231 106q147 43 277 43q88 0 260 -35.5t260 -35.5q90 0 200.5 55t125.5 55 q12 0 39 -6q-20 -43 -66 -70q-10 -6 -90 -43q-25 -16 -82 -65q-135 -115 -266 -283q-78 -104 -236 -311q-29 -35 -86 -113q158 41 473 125q137 141 414 416q246 236 483 311q70 23 156 23q149 0 149 -127q0 -74 -77 -148q-33 -31 -140 -106q-309 -219 -827 -381 q-379 -471 -477 -797q-16 -53 -17 -106q0 -55 33 -80q57 -8 88 -8q236 0 529 272q78 74 153 182q92 135 92 211q-2 14 -20 72q-27 37 -76 37q-10 0 -26 -4q-233 -57 -373 -342q-37 -76 -45 -113q-4 -18 -4 -45h-29v23q0 188 188 376q150 150 287 150q90 0 135 -57 q29 -41 29 -78q0 -254 -371 -541q-147 -115 -282 -162q-121 -43 -193 -43q-106 0 -180 60.5t-74 165.5q0 162 146 399q74 119 256 356q-72 -12 -297 -73q-35 -8 -127 -35q-33 -10 -59.5 -46t-49.5 -69q-373 -498 -772 -696q-92 -45 -139 -60q-63 -18 -160 -18q-47 0 -82 16 q-6 -2 -10 -2q-51 0 -83 43t-32 97zM-100 14q0 -57 30 -75q33 -6 68 -7q262 0 500 252q141 150 211 228q2 20 51 69q45 62 135 187q-70 -29 -252 -99q-352 -135 -498 -243q-16 -16 -67 -58q-90 -74 -119 -108q-59 -70 -59 -146zM1901 1024q229 53 516 219q358 205 358 371 q0 14 -29 28q-283 -14 -602 -350q-86 -90 -239 -260z" />
<glyph unicode="I" d="M-143 170q0 96 56 152.5t153 56.5q55 -23 73 -41q25 -27 25 -80q0 -39 -8 -51q-2 -4 -17 -19q-61 -68 -155 -71q-2 -10 -2 -19q0 -14 14 -59q100 -84 244 -84q397 0 786 510q27 47 84 133q25 27 68 84q12 27 41 76q20 23 57 67q12 20 47 74q244 377 561 629q45 29 135 92 h-53q-606 0 -852 -150q-53 -33 -94 -90q-47 -63 -47 -118q0 -68 71 -82q29 -6 103 -6q61 0 126.5 45t92.5 102q-4 57 -13.5 66.5t-29.5 31.5q29 18 53 19q33 0 58.5 -27t25.5 -59q0 -72 -82 -138q-111 -90 -276 -90q-31 0 -90 4q-22 19 -57 19h-3q-67 71 -67 127 q0 25 24.5 79t42.5 72q25 27 88 68q203 133 607 172q106 10 114 10q-14 0 49 -2h48q43 0 128 8.5t125.5 8.5t111.5 30.5t93 30.5q51 0 51 -29q0 -33 -51 -57q-59 -4 -141 -31q-88 -29 -131 -61q-180 -139 -358 -385q-59 -80 -291 -440q-176 -272 -316 -422 q-41 -35 -123 -107q-16 -18 -51 -55q-12 -12 -84 -58q-315 -204 -574 -204h-3q-227 0 -344 159q-43 59 -43 109z" />
<glyph unicode="J" horiz-adv-x="1253" d="M-694 -930q0 88 28 131q113 168 353 324q59 39 419 237l275 152q49 68 141 205q51 84 92 141q68 94 197 303t193 303q330 489 600 701q37 29 137 102h-4q-25 0 -80 -12q-39 -8 -58 -10q-8 -2 -55 -5q-2 -2 -155 -28q-436 -76 -656 -174q-293 -131 -420 -303 q-77 -105 -77 -202q0 -79 55 -122q49 -41 127 -41q45 0 96 16q309 98 309 338q0 68 -78 68q-45 0 -161 -59l-56 -66l-20 14q29 72 100.5 121t149.5 49q164 0 164 -141q0 -66 -50 -141q-43 -68 -102 -111q-141 -102 -287 -133q2 0 -55 -4q-4 0 -17.5 -2t-21.5 -2 q-53 0 -116.5 27.5t-90 69.5t-26.5 116q0 266 432 500q219 119 520 188q197 45 549 92l172 21q6 -2 8 -2q35 0 101.5 28.5t101.5 36.5q49 -19 49 -31q0 -43 -49 -57q-29 -4 -53 -8q-72 -14 -160 -53l-37 -17q-43 -20 -199 -186q-174 -186 -350 -461q-102 -164 -311 -487 q-102 -156 -309 -482q51 37 196 140l215 151l-10 -55q-90 -66 -264 -207q-20 -6 -45 -29q-31 -29 -41 -34q-2 -2 -26.5 -11.5t-70 -38t-53.5 -45.5q-16 -16 -65 -84q-35 -53 -131 -184q-223 -289 -527 -500q-70 -49 -194 -116q-78 -31 -174 -31q-125 0 -125 100zM-582 -866 q0 -66 37 -101q6 -2 21 -2q49 0 92 19q166 72 332 241q92 94 266 318q0 18 18 31q8 2 21 16q39 43 117 158q-76 -39 -194 -103.5t-349 -195.5q-186 -111 -301 -258q-12 -14 -36 -62.5t-24 -60.5z" />
<glyph unicode="K" horiz-adv-x="2627" d="M-127 147q0 70 48 129.5t116 59.5q47 0 92 -31q43 -57 43 -82q0 -14 -6 -26q-2 -57 -111 -123q-37 -2 -57 -13v-4q0 -12 20 -61q76 -57 195 -57q102 0 222 33.5t198 88.5q45 29 131 91q121 88 350 391q31 39 111 143q8 16 30 49q31 29 88 94q391 547 709 777 q-18 0 -54 -9.5t-54 -9.5q-20 0 -46 10q-23 -4 -65 -4q-61 0 -176 11l-53 4q-23 0 -111 -9q-244 -23 -346 -98q-39 -29 -74 -84t-35 -98q0 -57 40 -91t100 -34q96 0 174 43q94 51 94 139l35 8q4 -18 4 -36q0 -27 -31 -101q-130 -114 -277 -114h-3q-94 0 -154 45 q-66 49 -66 139q0 35 13 63q98 229 483 271q96 10 139 10q59 0 177 -6t178 -6q162 0 227 39q84 49 117 49q28 -1 28 -21q0 -12 -10 -26q-184 -102 -348 -275q-129 -137 -277 -348q-82 -123 -251 -367q-342 -479 -707 -680q-20 0 -43 -14l-45 -26q-10 -6 -14 -7 q-27 -10 -109 -39q-164 -57 -291 -57q-137 0 -235 66q-113 74 -113 204zM1520 815q0 29 43 53q31 4 47 4q29 0 170 -41q119 41 231 150q61 59 182 213q113 143 187 209v2q0 14 47 41q27 23 98 78q242 180 473 180q197 0 244 -125q6 -17 6 -27q0 -139 -143 -139q-43 0 -74 23 q10 31 64 67q14 27 14 64q0 41 -43 78q-39 4 -62 4q-213 0 -405 -176q-82 -76 -221 -238q-145 -168 -221 -240q-129 -121 -269 -182l-51 -22q72 -74 72 -177q0 -70 -70 -243q-18 -10 -29.5 -53.5t-29.5 -55.5q-53 -139 -54 -231q0 -29 17 -45q45 -47 158 -47q172 0 366 151 q205 158 205 324q0 47 -82 92q-7 1 -15 1q-28 0 -67 -11h-5q-81 0 -157 -66q-68 -57 -110 -143l-25 12q25 115 131 193q99 75 218 75h3q82 0 129.5 -49t47.5 -131q0 -98 -107 -223q-88 -102 -192 -164q-188 -109 -355 -109q-152 0 -244 82q-12 18 -34 60q-27 66 -27 123 q0 109 76 231l131 205q2 10 8 39q20 72 21 88q0 20 -39 51q-23 0 -69 -8t-71 -8q-35 0 -71 14q-47 18 -47 47z" />
<glyph unicode="L" horiz-adv-x="1683" d="M-276 -2q0 113 276 174q193 43 373 43q57 0 171 -11q97 -9 98 -11h-3q18 0 43 2q266 264 448 538q-37 -4 -73 -4q-133 0 -203 33q-205 96 -205 293q0 20 8 53q10 41 23 41q16 0 16 -55q0 -158 115 -234q97 -65 257 -65h5q49 0 96 6q31 47 152 270q88 164 164 264 q10 14 74 86q10 10 18 29l10 20q4 8 17 9q94 100 237 190q166 104 277 105q43 0 80.5 -23.5t37.5 -64.5q0 -133 -159 -332q-291 -360 -561 -500q-117 -59 -193 -90q-16 -23 -47 -72q-80 -127 -223 -284q-147 -164 -262 -246q8 -6 28 -19q121 -25 240 -149h6q219 164 342 252 l12 -23q-41 -59 -119 -121q-68 -51 -135 -102q-27 -20 -73 -66q-8 -8 -15.5 -37.5t-17.5 -37.5q-8 -29 -40 -54.5t-63 -25.5q-14 0 -32 14q0 20 13 61.5t13 61.5q0 51 -82 117q-63 51 -129 80q-41 0 -151 -78q-164 -84 -258 -103q-102 -20 -236 -59q-14 6 -22 6 q-10 0 -33 -3t-33 -3q-94 0 -131 18q-39 12 -115 33q-37 37 -36 74zM-164 -35q25 -39 82 -39q428 0 678 213q-35 8 -61 8q-20 0 -43 -6q-43 10 -103 11q-18 0 -54 -2.5t-54 -2.5q-4 2 -11 3q-2 0 -11 -5.5t-17 -5.5q-10 0 -19 8l-131 -16q-76 -10 -129 -33 q-127 -55 -127 -133zM1370 844q162 49 350 211q152 131 332 379q59 82 59 219q0 29 -14 53q-20 2 -22 2q-90 0 -215 -102q-96 -80 -166 -176q-84 -115 -178 -297q-29 -55 -146 -289z" />
<glyph unicode="M" horiz-adv-x="3354" d="M-156 209q0 45 29 70q12 45 57 84.5t90 39.5q166 0 166 -147q0 -37 -20 -72q-96 -78 -135 -78q-23 0 -43 13q-14 -6 -19 -23l8 -61q102 -86 273 -86q154 0 309 63h2q64 0 256 127q328 217 633 584q172 207 502 553q47 49 168 178q18 23 71 80q35 27 68 51l117 92 q70 45 139 45h72q53 -27 63 -73q-20 -98 -65 -181q-29 -51 -109 -155q-96 -125 -123 -164q-94 -139 -344 -500q-88 -117 -303 -426q-8 -12 -70 -135q-41 -82 -41 -102q0 -6 11 -6q74 0 188 122q43 45 109 121q109 158 202 279q137 172 490 622l69 88q106 135 211 254 q197 221 306 244q31 6 63 6q35 0 64.5 -19.5t29.5 -51.5q0 -12 3 -35t3 -35q0 -39 -77 -176q-39 -35 -97 -127q-16 -27 -41 -62q-57 -63 -135 -186l-123 -197q-8 -12 -18 -14q-100 -143 -285 -438q-6 -18 -20 -53q-16 -23 -39 -74q-14 -23 -12 -51q-51 -94 -52 -174 q0 -29 6 -54q47 -30 113 -30h4q84 0 210 56t185 118q14 2 36 25.5t30 27.5q193 203 193 297q0 82 -36 106.5t-122 24.5q-14 0 -58 -19q-180 -76 -280 -315q-10 41 -10 55q0 66 65 148q53 66 121 115q101 73 196 73h3q88 0 138 -48t50 -136q0 -139 -164 -301 q-279 -276 -565 -277q-109 0 -176 56q-74 59 -74 164q0 113 88 278q27 49 160 256q23 37 68 111q43 68 77 96q23 41 95 135q63 82 86 137q57 55 122 152l111 162q37 47 64 112q37 92 47 121h-27q-262 -258 -465 -475q-23 -23 -45 -47q-25 -31 -29 -55q-39 -29 -106 -121 q-12 -14 -66 -78q-147 -176 -215 -281q-25 -39 -49 -71q-8 -8 -29.5 -31t-185.5 -254q-113 -158 -199 -229q-127 -104 -237 -105q-39 0 -69.5 27.5t-30.5 66.5q0 14 12 58q55 193 250 465q53 74 118 161q29 29 119 160q27 41 226 293q133 170 210 303q10 18 41 62 q43 47 80 141q-12 6 -32 6q-82 0 -285 -209q-178 -184 -416 -455q-174 -201 -407 -460q-18 -18 -177 -172q-66 -63 -135 -123q-14 -8 -41 -25q-47 -45 -129 -94l-118 -72q-117 -72 -359 -139q-88 -25 -178 -25q-106 0 -184 25q-158 51 -199 162q-2 10 -10 51z" />
<glyph unicode="N" horiz-adv-x="2582" d="M-172 215q0 72 50 135.5t120 63.5q25 0 65 -19q63 -29 64 -139q0 -51 -57 -84q-49 -23 -101 -45q-2 -10 -2 -18q0 -106 164 -150q82 -22 152 -22h6q90 0 188 16q23 14 68 22q53 8 71 15q94 27 230 94q279 141 534 403q451 461 703 912q47 94 145 284q20 37 53 37 q31 0 31 -32q0 -2 -2 -9v-6l-4 -4l-4 -6q-51 -125 -76 -320q-12 -109 -39 -327q-39 -250 -102 -709q371 602 684 942q53 57 115 111q6 4 16 10q84 86 166 148q197 147 442 194q20 4 29 4q102 0 188 -61q27 -18 33 -27q31 -41 31 -94q0 -61 -113 -121q-10 -4 -20 -4 q-25 0 -52 23q14 29 15 67q0 100 -72 135q-39 18 -67 19q-35 0 -135.5 -43t-137.5 -68q-16 -12 -57 -41q-23 -12 -76 -45q-211 -141 -512 -547q-377 -506 -592 -899q-14 -29 -55 -102q-20 -31 -74 -31q0 39 23 98q29 72 32 97q43 227 179 1192q-221 -354 -566 -723 q-76 -84 -239 -242q-14 -8 -45 -29q-33 -29 -72 -59q-285 -217 -618 -295q-12 -14 -47 -13t-42 -14q-88 -4 -127 -4q-29 0 -87 6.5t-86.5 6.5t-79 24.5t-76.5 26.5q-72 59 -74 61q-41 37 -61 76q-2 18 -14.5 61t-12.5 68zM2904 1372z" />
<glyph unicode="O" d="M43 240q0 195 129 411q25 35 88 131q14 25 53 82q31 43 158 183q436 483 858 614q139 43 187 43q104 0 182 -49q92 -58 92 -156q0 -53 -31 -90q-16 -8 -16 -63q0 -20 -23 -119q-16 -76 -96 -230q-12 -23 -43 -82q-23 -29 -78 -106q-131 -184 -225 -295q-49 -63 -94 -111 l-10 -6q-31 -18 -74 -63l-70 -72q-291 -268 -502 -346q-84 -31 -178 -31q-307 0 -307 355zM203 172q0 -111 16 -154q29 -75 121 -75h2q31 0 93.5 12t83 24.5t30.5 12.5l4 -2q195 92 373 274q498 508 673 942q37 90 37 146q0 111 -53 151q-39 29 -72 29q-12 0 -24 -4 q-195 -63 -338 -258q-123 -168 -184 -393h-25q-8 29 -8 51q0 53 53 174q57 131 152 239q16 18 69 68q186 170 338 170q91 0 154 -66q-23 131 -170 132q-111 0 -250 -56q-53 -20 -166 -104q-102 -74 -156.5 -126t-136.5 -140q-324 -350 -452 -594q-20 -41 -105 -250 q-59 -150 -59 -203z" />
<glyph unicode="P" horiz-adv-x="1730" d="M-143 160q0 39 28.5 96t61.5 66q27 10 92 10q41 0 76 -37t35 -78q0 -100 -84 -143q-4 0 -11 -2q-6 0 -16 2t-16 2q-16 0 -17 -21q0 -33 17 -59q100 -63 237 -64q186 0 371 109q92 53 270 248q131 143 285 395q121 199 184 297q289 444 547 635q-16 25 -98 55 q-119 45 -299 45q-498 0 -938 -428q-111 -106 -191 -254q-90 -164 -90 -301q0 -51 35 -108.5t80 -78t114 -20.5q215 0 410 236q84 102 117 184q12 31 14 45v27q0 76 -20 104q-25 39 -97 39q-76 0 -114 -12q-51 -16 -127 -98q-68 -78 -95 -136l-26 9q20 113 126.5 199.5 t221.5 86.5q219 0 219 -276q0 -25 -35 -94q-68 -135 -217 -234q-141 -94 -297 -121q-37 -6 -69 -6q-135 0 -220 81t-85 216q0 154 88 293q268 426 778 617q150 55 227 67q14 2 109 10l37 9q25 4 36 4q236 0 457 -115q104 66 143 82q68 31 162 43l17 -21q-158 -59 -262 -145 q29 -31 79 -96q70 -113 70 -240q0 -166 -131 -303q-78 -82 -148 -119q-141 -76 -237 -76q-49 0 -94 25q-51 29 -51 74q0 33 79 106q94 41 144 41q18 0 55 -4v-10q-96 -43 -121 -60q-66 -43 -65 -102q18 -23 53 -22q23 0 61.5 11t55.5 13q92 109 166 236q92 160 92 262 q0 137 -68 215q-12 -4 -65 -70q-92 -84 -183 -227q-35 -49 -118 -178q-324 -512 -400 -613q-260 -348 -522 -497q-80 -45 -206 -75t-226 -30q-180 0 -297 86q-33 25 -43 37q-18 23 -34.5 74t-16.5 82z" />
<glyph unicode="Q" horiz-adv-x="1818" d="M-201 25q0 155 297 155h4q207 0 367 -63q98 -39 117 -39q31 0 100 28q16 6 107 64q115 72 247 178l238 189q16 27 45 51l55 47l29 37q23 25 78 86q113 131 192 297q92 190 92 336q0 231 -213 231q-115 0 -239 -47q-324 -123 -555 -483q-68 -104 -68 -205q0 -76 57.5 -127 t133.5 -51q233 0 424 303q79 125 79 213q0 82 -79 82q-63 0 -111 -43q-35 -33 -55 -43l-17 16q78 117 189 117q53 0 143 -68q25 -49 25 -100q0 -115 -158 -309q-25 -31 -88 -78q-193 -143 -342 -144q-86 0 -170 56q-92 63 -92 145v29q0 240 235 467q207 199 461 280 q117 37 262 37q160 0 246 -97t86 -259q0 -246 -246 -543q-176 -213 -450 -420q-16 -2 -125 -67q-100 -59 -131 -84q-39 -29 -80 -56q-18 -6 -53 -22q-18 -14 -56 -37q-33 -12 -94 -39q317 -100 571 -100q37 0 60 4q45 8 133 53t115 76q20 25 34 18l76 51l13 -20 q-31 -55 -97 -102q-8 -6 -121 -76q-166 -102 -366 -103q-98 0 -193 35q-25 0 -72.5 17.5t-72.5 17.5q-57 33 -180 80q-102 -45 -176 -74q-94 -35 -177 -49q-90 -12 -178 -25q-6 8 -14 11q-66 8 -80 12q-47 12 -70 37q-18 4 -41 22q-29 25 -38 29q-12 37 -13 66zM-119 -14 q10 -41 53 -52q74 -16 164 -16q222 0 406 115q-63 30 -90 30q-6 0 -11 -2q-45 27 -174 45q-8 -4 -14 -4q-10 0 -18 13q-16 0 -50 3t-51 3q-55 0 -88 -10q-111 -35 -127 -125z" />
<glyph unicode="R" horiz-adv-x="2138" d="M-131 106q0 37 4 54q10 37 58.5 72.5t86.5 35.5q129 0 129 -151q0 -45 -26 -62q-37 -47 -129 -53v-2q0 -8 10 -39q20 -8 55 -33q47 -14 105 -14q123 0 184 16q8 4 45 21q27 12 47 8q197 84 389 285q127 133 303 381q340 477 390 540q236 295 477 461q-29 31 -80 51 q-31 8 -92 27q-20 8 -78 25q-29 2 -64 2q-530 0 -907 -265q-219 -154 -307 -286q-8 -6 -55 -78q-131 -203 -131 -338q0 -233 223 -234h33q125 0 264 134q80 78 198 237q4 27 31 92q23 57 23 101q0 84 -97 84q-90 0 -190 -78q-90 -70 -139 -158q-18 -10 -47 -10 q82 190 258 270q53 25 65 25q117 0 170 -33q70 -43 70 -150q0 -209 -223 -393q-213 -174 -428 -174q-86 0 -162 47t-107 125q-6 14 -14 82l-6 41q0 8 4 25q51 252 215 444q133 156 385 315q190 121 491 197q121 31 304 31q274 0 456 -121h4q135 92 297 123l-4 -37 q-115 -39 -235 -121q16 -18 49 -55q74 -88 74 -223q0 -57 -47 -191q-18 -37 -50 -51q-80 -92 -157 -133q-8 -6 -47 -27q-31 -14 -41 -35q-29 -2 -52.5 -12t-54.5 -27q-45 -8 -129 -38q111 -78 129 -142q2 -4 8 -20q0 -2 8.5 -10.5t8.5 -16.5q0 -6 -6 -16l-9 -8q2 -12 2 -31 q0 -90 -90 -242q-10 -33 -39 -94q-16 -27 -47 -82q-39 -88 -39 -162q0 -39 13 -65q35 -29 127 -29q6 20 39 16l65 25q14 25 78 57q57 45 96 101l47 16q-43 -123 -239 -221q-12 -4 -74 -25q-20 -4 -62 -14q-100 16 -120 23q-63 23 -93 73q-33 61 -32 119q0 111 106 262 q6 23 47 78q37 49 37 82q16 12 23.5 50t21.5 48q0 14 7.5 47t7.5 52q0 41 -36 71.5t-77 30.5q-25 0 -73 -9t-72 -9q-313 -453 -633 -709q-195 -156 -537 -213q-61 -10 -110 -10q-23 0 -70 4q-18 14 -65.5 25.5t-67.5 27.5q-78 68 -78 190zM1477 864q70 10 206 39 q29 12 101 47l14 8q66 33 168 166t115 203q4 22 4 59q0 188 -45 191l-4 -6q-211 -147 -434 -504q-35 -55 -125 -203z" />
<glyph unicode="S" horiz-adv-x="1533" d="M-174 162q0 92 80 180q10 4 63 27q35 14 66 14t66.5 -24.5t45.5 -53.5q2 -8 11 -76q-41 -112 -131 -112h-2q-27 0 -82 12q-16 -8 -27 -53q16 -88 121 -131q82 -35 186 -35q274 0 498 172q139 106 248 250q68 88 192 293q-37 -4 -74 -4q-131 0 -200 32q-205 96 -205 293 q0 92 29 92q16 0 16 -53q0 -156 115 -233q98 -68 262 -68q49 0 96 6q47 74 154 271q96 178 162 264q12 16 73 86q10 10 19 28l10 21q4 10 18 10q94 102 236 191q164 102 278 102q43 0 80 -22.5t37 -63.5q0 -125 -168 -334q-281 -348 -555 -491q-82 -43 -180 -80 q-227 -418 -479 -590q-336 -231 -627 -232q-240 0 -360 136q-72 82 -72 176zM1393 735q330 100 682 588q27 37 48 105.5t21 115.5q0 29 -16 53q-20 2 -23 2q-53 0 -157 -61q-160 -94 -320 -360q-31 -51 -235 -443z" />
<glyph unicode="T" horiz-adv-x="1679" d="M-150 113q0 35 19 77q2 8 12 29q49 76 146 76q131 0 131 -127q0 -27 -8 -51q-45 -45 -58 -54q-30 -22 -70 -22h-4q-39 0 -26 2q-14 -2 -15 -18q0 -66 95 -105q70 -29 151 -29q356 0 641 334q25 31 86 113q23 29 84.5 105.5t167.5 250.5q8 14 51 62q377 578 781 821 q-8 0 -26.5 -3t-27.5 -3q-23 0 -41 12q-492 47 -604 47q-195 0 -377 -43q-213 -49 -344 -145q-51 -37 -92 -102.5t-41 -122.5q0 -76 78 -125q68 -43 148 -43q117 0 223 45q127 53 164 147q18 47 18 76q0 65 -99 65h-3q-86 0 -123 -16q-25 -16 -76 -45l-18 18q86 98 233 99 q35 0 59 -6q41 -10 82 -49.5t41 -77.5q0 -145 -174 -234q-145 -74 -305 -74q-117 0 -209 50q-115 59 -114 165q0 170 202 295q303 186 778 187q158 0 259 -13q29 -4 104 -12q29 -2 104 -12q215 -35 230 -35q61 0 145 39q127 59 228 59q90 0 90 -37q0 -55 -181 -88 q-109 -14 -217 -28q-121 -80 -159 -109q-88 -66 -144 -131q-20 -29 -65 -84q-31 -35 -101 -121q-104 -131 -254 -364q-20 -43 -28 -58q-6 0 -33 -41q-260 -406 -604 -647q-20 -14 -53 -32q-43 -20 -123 -56q-199 -84 -379 -84q-135 0 -238 68q-117 76 -117 205z" />
<glyph unicode="U" horiz-adv-x="1675" d="M84 106q0 80 47 173q16 27 96 153q141 225 310 447q186 246 221 297q123 182 172 325q16 47 16 76q0 14 -6 29q-39 20 -80 20q-80 0 -223 -86q-90 -53 -201 -160l-184 -178l-25 25q150 166 248 250q150 127 301 176q67 22 96 22h2q100 0 181 -80q20 -47 20 -98 q0 -100 -100 -262q2 -4 2 -8q0 -6 -33 -39q-8 -8 -14 -21q-88 -135 -209 -284q2 -4 2 -9q0 -27 -33 -34q-68 -106 -127 -189q-20 -27 -71 -94q-76 -106 -175 -268q-8 -27 -28 -78q-6 -12 -25 -43q-47 -88 -47 -176q0 10 2 -25q16 -20 94 -20q59 10 107 26q115 41 233 146 q72 63 195 198q31 39 113 140q111 133 239 303q14 25 43 71q27 35 94 127q53 82 197 293q31 41 108 150q12 18 46 67q25 33 86 119q10 16 41 58q28 28 72 28h3q16 0 35 -8l4 -4h4q6 6 17 6q12 0 22 -14q0 -41 -26 -78q-33 -37 -64 -80q-45 -68 -156 -225l-161 -221 q-391 -553 -586 -910q-2 -18 -15.5 -59t-13.5 -66q0 -71 100 -71h3q141 0 370 190q57 47 322 299l16 -20q-23 -57 -166 -195q-10 -12 -110 -98q-127 -109 -201 -154q-123 -76 -235 -76q-225 0 -226 207q0 72 25 127l-4 4q-150 -158 -262 -231q-164 -106 -330 -107 q-80 0 -127 72q-41 61 -41 145z" />
<glyph unicode="V" horiz-adv-x="1386" d="M-33 -88q33 57 60 80q78 63 204 188q121 145 215 340q55 121 168 365q12 29 150 274q8 18 31 64q4 6 57 82q18 29 70 102q41 51 147 186q-47 -10 -174 -28q-256 -33 -346 -60q-211 -61 -285 -182q-27 -43 -26 -90q0 -80 116 -80q82 0 160 60.5t96 138.5l21 -13v-12 q0 -86 -91 -156.5t-182 -70.5q-37 0 -86 18q-55 18 -75 45q-27 33 -27 88q0 98 113 189q92 74 202 108q86 27 263 54q33 6 118 16q25 0 88 6q170 18 291 129h39q6 -14 6 -24q0 -14 -49 -60q-92 -84 -256 -379q-4 -10 -35 -84q-20 -49 -45 -76q-33 -88 -198 -413 q-27 -55 -99 -197q-10 -20 -49 -71q-129 -172 -237 -279q59 27 264 152q537 328 889 706q88 96 264 358q-33 72 -33 130q0 70 29 135q35 82 96 82q37 0 59 -50q18 -39 19 -79q0 -57 -49 -228q31 -14 84 -14q49 0 124.5 24.5t94.5 24.5q16 0 16 -12q0 -35 -104 -66 q-83 -26 -130 -26h-3q-55 0 -109 14q-342 -471 -795 -774q-391 -262 -829 -508q-33 -47 -152 -150q-8 0 -24.5 -2t-24.5 -2q-29 0 -41 27z" />
<glyph unicode="W" horiz-adv-x="1886" d="M-35 -80l2 10q57 55 117 103q45 37 72 73q150 207 239 375q18 37 70 133q18 33 65 125q35 72 132 260q33 57 83 156q8 20 35 74q16 23 51 65q27 47 84 142q35 31 125 137q-47 -10 -174 -29q-258 -33 -344 -57q-203 -57 -284 -187q-29 -45 -29 -88q0 -77 114 -77h3 q80 0 157.5 60t98.5 138l22 -12v-4q0 -92 -91 -164t-185 -72q-109 0 -164 68q-25 29 -25 82q0 98 113 188q90 72 203 109q94 31 262 55q47 6 121 16q45 0 84 5q158 16 292 129q6 4 15 4q16 0 31 -15l-9 -30q-160 -158 -282 -406q-94 -199 -189 -399q-123 -254 -215 -375 q-66 -88 -88 -141q-37 -41 -123 -142l4 -4q473 340 971 836q8 12 27 43q20 47 67 137q20 29 60 84q12 23 39 70q29 31 53 63q90 115 117 141q72 70 155 93q20 -29 21 -62q0 -39 -33 -92q-47 -76 -51 -88q-41 -39 -137 -147q-23 -23 -81.5 -84.5t-111.5 -194.5l-86 -213 q-221 -426 -395 -651l2 -2q18 14 57 45q80 47 199 127q344 227 549 415q260 240 436 537q82 139 82 213q0 20 -24.5 63.5t-24.5 67.5q0 47 65 88h58q67 -40 67 -144q0 -38 -4 -59q25 -10 51 -10q25 0 146 29l18 -23q-63 -53 -170 -53q-25 0 -55 2l-8 -4 q-209 -612 -1418 -1339q-129 -78 -188 -148q-12 -18 -41 -49q-43 -37 -86 -37q-4 0 -12 2h-13q-12 16 -12 39q63 51 172 166q18 43 64 107q61 88 69.5 104t22.5 53q23 41 80 146q37 74 131 268q31 43 71 131q-356 -342 -735 -627q-102 -78 -323 -229q-18 -10 -49 -35 q-63 -78 -68 -82q-43 -43 -92 -45q-20 20 -25 43z" />
<glyph unicode="X" horiz-adv-x="1998" d="M-127 31q0 90 119 194q12 10 41 37q10 10 39 41q39 39 147 98q434 238 983 428q240 342 240 676q0 150 -211 150q-123 0 -252 -74q-307 -176 -383 -369q-4 -8 -51 -94q-31 -55 -31 -104q0 -23 18.5 -53.5t36.5 -40.5q35 -18 74 -19q43 0 131 37q45 18 123 96 q174 172 174 335v7l19 35q27 -53 26 -104q0 -96 -53 -177q-12 -20 -117 -143q-47 -55 -138 -95t-165 -40q-106 0 -145 47q-18 29 -56 88q-4 25 -4 39q0 47 47 176q4 10 31 44t27 46q322 410 733 410q143 0 230 -87t87 -231q0 -35 -8 -63q0 -2 2 -6v2q-2 0 -12 -66 q43 57 133 131q201 166 453 289q51 25 92 25q110 -1 149 -101q0 -94 -127 -219q-2 -23 -59 -53q-160 -125 -401 -260q-248 -139 -265 -139q-43 -18 -90 -41t-71 -56q-66 -88 -91 -137q-8 -23 -34 -67q-20 -23 -21 -29q0 -4 2 -8q-72 -78 -112 -207q-39 -119 -39 -234 q0 -94 22 -137q33 -61 117 -61q188 0 395 176q190 162 266 350q33 80 33 125q0 74 -23.5 104.5t-95.5 30.5q-123 0 -262 -143q-125 -129 -168 -260l-26 4v18q0 135 170 293q141 131 295 131q184 0 184 -196q0 -121 -125 -289q-293 -395 -643 -395q-307 0 -307 311 q0 16 10 50t10 52q0 10 -2 15q-74 -68 -194 -152q-264 -184 -572 -266l-10 -12q-53 -6 -98 -7q-197 0 -197 144zM0 27q0 -84 72 -84q4 2 26 6q420 94 811 497q89 92 234 295q-367 -123 -715 -301q-80 -41 -162 -88q-68 -49 -149 -129q-98 -96 -113 -155q-4 -16 -4 -41z M1475 948q244 106 278 144q68 20 240 143q25 16 84 59q184 140 184 316q-15 28 -36 28h-1q-1 1 -2 1l-2 -1q-121 -27 -227 -116q-371 -315 -518 -574z" />
<glyph unicode="Y" horiz-adv-x="1613" d="M-412 -930q0 104 68 199q43 59 149 151q33 23 191 136q109 78 352 215q102 57 369 211q102 141 227 337v7q-135 -137 -278 -240q-204 -149 -324 -149h-2q-98 0 -160 51q-67 54 -67 148q0 97 96 261q23 39 82 138q127 162 229 299q37 55 139 196q20 27 70 92q14 25 49 86 q49 82 106.5 191.5t57.5 204.5q0 53 -78 53q-100 0 -172 -45q-195 -123 -342 -277q-55 -59 -198 -217l-27 15q178 272 414 434q201 137 315 137q178 0 227 -188q-35 -201 -118 -314q-18 -23 -38 -52.5t-26 -59.5q-35 -20 -96 -127q0 -27 -27 -33q-20 -25 -59 -78 q-10 -25 -68 -92q-96 -115 -336 -512q-73 -121 -73 -187q0 -25 2 -38q35 -35 86 -35q72 0 192 71q422 252 856 899q68 109 252 383q68 94 238 340q29 16 63 17q49 0 90 -31q-16 -59 -57 -119q-27 -35 -76 -106.5t-270 -394.5q-193 -283 -361 -519q-4 -33 -34 -65 q-47 -49 -52 -57q-20 -33 -73 -117q-41 -57 -146 -209l447 270q82 49 86 49q8 0 8 -14q0 -25 -66 -80q-2 -2 -100 -63q-70 -45 -250 -158q-66 -39 -211 -133q-2 -2 -35 -47l-81 -113q-45 -66 -173 -233q-162 -203 -382 -369q-264 -197 -469 -219q-20 8 -52 8q-84 47 -84 92z M-244 -963q145 12 297 132q86 68 236 233q25 23 82 88q84 101 274 377q-209 -113 -264 -143q-147 -84 -254 -160q-16 -12 -61 -43l-17 -8q-23 -20 -72 -58q-20 -6 -90 -73q-153 -146 -153 -304q0 -27 22 -41z" />
<glyph unicode="Z" horiz-adv-x="2129" d="M-109 -53q33 68 117 123q47 31 172 112q51 35 350 279t713 583q123 104 445 373q-61 -10 -103 -10q-113 0 -299 132t-289 132q-123 0 -237 -84q-123 -88 -131 -207q-12 -20 -13 -47q0 -23 15 -76q68 -72 119 -83q6 0 16 -3q20 -8 27 -8q47 0 106 25.5t87 61.5t28 110 q0 4 -29 88q18 8 27 8q37 0 61 -45q20 -37 21 -78q0 -33 -11 -53q-4 -6 -15 -25.5t-28.5 -44t-42.5 -28.5q-109 -68 -219 -68q-100 0 -163.5 56.5t-63.5 154.5q0 176 188 307q170 119 355 119q193 0 411 -162q45 -33 93.5 -65.5t103.5 -32.5q74 0 143 45l140 115 q100 82 143 82q31 0 31 -27q0 -55 -205 -180q-121 -74 -180 -121q-47 -37 -168 -135q-20 -18 -76 -68q-37 -27 -109 -82q-14 -33 -57 -47q-344 -295 -1042 -868l2 -4q97 10 97 12h-5q35 0 63 -18q27 12 53 12q68 0 156 -45q47 -27 143 -78q299 -162 523 -162q352 0 549 275 q65 89 65 189q0 71 -20 110q-31 59 -113 90q-66 26 -140 26h-5q-78 0 -127 -14q-150 -43 -246 -147q-18 -27 -49 -64q-43 -35 -51 -151l-29 -9q-12 39 -12 64q0 106 122 215q195 174 416 174q51 0 125 -16q100 -23 170 -134q27 -43 27 -118q0 -84 -51.5 -189.5 t-116.5 -161.5q-82 -68 -213 -155q-23 -6 -70 -25q-6 -4 -24 -12q-66 -31 -183 -45q-147 -16 -186 -25q-2 2 -45 2h2q0 3 -166 35q-80 14 -147 39q-88 63 -261 201q-16 4 -61 30q-25 14 -41 21q-70 25 -106 25q-90 0 -215 -80q-43 -27 -189 -144h-37q-23 0 -35 19z" />
<glyph unicode="[" horiz-adv-x="1001" d="M-365 -512q37 49 187 279l452 694q61 88 222 321q104 156 376 559q61 84 185 254q33 59 98 177q45 4 135 10q2 2 8 2q31 0 117 -12q59 0 178 -11l23 -26q-53 -33 -141 -33q-12 0 -36 2t-36 2q-43 0 -64 -43q-51 -8 -94 -59q-12 -18 -65 -97q-20 -33 -76 -121 q-35 -43 -96 -139q-25 -47 -64 -102q-115 -160 -229 -322q-53 -74 -111 -172q-55 -57 -151 -217q-12 -14 -60 -74q-119 -150 -280 -401q-252 -393 -265 -412v-12q0 -33 15 -43q90 2 266 -16q8 -14 8 -19q0 -8 -6 -14q-53 -23 -115 -23q-219 0 -342 9z" />
<glyph unicode="\" horiz-adv-x="798" d="M0 1403q0 51 47 57q16 -33 76 -149q6 -12 49 -150q10 -31 119 -358q12 -41 51 -148q16 -33 55 -116q0 -2 47 -138q27 -76 62 -129q12 -61 84 -254q57 -156 57 -258q-43 10 -59 37q-6 8 -23 56q-23 57 -78 208q-68 203 -243 730q-12 39 -49 141l-54 117q-31 90 -108 266 q0 16 -16.5 49t-16.5 39z" />
<glyph unicode="]" horiz-adv-x="1005" d="M-731 -567q53 35 141 35q12 0 36 -2.5t36 -2.5q43 0 65 41q49 8 93 62q6 6 65 94q20 35 78 121q27 39 94 141q12 29 162 244l250 362q25 33 73 101q39 55 62 106q35 35 80 107l71 110q4 4 60 76q92 119 217 311q209 317 209 320v12q0 33 -17 43q-88 -2 -264 17 q-10 14 -10 18q0 8 6 14q53 20 115 21q37 0 111.5 -2t111.5 -2q80 0 121 -2l39 -60q-33 -45 -260 -397l-256 -395q-10 -14 -70 -99q-33 -47 -176 -260q-80 -121 -293 -438l-205 -303q-37 -43 -186 -254q-23 -47 -57 -111q-8 -14 -37 -65q-45 -4 -137 -10q-6 -8 -15 -9 q-6 0 -20.5 6.5t-25.5 6.5t-33.5 3t-32.5 3q-59 0 -179 12z" />
<glyph unicode="^" horiz-adv-x="1423" d="M117 537l946 1032l100 -10l58 -1027l-99 -43l-45 945l-884 -947z" />
<glyph unicode="_" horiz-adv-x="1026" d="M-8 -262q0 8 8 8l111 8l39 -10h126l89 6l79 -6h183l176 4l223 -2q8 0 8 -8v-39q0 -8 -8 -8h-102l-125 -8l-68 10l-98 -2l-225 4l-89 -12l-104 8l-131 -2l-84 2q-8 0 -8 8v39z" />
<glyph unicode="`" horiz-adv-x="501" d="M371 1403q0 2 2 8q18 10 37 10q66 0 129 -59q51 -55 102 -111q127 -133 127 -143q0 -6 -10 -6q-12 2 -70 16q-29 39 -106 88q-55 35 -121 78q-90 72 -90 119z" />
<glyph unicode="a" horiz-adv-x="1005" d="M-164 88q0 117 137 287q18 23 226 243q16 0 32.5 16.5t26.5 24.5q31 16 76 48q98 68 145 90q86 43 164 43t115 -78q14 27 65 65q10 12 33 13q29 0 64 -23v-41q-176 -211 -424 -545q-49 -66 -58 -77q-33 -51 -39 -82q-2 -12 -2 -37q12 -29 41 -29q197 0 561 397 q127 137 134 138q10 -1 10 -13q0 -41 -96 -155q-72 -86 -136 -146q-298 -282 -468 -282h-1q-70 0 -116 42q-42 39 -41 98v11q-113 -82 -142 -98q-92 -53 -161 -53q-43 0 -82 16q-63 72 -64 127zM-43 10q6 -12 25 -12q29 0 61 10q20 6 70 35q160 92 376 371l117 147 q72 94 72 164q0 31 -16 55q-10 6 -23 6q-39 0 -72 -10q-96 -31 -248 -186q-127 -131 -204 -244q-10 -16 -37 -61l-80 -129q-39 -74 -41 -146z" />
<glyph unicode="b" horiz-adv-x="911" d="M-127 51q2 113 70 230q55 94 129 206q35 49 123 179q14 23 53 77q10 12 37 41q37 55 123 164q49 53 65 74q377 475 649 672q137 98 242 98q123 0 123 -111q0 -170 -387 -454q-170 -125 -352 -207q-53 -23 -193 -82q-31 -37 -90 -115q0 -129 -98 -268q-31 -43 -207 -238 q-131 -145 -176 -251v-9q0 -49 32 -49q78 0 168 62q31 20 140 116q100 88 268 349q74 115 82 184q4 37 10 51q10 23 37 37q47 -4 78 -23q8 -29 8 -63q0 -20 -4 -41h4q27 0 78 25.5t57 25.5q16 0 16 -14q0 -23 -34.5 -49.5t-61.5 -34.5q-14 -14 -61 -21.5t-63.5 -20.5 t-51.5 -73l-51 -84q-12 -20 -107 -123q-23 -27 -82 -94q-178 -193 -342 -252q-33 -12 -86 -12q-98 0 -124 57q-4 14 -21 41zM623 1028l2 -6q238 104 434 254q125 94 205 190q112 135 112 248q0 12 -37 27q-174 -37 -368 -273q-127 -154 -348 -440z" />
<glyph unicode="c" horiz-adv-x="708" d="M-131 123q0 41 25 98q33 76 38 96q78 104 148 187q31 37 211 207q117 111 307 131q133 -35 133 -97q0 -37 -28.5 -74.5t-63.5 -37.5q-33 0 -33 31q0 10 2 27.5t2 27.5q0 57 -63 57q-137 0 -379 -356q-92 -137 -113 -176q-55 -109 -55 -201v-12q27 -37 59 -37 q227 0 611 375q27 27 96 94q18 16 35 16q14 0 14 -16q0 -29 -59 -88q-147 -150 -326 -273q-232 -161 -373 -161h-2q-80 0 -133 51t-53 131z" />
<glyph unicode="d" horiz-adv-x="1038" d="M-168 88q0 139 174 334q139 156 230 231q139 117 280 158q57 16 94 16q92 0 119 -77q66 84 92 137q29 27 58 69q14 27 47 78q74 102 260 371q37 57 139 205q25 35 72 45q18 4 88 10q4 -19 4 -23q0 -31 -51 -98q-135 -178 -318 -442q-236 -340 -313 -447 q-2 -12 -21.5 -35.5t-19.5 -25.5l-182 -268q-100 -150 -154 -287q14 -43 35 -43q203 0 559 393q125 137 129 137q10 0 10 -12q0 -10 -13 -32.5t-13 -35.5q0 -4 2 -8q-113 -152 -258 -280q-174 -154 -316 -201q-74 -25 -104 -25q-33 0 -70 21q-67 36 -67 108q0 41 41 132 q-238 -246 -416 -246q-31 0 -62.5 21.5t-43 50t-11.5 69.5zM-43 0h3q167 0 394 250q184 203 234 303q57 119 57 162q0 29 -16 57h-19q-27 0 -61 -10q-113 -33 -215 -135q-49 -49 -162 -199q-23 -27 -76 -98q-153 -210 -153 -294q0 -21 14 -36z" />
<glyph unicode="e" horiz-adv-x="749" d="M-109 127q0 90 52 180q88 154 241 293q289 262 424 262t135 -100q0 -152 -227 -275q-184 -100 -362 -118l-84 -138q-45 -82 -54 -151q0 -27 11 -72q6 -12 32 -12q281 0 670 389q8 8 39 40t55 56q8 6 17 6q12 0 12 -14q0 -51 -131 -172q-147 -137 -299 -229 q-201 -123 -344 -123q-186 0 -187 178zM193 426q160 20 286 102q154 101 154 242q0 39 -51 39q-16 0 -47 -18.5t-43 -20.5q-111 -90 -299 -344z" />
<glyph unicode="f" horiz-adv-x="542" d="M-860 -897q0 18 102 170q115 170 127 199q47 47 135 180l551 835q43 63 156 228l-6 4q-55 4 -160 29q2 18 33 38q70 0 69 0q14 0 41 -2h29q29 0 45 2q39 51 139 185q246 334 418 495q156 147 199 179q127 94 239 94q53 0 90 -30t37 -81q0 -172 -370 -454 q-156 -119 -346 -205q-51 -23 -191 -84q-25 -33 -74 -101q59 -2 82 -2q39 0 118 2t118 2q33 -20 33 -41q-47 -16 -152 -16q-27 0 -78 -4t-78 -4q-80 0 -124 -59q-119 -158 -277 -400l-266 -403q-45 -68 -164 -244q-33 -61 -80 -131q-37 -55 -78 -137q-23 -25 -94 -142 q-66 -104 -86 -120.5t-59 -14.5q-45 2 -60 -4q-18 16 -18 37zM545 975l4 -4q233 106 422 252q301 235 301 440q0 10 -37 27q-168 -37 -358 -275q-217 -270 -332 -440z" />
<glyph unicode="g" horiz-adv-x="1058" d="M-911 -889q0 55 41 111q152 205 391 325q137 70 291 144q172 82 297 131q6 8 22 22q14 27 33 56q8 14 39 53q-2 2 -2 4q2 4 10 16q45 59 143 213q-117 -111 -194 -161q-121 -80 -236 -80q-43 0 -74.5 47t-31.5 92q0 90 112 254q10 16 39 57q4 6 84 84q268 262 436 326 q57 22 67 22h1q127 0 168 -63q55 70 98 70q53 0 54 -43q0 -12 -115 -191l-137 -213q-4 -12 -17 -35q-33 -47 -116 -172l-107 -162q-16 -31 -61 -108q94 47 190 94q109 55 182.5 107.5t210.5 160.5q66 61 234 220q8 8 14 8q12 -1 12 -15q0 -61 -209 -241q-94 -82 -235 -181 q-80 -55 -238 -139q-172 -90 -241 -135q-207 -291 -305 -405q-182 -211 -385 -326q-152 -86 -277 -86q-39 0 -70 12q-12 -6 -24 -6q-41 0 -67.5 45t-26.5 88zM-813 -893q0 -57 31 -76q14 -2 30 -2q252 0 476 256q90 102 180 213q0 16 16 37q12 14 27 31q6 8 112 174 q-16 -8 -223 -100q-217 -96 -385 -211q-264 -180 -264 -322zM-70 18q0 -16 15 -22h6q209 0 524 401q164 210 164 310q0 35 -14 57q-29 10 -50 10q-123 0 -384 -313.5t-261 -442.5z" />
<glyph unicode="h" horiz-adv-x="1036" d="M-260 -10q0 14 6 22q29 35 74 101l430 594q66 86 231 317q240 344 391 494q137 135 193 178q125 96 235 96q55 0 93.5 -33t38.5 -86q0 -174 -353 -446q-113 -88 -252 -160q-53 -27 -270 -129q-16 -25 -172 -250q188 164 336 164q51 0 87 -40t36 -91q0 -68 -41 -123 q-27 -35 -80 -102q-12 -20 -111 -152q-121 -162 -178 -303q16 -31 43 -31q197 0 561 398q129 139 136 139q10 0 10 -17q0 -25 -51 -94q-121 -162 -289 -303q-217 -182 -357 -182q-90 0 -129 55l-30 45v17q0 100 180 335q209 272 240 353q2 8 2 12q0 37 -56 37 q-51 0 -137 -53q-188 -117 -385 -363q-8 -10 -315 -432l-101 -18q-16 27 -16 51zM614 1018q238 111 420 256q283 225 283 426q0 27 -41 41q-166 -37 -344 -273l-166 -221q-82 -113 -152 -229z" />
<glyph unicode="i" horiz-adv-x="569" d="M-150 90q0 76 82 193q244 348 418 563q25 8 51 8q41 0 60 -33q-10 -31 -41 -73q-25 -35 -49 -70q-29 -43 -95 -129q-115 -150 -163 -217q-104 -143 -140 -230q-10 -27 -10 -57v-10q12 -29 39 -29q121 0 295 139q111 88 266 258q127 137 135 138q11 -1 11 -13 q0 -31 -52 -98q-127 -166 -290 -303q-217 -182 -359 -182q-158 0 -158 145zM520 1094q0 33 27.5 57.5t60.5 24.5q72 0 72 -68q0 -76 -102 -76q-57 0 -58 62z" />
<glyph unicode="j" horiz-adv-x="563" d="M-1403 -893q0 43 8 62q4 10 33 49q154 211 395 340q268 143 291 155q166 86 297 140l33 26q92 121 164 236q82 129 295 452q35 51 125 183q10 14 67 88q20 27 53 26q47 0 74 -39q-86 -129 -196 -301q-57 -90 -185 -274l-217 -316q375 166 578 338q66 61 233 220q8 8 14 8 q13 -1 13 -15q0 -104 -396 -383q-174 -123 -507 -268q2 -2 2 -6q0 -10 -58 -76q-182 -264 -286 -383q-135 -156 -291 -262q-199 -137 -359 -137q-35 0 -61 12q-4 -2 -12 -2q-49 0 -80 41q-27 35 -27 86zM-1305 -895q0 -57 31 -74q27 -2 45 -2q244 0 467 269q12 18 49 62 t129 155q2 12 41 67q11 14 115 182q-100 -49 -223 -108q-307 -145 -445 -262q-12 -10 -59 -53q-150 -139 -150 -236zM535 1157q0 29 12 55q16 35 41 35h3q93 0 93 -69q0 -88 -74 -88q-8 0 -69 18q-6 35 -6 49z" />
<glyph unicode="k" horiz-adv-x="921" d="M-279 -53q10 53 46 108q35 47 67 97q27 41 100 143q84 109 201 283q39 57 133 213q39 37 183 235q348 481 593 670q127 96 238 96q55 0 92 -32t37 -85q0 -170 -358 -448q-152 -119 -529 -289l-147 -221q170 133 287 133q143 0 143 -119q0 -76 -62 -141q-51 -57 -131 -88 q-55 -20 -163 -62q47 -45 47 -112q0 -51 -52.5 -143.5t-52.5 -139.5q0 -27 15 -35q6 -2 41 -2q100 0 296 199q106 106 185 207q41 53 67 53q14 0 15 -14q0 -25 -29 -60l-20 -24q-92 -111 -185 -203q-213 -211 -352 -211q-102 0 -145 55q-20 23 -21 68q0 63 76 166 q4 12 26 63q18 41 19 68q0 18 -6 35q-25 14 -51 14q-20 0 -59.5 -9t-59.5 -9q-18 0 -37 6l-8 -4q-41 -53 -119 -164q-18 -33 -55 -80q-4 0 -11 -6q2 -4 2 -8q0 -14 -49 -82q-16 -25 -53 -72t-76 -47h-12q-12 -4 -25 -4h-20q-14 2 -21 2zM217 467q135 2 201 27q6 2 67 38 q199 119 199 234q0 10 -14.5 20.5t-26.5 10.5q-6 0 -51 -19q-195 -80 -375 -311zM582 1018q252 117 446 272q270 219 270 414q0 23 -38 37q-168 -37 -351 -273q-127 -164 -327 -450z" />
<glyph unicode="l" horiz-adv-x="587" d="M-141 82q0 76 57 181.5t160 248.5q88 123 176 244q31 43 96 125q20 20 55 63q12 25 54 82q35 37 41 45q127 164 170 217q84 102 184 205q90 90 174 168l18 6q10 12 35 33q4 2 49 35q78 57 181 57q110 0 110 -113v-10q0 -188 -395 -500q-31 -20 -106 -73 q-139 -100 -435 -246q-35 -45 -63 -84q-18 -29 -70 -98q-123 -158 -293 -428q-66 -104 -90 -183q14 -37 37 -37q195 0 483 285q51 57 179 193q61 63 71 63q12 0 13 -10q0 -31 -52 -98q-78 -102 -188 -205q-250 -229 -457 -283q-33 -8 -53 -8q-57 0 -99 35t-42 90zM541 940 q219 104 442 285q133 106 217 213q119 149 119 264q0 20 -41 35q-166 -37 -371 -301q-150 -193 -366 -496z" />
<glyph unicode="m" horiz-adv-x="1456" d="M-279 -23q0 25 52 93q59 78 67 98q23 16 52.5 58t43 55.5t105.5 144.5q23 33 188 254q72 119 113 119q57 0 57 -37q0 -35 -71 -144q238 229 362 230q51 0 93 -33t42 -82q0 -31 -51 -125q170 164 295 215q41 16 43 17q158 0 158 -123q0 -102 -80 -199q-23 -25 -82 -92 q-233 -276 -234 -369q0 -49 19 -49q193 0 561 398q127 137 135 137q10 -1 10 -13q0 -35 -49 -98q-121 -158 -290 -301q-217 -182 -359 -182q-59 0 -104 33.5t-45 91.5q0 82 133 274q106 154 198 256q70 78 97 166q-6 10 -25 21q-223 -10 -608 -519q-43 -57 -225 -305 q-16 -18 -35 -18q-6 0 -20.5 3t-20.5 3t-15 -4q-37 -2 -47 24q4 8 107 158q12 23 39 68q14 18 67 84q113 137 154 204q31 23 65 86q43 78 60 97q2 8 23.5 43t21.5 51q0 14 -12 25q-106 -2 -213 -86q-49 -39 -170 -164q-166 -172 -285 -330q-37 -53 -117 -158 q-86 -106 -149 -106q-53 0 -54 30z" />
<glyph unicode="n" horiz-adv-x="991" d="M-283 -25l4 37q104 123 261 336q205 281 254 342q41 53 81 107q25 16 56 16q14 0 41 -6q12 -8 12 -27q0 -31 -86 -155q240 215 367 215q141 0 141 -109q0 -90 -72 -178q-43 -49 -131 -147q-20 -31 -61 -91q-14 -14 -49 -51q-70 -80 -125 -213q0 -43 22 -43q197 0 561 398 q127 137 133 137q11 -1 11 -13q0 -33 -50 -98q-119 -158 -290 -301q-217 -182 -355 -182q-151 0 -151 133q0 63 59 149q53 76 195 236q125 141 186 242q15 63 18 63q1 0 1 -2q0 12 -9 18q-207 -14 -475 -317q-20 -25 -76 -86l-149 -166q-23 -31 -74 -92q-25 -20 -59 -74 q-6 -4 -47 -55q-29 -37 -56 -37q-10 0 -20 4q-14 -4 -23 -4q-27 0 -45 14z" />
<glyph unicode="o" horiz-adv-x="872" d="M-141 111q0 104 94 237q20 31 170 205q12 16 47 55q35 23 74 51q115 82 153 105q94 53 178 53q100 0 134 -76q-2 -33 63 -75q36 13 102 36l-49 -63q-23 -12 -92 -29q-12 16 -31 15q-63 -162 -198 -332q-129 -158 -277 -273q-108 -83 -209 -83h-2q-74 0 -115.5 49 t-41.5 125zM-23 27q0 -37 52 -37q139 0 331 239q248 308 248 496q0 18 -4 35q-12 4 -24 4q-145 0 -377 -297q-225 -287 -226 -440z" />
<glyph unicode="p" horiz-adv-x="964" d="M-920 -897q0 18 132 205q152 215 159 231q10 8 60 78q45 57 131 176q47 70 170 240l307 422q51 68 186 245q29 47 97 134q8 6 20 18q78 117 115 117q51 0 73 -25l-4 -33q-63 -84 -188 -256q178 156 303 156q55 0 107 -33q18 -12 63 -84q4 -18 4 -51q0 -84 -45 -160 q-27 -47 -98.5 -130t-100.5 -130q-205 -170 -225 -184q-141 -96 -264 -96q-131 0 -131 127q0 45 30.5 80.5t75.5 35.5q31 0 78 -36q6 -23 6 -46q0 -37 -25 -64l-26 -26q0 -6 2 -14l14 -6q154 78 224 153q49 49 96 99q57 59 84 108q31 18 59 68q33 57 49 74q66 164 66 206 q0 53 -31 54q-127 0 -303 -158q-80 -72 -244 -264q-20 -23 -73 -84q-37 -51 -197 -275q-201 -281 -375 -532l-166 -240q-27 -47 -81 -118q-18 -16 -45 -17q-4 0 -39 4q-20 2 -37 0q-12 18 -13 31z" />
<glyph unicode="q" horiz-adv-x="946" d="M-406 -930q10 68 279 445q2 23 22.5 43t24.5 28q39 61 135 203l211 311l-2 2q-109 -92 -215 -129q-41 -14 -55 -14q-158 0 -158 143q0 197 414 553q72 61 117 88q27 16 127 64q74 35 122 35q92 0 121 -64q66 72 105 72q32 0 57 -27q-2 -33 -43 -90q-33 -43 -63 -84 q-23 -39 -107 -155q-41 -74 -209 -312q-33 -49 -117 -174q-23 -31 -77 -112q-8 -14 -34 -51.5t-89 -127.5q-33 -49 -119 -176q-45 -63 -162 -229q-43 -63 -162 -234q-16 -12 -39 -12q-2 0 -40 4q-23 2 -44 0zM-41 63q0 -23 18 -40h15q170 0 483 380q145 176 178 330 q2 11 2 17q0 41 -47 41q-137 0 -391 -312q-139 -172 -211 -299q-47 -84 -47 -117z" />
<glyph unicode="r" horiz-adv-x="821" d="M-274 18q104 127 583 768q23 8 51 9q37 0 43 -29q-37 -68 -145 -236q96 76 326 226q12 27 59 59.5t76 32.5q12 0 33 -12q0 -29 -42 -99.5t-42 -124.5q0 -37 43 -37q16 0 51 7.5t51 7.5q21 0 21 -12q0 -18 -66 -39q-57 -18 -84 -19q-88 0 -106 78q-10 37 -21 49q0 16 4 33 q-170 -100 -360 -266q-43 -37 -172 -201q-4 -27 -37 -41l-135 -184q-14 -20 -37 -21q-10 0 -28.5 5t-29.5 5q-4 0 -18 -4q-18 12 -18 45z" />
<glyph unicode="s" horiz-adv-x="663" d="M-217 25q0 104 92 137q45 -2 92 -39q20 -66 21 -72q0 -31 -28 -53.5t-28 -20.5q0 -8 5 -12q33 -8 45 -8q14 0 30 4q37 12 97.5 57t78.5 74q92 154 93 492v18q-2 14 -2 21q0 20 2 41q-109 -150 -234 -287q-86 -94 -131 -101v11q0 14 98 133q49 63 183 225q27 31 92 111 q18 25 61 133q33 82 78 121q31 -2 31 -31v-21q-37 -86 -37 -110q-37 -29 -37 -129v3q1 0 8 -110q6 -96 6 -209q0 -197 -141 -351t-336 -154q-63 0 -119 45q-20 41 -20 82z" />
<glyph unicode="t" horiz-adv-x="561" d="M-186 55q0 63 36 129q0 2 144 195q106 145 274 379q-129 4 -129 22q0 41 163 41h15q45 59 162 215q18 29 72 105q25 33 94 33q49 0 49 -35q0 -16 -104 -154l-127 -168q6 -2 96 -2q55 0 92 -18q0 -18 -16 -39l-217 -2q-37 -35 -127 -162l-189 -258q-106 -147 -161 -275 q0 -8 -5.5 -26.5t-5.5 -28.5q0 -23 47 -22h17q88 0 211 98q152 123 276 242q6 6 131 141q63 70 90 70q11 -1 11 -11q0 -51 -203 -243q-158 -152 -248 -220q-174 -129 -291 -129q-63 0 -106 29q-51 35 -51 94z" />
<glyph unicode="u" horiz-adv-x="978" d="M-178 35q0 80 123 270q55 84 125 176q61 86 254 332q51 16 88 16q29 0 53 -12q0 -33 -25.5 -66.5t-50.5 -62.5l-264 -342q-209 -274 -209 -326q0 -4 4 -12q16 -12 37 -12q16 0 48 11t44 13l135 99q51 37 119 114q84 80 209 242q39 49 152 209q47 66 59 82q35 43 76 68 q8 -2 16 -3q6 0 20.5 2.5t20.5 2.5q33 0 47 -27q-37 -59 -117 -164q-53 -70 -120 -160q-55 -70 -164 -206q-117 -147 -127 -209q-2 -12 -2 -39q14 -29 41 -29q127 0 313 156q104 86 246 241q127 137 135 138q10 -1 10 -11q0 -37 -49 -100q-127 -166 -291 -303 q-215 -180 -360 -180q-154 0 -154 137q0 18 6 41q-199 -182 -321 -182q-127 0 -127 96z" />
<glyph unicode="v" horiz-adv-x="864" d="M-188 66q0 119 100 239q25 29 74 88q70 86 188 256q39 55 59 80q37 45 76 68q8 -2 17 -2q6 0 20 2h21q35 0 47 -25q-16 -27 -289 -385q-213 -281 -213 -369q0 -18 51 -18q98 0 307 199q154 147 260 290q80 109 82 113q37 59 45 129q6 49 13 68q12 35 41 49q55 -4 80 -23 q8 -41 8 -63q0 -18 -4 -39h4q27 0 78 24.5t57 24.5q16 0 16 -14q0 -49 -98 -82q-12 -10 -51 -17.5t-49 -17.5q-129 -190 -324 -387q-12 0 -25.5 -22.5t-27.5 -24.5q-307 -258 -430 -258q-133 0 -133 117z" />
<glyph unicode="w" horiz-adv-x="1329" d="M-178 35q0 82 123 270q82 127 125 176q82 113 254 332q51 16 88 16q29 0 53 -12q0 -33 -25.5 -66.5t-50.5 -62.5l-264 -342q-209 -274 -209 -326q0 -4 4 -12q16 -12 37 -12q16 0 48 11t44 13l135 99q63 47 119 114q68 80 240 289q31 39 94 127q39 55 59 80q37 45 76 68 q6 -2 14 -2t23 2h20q35 0 48 -25q-37 -59 -279 -373q-207 -268 -221 -354q-2 -12 -2 -27q0 -18 49 -18q55 0 162 74q205 143 407 415q78 106 82 113q27 43 37 98q16 84 21 99q12 35 41 49q53 -4 77 -23q10 -35 11 -63q0 -18 -5 -39h3q27 0 78 24.5t57 24.5q16 0 16 -14 q0 -49 -96 -82q-12 -10 -51 -17.5t-50 -17.5q-35 -51 -96 -129q-98 -125 -227 -258q-12 0 -26.5 -22.5t-28.5 -24.5q-307 -258 -430 -258q-133 0 -134 117q0 31 15 77q-202 -204 -337 -204h-1q-127 0 -127 96z" />
<glyph unicode="x" horiz-adv-x="1105" d="M-324 127q10 53 49 99t89 46q37 0 59.5 -28.5t22.5 -65.5q0 -53 -37 -82q-47 -37 -52 -49q23 -31 68 -31q41 0 62 7q8 2 55 24q180 88 256 201q39 27 89 94.5t79 91.5q2 18 22 39l19 21q108 163 108 234q0 34 -14 65q-31 14 -68 14q-76 0 -187.5 -86t-115.5 -86 q-16 0 -16 16q0 20 37 56q163 153 293 153h2q66 0 112 -29q55 -33 64 -92q2 -10 6 -41l135 103q86 53 158 53q49 0 93 -28.5t44 -75.5q0 -37 -88 -95q-18 4 -64 33q25 59 25 82q0 31 -25 31q-10 0 -28.5 -6.5t-26.5 -6.5q-33 -25 -76 -59.5t-69 -71.5q-47 -61 -84 -104 q-59 -66 -123 -162q-53 -70 -105 -158q-38 -101 -38 -156q0 -56 61 -57q250 0 631 379q27 27 92 93q10 8 16 8q13 -1 13 -15q0 -41 -50 -94q-6 -6 -82 -76q-377 -346 -632 -346q-92 0 -129 51q-29 41 -37 138q-256 -186 -449 -187q-33 0 -80 22.5t-61 49.5q-4 6 -23 84z" />
<glyph unicode="y" horiz-adv-x="983" d="M-979 -889q0 55 41 111q150 203 393 325q178 90 529 252q20 6 57 23q14 23 33 22q29 27 116 160q31 47 43 64q-162 -125 -264 -125q-55 0 -98 28q-49 33 -49 84q0 94 72 199q10 16 133 168q41 51 172 240q37 53 59 79q39 47 76 68q8 -2 16 -2q6 0 20.5 2t20.5 2 q35 0 47 -27q-29 -49 -291 -395q-231 -307 -231 -358q0 -18 25 -35h20q86 0 174 59q47 33 141 121q25 23 84 78q106 102 224 264q66 96 200 285q18 25 84 49q59 -8 60 -39q0 -4 -406 -561q-20 -27 -73.5 -98.5t-106.5 -135.5q-20 -33 -63 -92l286 160q162 92 273 184 q49 41 149 142q23 23 82 80q8 6 16 8q15 -1 15 -15q0 -63 -211 -241q-125 -106 -350 -238q-317 -186 -365 -217q-205 -291 -303 -405q-184 -213 -383 -326q-152 -86 -279 -86q-37 0 -69 12q-12 -6 -25 -6q-39 0 -67 49q-27 43 -27 84zM-881 -893q0 -57 31 -76q14 -2 31 -2 q252 0 475 256q86 98 182 213q0 18 15 35l28 33q5 6 111 174q-33 -16 -221 -100q-215 -96 -385 -211q-266 -182 -267 -322z" />
<glyph unicode="z" horiz-adv-x="868" d="M-485 -727q0 92 178 242q121 100 262 182q233 135 371 184l16 -18q-88 -49 -238 -125q-31 -14 -110 -57q-31 -31 -39 -27l-215 -150q-119 -98 -135 -215q14 -71 74 -71h2q98 0 194 86q10 8 21 6q154 127 190 162q106 98 166 188q25 37 49 80q16 27 57 94l37 107 q20 59 21 108q0 53 -17 68q-29 18 -57 39q-20 4 -39 4q-61 0 -158 -49q-31 -16 -98 -88q-61 -63 -110 -78q-16 16 -17 41q0 10 6 20q29 43 94 103q96 94 289 280q104 100 240 244q-133 -41 -232 -41q-80 0 -143 24q-20 18 -53 50q0 72 24.5 111.5t90.5 74.5q18 10 34 10 q18 0 33 -14q0 -29 -27.5 -67t-27.5 -54q0 -29 29.5 -54.5t58.5 -25.5q156 0 293 90q76 68 116 68q12 0 27 -10v-9q2 -6 2 -8q0 -20 -26 -47q-35 -33 -39 -43q-31 -8 -65 -47t-50 -47q-182 -182 -391 -410q10 2 51 15q33 8 53 8q98 0 176 -49q74 -96 74 -191q0 -23 -20 -86 q-2 -12 -13 -45q-57 -174 -270 -352q-172 -145 -377 -240q-137 -63 -235 -63q-127 0 -127 92z" />
<glyph unicode="{" horiz-adv-x="995" d="M-78 -352q0 162 176 401q18 23 64 80q10 18 33 55q33 37 81 121q14 14 40 65.5t51 65.5q61 150 61 176q0 16 -16 43q-29 47 -43.5 55.5t-73.5 10.5l-35 6l2 -2q-12 10 -41 27l72 65l22 -2q86 -8 172 23q193 68 332 280q94 145 180 264v4q0 23 43 70q27 33 99 115 q94 109 166 153q96 59 215 60q118 0 118 -43q0 -33 -57 -33q-10 0 -29.5 3t-29.5 3q-102 0 -178 -76q-18 -18 -121 -159q-27 -37 -92 -133q-27 -45 -97 -162q-145 -240 -346 -336q-92 -45 -252 -96q82 -80 82 -228q0 -4 5 -10t5 -12q0 -25 -20 -41q-29 -129 -148 -291 q-68 -90 -200 -270q-100 -143 -101 -283v-33q29 -37 144 -37q-14 -41 -76 -51q-59 10 -143 31q-63 31 -64 121z" />
<glyph unicode="|" horiz-adv-x="579" d="M94 -264v2058h99v-2058h-99z" />
<glyph unicode="}" horiz-adv-x="995" d="M-518 -465q0 27 53 27q10 0 28.5 -2t28.5 -2q141 0 258 161q23 41 50.5 77t97.5 132q78 117 159 237t187 212q37 33 129 92l19 12q43 20 262 88q-78 90 -78 191v18q2 12 2 19q0 4 -5 12t-5 16q4 12 8 27l22 10q27 141 193 342q186 225 225 324q33 82 33 131q0 31 -4 43 q-27 33 -148 33q23 35 37 41q25 6 47 12q109 -14 144 -39q51 -37 51 -137q0 -51 -31 -125q-47 -113 -127 -213q-33 -33 -71 -80q-6 -6 -15 -27q-39 -43 -106 -151q-18 -16 -45 -68.5t-45 -62.5l-41 -90q-27 -57 -27 -90q0 -16 16 -43q33 -53 62 -60l82 -8q4 -2 41 -27 l-70 -63h-25q-119 0 -174 -21q-137 -49 -239 -153q-63 -66 -162 -211q-109 -162 -166 -225q0 -33 -45 -76q-76 -92 -156 -174q-147 -152 -323 -152q-127 0 -127 43z" />
<glyph unicode="~" horiz-adv-x="1454" d="M-51 455q66 66 151 110q96 51 176 51q92 0 262.5 -74.5t249.5 -74.5q145 0 299 139l68 -80q-190 -164 -367 -164q-90 0 -255.5 75t-256.5 75q-117 0 -264 -137z" />
<glyph unicode="&#xa1;" horiz-adv-x="663" d="M-260 -369q0 72 78 185l119 174q102 86 269 282.5t226 305.5q90 61 121 63l6 -6q-2 -16 -45 -62q-31 -33 -184 -282q-74 -121 -271 -428q-41 -55 -145 -195q-2 -4 -8 -14q-39 -45 -119 -45q-23 0 -47 8v14zM518 850q0 2 2 10q23 92 119 92q20 0 37 -8q41 -61 41 -98v-10 q-2 -6 -2 -11q-35 -51 -68 -63q-27 4 -54.5 7t-47.5 19q0 10 -13.5 31t-13.5 31z" />
<glyph unicode="&#xa2;" horiz-adv-x="700" d="M-131 123q0 39 23.5 100.5t33.5 93.5q47 63 148 187q74 70 217 207q98 94 278 127q55 121 162 299q27 -19 27 -58q0 -20 -13.5 -38.5t-15.5 -32.5q-31 -59 -92 -177q94 -35 94 -86q0 -37 -28.5 -74.5t-63.5 -37.5q-33 0 -33 31q0 10 2 27.5t2 27.5q0 27 -16 43 q-37 -47 -68 -111q-18 -39 -55 -119q-61 -119 -219 -430l-37 -73q96 39 301 194l64 64q47 47 65 47q14 0 14 -17q0 -37 -59 -88q-248 -215 -420 -270q-43 -84 -119 -229q-27 -51 -36 -64q-25 -31 -64 -37q18 86 100 234q8 16 37 80q-25 -2 -43 -2q-80 0 -133 51t-53 131z M0 31q27 -37 59 -37q41 0 70 6q25 37 109 201q18 37 112 207q20 53 70 157q41 70 119 211q-147 -18 -377 -356q-88 -129 -111 -176q-51 -104 -51 -201v-12z" />
<glyph unicode="&#xa3;" horiz-adv-x="1488" d="M-168 162q0 27 14 49q63 78 166 78q43 0 174 -21q72 -12 213 -43q29 0 45 39q31 57 72 180q18 55 19 62q0 10 -7.5 17t-21.5 7q-8 0 -22.5 -3t-22.5 -3q-14 0 -23 8q-10 2 -108 0q-68 -2 -101 27q18 25 101 31q47 0 221 -8l27 -2q4 4 12 22q39 92 112 248q23 27 58 86 q119 164 219 217q25 25 88 47q82 29 90 33q156 16 135 16q61 0 103 -32q86 -68 86 -152q0 -53 -35 -86q-14 -2 -50 -19.5t-57 -17.5q-18 0 -36 12q-41 29 -41 84q0 14 2 31q37 70 30 92q-53 51 -90 51q-72 0 -151 -61q-68 -51 -115 -121q-61 -88 -137 -285 q-41 -102 -56 -145q10 -14 29 -12q25 2 33 0q23 -2 53 -2q59 0 152 8q12 -6 32 -6q10 0 27 2h27q41 0 55 -31q-27 -25 -76 -24q-12 0 -35 2h-36q-29 0 -50 -7q-45 4 -104 5q-59 0 -131 -5q-10 -4 -25 -49q-92 -205 -178 -303q35 -2 82 -31q57 -35 86 -45q18 -6 139 -82 q88 -55 164 -55q33 0 68 8q8 -2 16 -2q25 0 57.5 33t49.5 43q49 53 37 111q-12 68 -82 84q-27 6 -48 6q-57 0 -155 -70q-4 0 -6 6q14 51 75 82q53 27 113 27q96 0 143 -68q14 -29 15 -61q0 -70 -55 -133q-113 -129 -295 -129q-127 0 -314 82q-150 90 -192 86 q-37 -47 -119 -58q-96 -12 -129 -32q-25 -2 -102 12q-57 -8 -142 35q-92 66 -92 135zM-96 121q0 -31 16 -51q88 -45 154 -45q70 0 164 51q51 18 59 24q27 14 45 41q-66 53 -197 86q-14 0 -43.5 2t-44.5 2q-92 0 -151 -81q-2 -14 -2 -29z" />
<glyph unicode="&#xa4;" horiz-adv-x="1810" d="M-188 66q0 119 100 239q25 29 74 88q70 86 188 256q39 55 59 80q37 45 76 68q8 -2 17 -2q6 0 20 2h21q35 0 47 -25q-16 -27 -289 -385q-213 -281 -213 -369q0 -18 51 -18q98 0 307 199q154 147 260 290q80 109 82 113q37 59 45 129q6 49 13 68q12 35 41 49q55 -4 80 -23 q8 -41 8 -63q0 -18 -4 -39h2q29 0 80 24.5t57 24.5q16 0 16 -14q0 -49 -98 -82q-12 -10 -51 -17.5t-49 -17.5q-129 -190 -324 -387q-12 0 -25.5 -22.5t-27.5 -24.5q-307 -258 -430 -258q-133 0 -133 117zM662 100q0 59 55 82q10 0 27.5 2t27.5 2q27 0 47 -12 q4 -8 21.5 -27.5t17.5 -29.5q0 -2 -4 -19q-16 -59 -29 -69q-37 -31 -88 -31q-4 0 -10 2h-12q-53 59 -53 100zM989 -45q0 33 62 94q119 209 335 635q-6 2 -10 2q-53 -43 -145 -106q-111 -76 -148 -84q-16 4 -45 22q12 14 45 31q160 80 340 254q156 150 195 149q16 0 55 -6 q-12 -23 -71 -133l-205 -387q-113 -219 -185 -397q-96 -96 -215 -101q-8 14 -8 27z" />
<glyph unicode="&#xa6;" horiz-adv-x="579" d="M193 -264v872h96v-872h-96zM193 922v872h96v-872h-96z" />
<glyph unicode="&#xa8;" horiz-adv-x="210" d="M436 987q14 33 25 45q16 25 41 29q41 0 61 -14q33 -57 27 -78q-6 -5 -10 -13q-14 -35 -23 -34q-59 -8 -70 -2q-51 35 -51 67zM727 981q31 74 66 74q45 6 61 -13q33 -55 29 -73q-2 -2 -15 -31q-8 -18 -24 -20q-6 -2 -25 -7q-25 -8 -69 33q-18 16 -23 37z" />
<glyph unicode="&#xa9;" horiz-adv-x="2365" d="M532 741q0 498 295 766l95 86q25 10 178 99q111 63 182 63q35 0 101.5 10.5t101.5 10.5q170 0 440 -113q84 -35 174 -121q309 -292 309 -698q0 -139 -24 -217q-10 -33 -51 -117q-152 -309 -381 -457q-29 -41 -84 -67q-68 -31 -90 -49q-207 -59 -389 -60q-311 0 -465 143 q-53 16 -144 134q-10 6 -22 14q-16 20 -62 92q-164 256 -164 481zM598 735q0 -139 66 -278q45 -96 151 -242q29 -16 67 -63.5t62 -63.5q14 -8 90 -55q150 -90 363 -90q178 0 364 55q16 14 82 45q49 23 72 63q186 111 348 422q14 29 51 107q19 61 19 196q0 397 -279 662 q-70 66 -112 92q-78 47 -220.5 90t-230.5 43q6 0 -158 -18q-14 -2 -51 -6q-61 -10 -158 -68q-109 -63 -153 -80l-88 -86q-285 -279 -285 -725zM909 809q0 207 86 297q14 57 80 111q37 29 109 88q31 27 55 20q49 33 104 37q14 14 48 13t43 3q12 0 38.5 -5t38.5 -5t31 8 q23 -4 66 -14q55 -25 174 -55q63 18 61 51q33 20 58 20q20 -12 20 -39q0 -4 -6 -18q-16 -57 -17 -317q0 -27 -18 -27t-43 70q-31 86 -35 90q-27 33 -80 100q-29 20 -90 47q-10 10 -46 16.5t-46 14.5q-100 8 -86 8q-180 0 -246 -117q-29 -49 -57 -96q-33 -59 -43 -102 q-8 -35 -8 -123q0 -154 43 -238v-8q-2 -4 -2 -8q0 -18 20 -56q10 -20 29 -55q10 -16 65 -74q35 -37 72 -67q23 -2 74 -33q47 -10 94 -10q92 0 154 39q35 23 114 108q2 12 23.5 35t15.5 41q23 6 25 19v32q0 27 16 39q2 10 12 21q41 -10 41 -60q0 -23 -3 -64.5t-3 -64.5 q0 -10 2 -30.5t2 -30.5q0 -80 -20 -103q-25 0 -37 21q-2 2 -16 43q-12 2 -23 2q-35 0 -123 -53q-94 -57 -129 -64q-41 -8 -106 -8q-207 0 -379 156q-16 14 -36.5 51t-37.5 51q-78 164 -78 293z" />
<glyph unicode="&#xab;" horiz-adv-x="1228" d="M236 494l620 401q2 -10 -8 -55q-57 -57 -211 -162q-164 -115 -221 -166l-2 -10l129 -377q-59 -55 -68 -55zM604 494l621 401q2 -10 -8 -55q-57 -57 -211 -162q-164 -115 -222 -166l-2 -10l129 -377q-59 -55 -67 -55z" />
<glyph unicode="&#xad;" horiz-adv-x="1060" d="M188 416q0 16 16.5 50t16.5 60q23 18 27 27l8 -4l-2 14l16 8q94 -20 84 -20q-12 0 37 2h39q16 0 47 11t47 11q18 0 31 -10q39 -4 55 -4q25 0 72 6t72 6q6 0 16 -2h16l7 -2q29 25 36 25q11 0 23 -14q-8 -31 -46 -80t-48 -76h-80q-6 0 -410 -12q-25 -8 -73 -33q-6 29 -7 37 z" />
<glyph unicode="&#xae;" horiz-adv-x="2363" d="M532 741q0 498 295 766l95 86q25 10 178 99q111 63 182 63q35 0 101.5 10.5t101.5 10.5q170 0 440 -113q84 -35 174 -121q309 -292 309 -698q0 -139 -24 -217q-10 -33 -51 -117q-152 -309 -381 -457q-29 -41 -84 -67q-68 -31 -90 -49q-207 -59 -389 -60q-311 0 -465 143 q-53 16 -144 134q-10 6 -22 14q-16 20 -62 92q-164 256 -164 481zM598 735q0 -139 66 -278q45 -96 151 -242q29 -16 67 -63.5t62 -63.5q14 -8 90 -55q150 -90 363 -90q178 0 364 55q16 14 82 45q49 23 72 63q186 111 348 422q14 29 51 107q19 61 19 196q0 397 -279 662 q-70 66 -112 92q-78 47 -220.5 90t-230.5 43q6 0 -158 -18q-14 -2 -51 -6q-61 -10 -158 -68q-109 -63 -153 -80l-88 -86q-285 -279 -285 -725zM922 1368q0 29 71 29q12 0 35 -2t35 -2q25 0 45 12q20 -10 47 -10q18 0 62 8q12 -4 18 -4q8 0 23.5 4t23.5 4q14 0 29 -8 q25 4 73 4q27 0 77 -3t77 -3q221 0 285 -174q10 -29 10 -66q0 -98 -59 -158q-92 -92 -125 -100q-8 -2 -27 -6q61 -37 92 -66l8 7q43 -47 64 -146q31 -139 37 -158q27 -70 91 -108.5t140 -36.5q2 -6 12.5 -19.5t10.5 -25.5l-27 -16h-57q-117 0 -195 24l-4 8v-2l-2 8 q-2 4 -18 5q-4 2 -21 8q-66 29 -94 92q-14 33 -31 131q-16 88 -39 143q-25 90 -71 97q-10 10 -36 16t-34 14q-57 -2 -141 -22v-395l28 -54q14 -18 56 -18q16 0 45.5 2t46.5 2q23 0 59 -31q-12 -31 -45 -30h-131q-70 0 -115 10l-63 -8q-78 -10 -215 -11q-8 4 -49 25 q6 27 24 33q53 2 156 10q45 39 45 98v731q0 12 -8 37q6 16 6 43q-2 2 -12.5 21.5t-14.5 19.5l-170 -4q-29 29 -28 41zM1307 1167q0 -31 2 -89t2 -89v-65q23 -6 67 -6q96 0 197 22q57 53 70 76q18 32 18 102q0 84 -33 146q-41 78 -117 77q-16 0 -28 -10q-16 8 -21 17 q-8 0 -30 2h-31q-66 0 -92 -13q-4 -55 -4 -170z" />
<glyph unicode="&#xb0;" horiz-adv-x="557" d="M147 999q0 109 77 186t186 77t185.5 -77t76.5 -186t-77 -185.5t-185 -76.5q-109 0 -186 77t-77 185zM201 999q0 -86 61.5 -147t147.5 -61q88 0 149.5 60t61.5 148t-61.5 149.5t-149.5 61.5t-148.5 -61.5t-60.5 -149.5z" />
<glyph unicode="&#xb4;" horiz-adv-x="331" d="M602 1018q0 2 2 2q131 80 367 201q18 6 37 6q34 -1 73 -21q-2 -29 -49 -55q-37 -16 -74 -35q-63 -18 -182 -59q-43 -16 -100 -41q-74 -4 -74 2z" />
<glyph unicode="&#xb8;" horiz-adv-x="552" d="M-195 -387l27 35l4 -4q4 -8 68 -19h57q76 0 88 78q4 29 -10 52.5t-70 23.5q-23 0 -53 -12l-2 18l33 39l26 41l74 92l55 4l-45 -65l-53 -62q10 4 59 4q12 0 48 -16q14 -6 28 -17q31 -28 23 -79q-4 -20 -26.5 -62.5t-39.5 -56.5q-4 -4 -45 -21q-57 -23 -108 -22l-54 8 q-25 4 -53 12q-12 10 -31 29z" />
<glyph unicode="&#xbb;" horiz-adv-x="1228" d="M164 70q-4 12 8 55q66 70 211 168q164 109 219 160l4 12l-129 375q59 55 66 55l239 -424zM532 70q-4 12 9 55q66 70 211 168q164 109 219 160l4 12l-129 375q59 55 65 55l240 -424z" />
<glyph unicode="&#xbf;" horiz-adv-x="833" d="M-225 -178q0 233 293 444q27 16 98.5 66.5t222.5 152.5q33 23 82 56q94 72 98 118l35 -22v-10q2 -6 2 -9q0 -70 -153 -174l-174 -118q-92 -63 -152 -142q-12 -20 -49 -73q-143 -205 -144 -324q0 -143 103 -143q125 0 219 112q92 106 92 234q0 -10 -2 35q-25 27 -55 26 q-29 0 -78 -20q-59 -25 -78 -29q12 37 94 107q78 -10 154 -19q74 -25 74 -121q0 -119 -168 -272q-113 -102 -256 -103q-45 0 -119 27q-80 27 -104 55q-18 23 -31 95q-4 24 -4 51zM526 836q2 6 4 18q14 57 29 70q37 31 88 30h10q8 -2 13 -2q55 -59 55 -98q0 -59 -57 -84 q-10 0 -27.5 -2t-28.5 -2q-27 0 -47 14q-2 8 -20.5 27t-18.5 29z" />
<glyph unicode="&#xc0;" horiz-adv-x="2392" d="M-170 143q0 45 29 68q12 47 57 86t92 39q72 0 119 -39t47 -109q0 -74 -84 -120q-49 -29 -74 -29q-23 0 -43 10q-10 -6 -20 -24l12 -58q98 -86 271 -86q145 0 309 62q27 2 123 49q313 150 780 661q123 133 440 480q37 41 137 147q43 45 158 158q20 18 72 63l147 131 q86 70 166 103q131 -6 131 -160q0 -74 -61 -156q-94 -125 -103 -139q-2 -6 -16 -29q-8 -4 -8 -16q-182 -223 -295 -401q0 -8 -8 -23q-27 -27 -62 -78q-2 -2 -12 -10l-2 -6l-234 -336q-86 -125 -108 -203q-2 -16 -33 -110q-14 -45 -14 -72q0 -23 8 -47q18 -14 41 -15 q20 0 58 11.5t53 13.5q160 88 374 307l27 -16q-8 -8 -39 -55q-23 -35 -47 -45q-135 -133 -188 -173q-121 -88 -234 -88q-76 0 -117 25q-70 43 -69 178q0 92 63 223q23 45 117 207q18 10 34.5 39t26.5 37q16 25 45 72q20 14 33 41q-49 2 -117 2q-156 0 -229 -11 q-68 -80 -207 -233q-33 -27 -85 -79t-158 -154q-18 -18 -68 -62q-16 -6 -45 -24q-35 -31 -113 -84q-12 -6 -35 -17q-31 -20 -94 -61q-127 -82 -262 -117q-8 -6 -98 -25q-106 -23 -185 -22q-131 0 -231 43q-131 55 -152 164q-16 88 -20 112zM1651 774q43 -4 69 -4q27 0 256 8 q117 160 553 697q2 14 19.5 30.5t17.5 20.5q0 6 -4 16q45 42 45 105q0 33 -20 30l-7 2q-84 -16 -172 -100q-47 -49 -145 -145q-6 -6 -30.5 -29t-43.5 -41l-30 -43q-2 -4 -170 -178q-186 -195 -338 -369zM2263 2146q0 4 2 11q18 10 37 10q66 0 129 -60l102 -110 q127 -134 127 -144q0 -8 -10 -8q-12 2 -70 19q-29 37 -106 86q-98 63 -121 80q-90 72 -90 116z" />
<glyph unicode="&#xc1;" horiz-adv-x="2392" d="M-170 143q0 45 29 68q12 47 57 86t92 39q72 0 119 -39t47 -109q0 -74 -84 -120q-49 -29 -74 -29q-23 0 -43 10q-10 -6 -20 -24l12 -58q98 -86 271 -86q145 0 309 62q27 2 123 49q313 150 780 661q123 133 440 480q37 41 137 147q43 45 158 158q20 18 72 63l147 131 q86 70 166 103q131 -6 131 -160q0 -74 -61 -156q-94 -125 -103 -139q-2 -6 -16 -29q-8 -4 -8 -16q-182 -223 -295 -401q0 -8 -8 -23q-27 -27 -62 -78q-2 -2 -12 -10l-2 -6l-234 -336q-86 -125 -108 -203q-2 -16 -33 -110q-14 -45 -14 -72q0 -23 8 -47q18 -14 41 -15 q20 0 58 11.5t53 13.5q160 88 374 307l27 -16q-8 -8 -39 -55q-23 -35 -47 -45q-135 -133 -188 -173q-121 -88 -234 -88q-76 0 -117 25q-70 43 -69 178q0 92 63 223q23 45 117 207q18 10 34.5 39t26.5 37q16 25 45 72q20 14 33 41q-49 2 -117 2q-156 0 -229 -11 q-68 -80 -207 -233q-33 -27 -85 -79t-158 -154q-18 -18 -68 -62q-16 -6 -45 -24q-35 -31 -113 -84q-12 -6 -35 -17q-31 -20 -94 -61q-127 -82 -262 -117q-8 -6 -98 -25q-106 -23 -185 -22q-131 0 -231 43q-131 55 -152 164q-16 88 -20 112zM1651 774q43 -4 69 -4q27 0 256 8 q117 160 553 697q2 14 19.5 30.5t17.5 20.5q0 6 -4 16q45 42 45 105q0 33 -20 30l-7 2q-84 -16 -172 -100q-47 -49 -145 -145q-6 -6 -30.5 -29t-43.5 -41l-30 -43q-2 -4 -170 -178q-186 -195 -338 -369zM2525 1847l2 2q131 80 367 201q18 6 37 6q34 0 73 -20 q-2 -35 -120 -90q-59 -16 -183 -60q-53 -18 -102 -41q-74 -4 -74 2z" />
<glyph unicode="&#xc2;" horiz-adv-x="2392" d="M-170 143q0 45 29 68q12 47 57 86t92 39q72 0 119 -39t47 -109q0 -74 -84 -120q-49 -29 -74 -29q-23 0 -43 10q-10 -6 -20 -24l12 -58q98 -86 271 -86q145 0 309 62q27 2 123 49q313 150 780 661q123 133 440 480q37 41 137 147q43 45 158 158q20 18 72 63l147 131 q86 70 166 103q131 -6 131 -160q0 -74 -61 -156q-94 -125 -103 -139q-2 -6 -16 -29q-8 -4 -8 -16q-182 -223 -295 -401q0 -8 -8 -23q-27 -27 -62 -78q-2 -2 -12 -10l-2 -6l-234 -336q-86 -125 -108 -203q-2 -16 -33 -110q-14 -45 -14 -72q0 -23 8 -47q18 -14 41 -15 q20 0 58 11.5t53 13.5q160 88 374 307l27 -16q-8 -8 -39 -55q-23 -35 -47 -45q-135 -133 -188 -173q-121 -88 -234 -88q-76 0 -117 25q-70 43 -69 178q0 92 63 223q23 45 117 207q18 10 34.5 39t26.5 37q16 25 45 72q20 14 33 41q-49 2 -117 2q-156 0 -229 -11 q-68 -80 -207 -233q-33 -27 -85 -79t-158 -154q-18 -18 -68 -62q-16 -6 -45 -24q-35 -31 -113 -84q-12 -6 -35 -17q-31 -20 -94 -61q-127 -82 -262 -117q-8 -6 -98 -25q-106 -23 -185 -22q-131 0 -231 43q-131 55 -152 164q-16 88 -20 112zM1651 774q43 -4 69 -4q27 0 256 8 q117 160 553 697q2 14 19.5 30.5t17.5 20.5q0 6 -4 16q45 42 45 105q0 33 -20 30l-7 2q-84 -16 -172 -100q-47 -49 -145 -145q-6 -6 -30.5 -29t-43.5 -41l-30 -43q-2 -4 -170 -178q-186 -195 -338 -369zM2353 1788q248 145 373 231q29 23 86 47q14 -27 49 -137 q10 -30 35 -104q-25 -23 -82 -60l-72 205l-8 -6q-39 -29 -332 -180q-10 -2 -20 -2q-16 0 -29 6z" />
<glyph unicode="&#xc3;" horiz-adv-x="2392" d="M-170 143q0 45 29 68q12 47 57 86t92 39q72 0 119 -39t47 -109q0 -74 -84 -120q-49 -29 -74 -29q-23 0 -43 10q-10 -6 -20 -24l12 -58q98 -86 271 -86q145 0 309 62q27 2 123 49q313 150 780 661q123 133 440 480q37 41 137 147q43 45 158 158q20 18 72 63l147 131 q86 70 166 103q131 -6 131 -160q0 -74 -61 -156q-94 -125 -103 -139q-2 -6 -16 -29q-8 -4 -8 -16q-182 -223 -295 -401q0 -8 -8 -23q-27 -27 -62 -78q-2 -2 -12 -10l-2 -6l-234 -336q-86 -125 -108 -203q-2 -16 -33 -110q-14 -45 -14 -72q0 -23 8 -47q18 -14 41 -15 q20 0 58 11.5t53 13.5q160 88 374 307l27 -16q-8 -8 -39 -55q-23 -35 -47 -45q-135 -133 -188 -173q-121 -88 -234 -88q-76 0 -117 25q-70 43 -69 178q0 92 63 223q23 45 117 207q18 10 34.5 39t26.5 37q16 25 45 72q20 14 33 41q-49 2 -117 2q-156 0 -229 -11 q-68 -80 -207 -233q-33 -27 -85 -79t-158 -154q-18 -18 -68 -62q-16 -6 -45 -24q-35 -31 -113 -84q-12 -6 -35 -17q-31 -20 -94 -61q-127 -82 -262 -117q-8 -6 -98 -25q-106 -23 -185 -22q-131 0 -231 43q-131 55 -152 164q-16 88 -20 112zM1651 774q43 -4 69 -4q27 0 256 8 q117 160 553 697q2 14 19.5 30.5t17.5 20.5q0 6 -4 16q45 42 45 105q0 33 -20 30l-7 2q-84 -16 -172 -100q-47 -49 -145 -145q-6 -6 -30.5 -29t-43.5 -41l-30 -43q-2 -4 -170 -178q-186 -195 -338 -369zM2359 1835q10 14 31 41q8 10 29 35q35 39 59 45q16 10 31 20 q27 14 63 15q61 0 113 -25q20 -12 41 -27q31 -16 49 -16q84 0 133 68q8 10 41 2q-12 -16 -31 -49q-2 -2 -65 -68q-10 -12 -45 -18q-43 -8 -51 -13q-23 -8 -60 -2q-41 6 -61 23q-55 43 -121 43q-45 0 -80 -39q-14 -16 -37 -35h-39z" />
<glyph unicode="&#xc4;" horiz-adv-x="2392" d="M-170 143q0 45 29 68q12 47 57 86t92 39q72 0 119 -39t47 -109q0 -74 -84 -120q-49 -29 -74 -29q-23 0 -43 10q-10 -6 -20 -24l12 -58q98 -86 271 -86q145 0 309 62q27 2 123 49q313 150 780 661q123 133 440 480q37 41 137 147q43 45 158 158q20 18 72 63l147 131 q86 70 166 103q131 -6 131 -160q0 -74 -61 -156q-94 -125 -103 -139q-2 -6 -16 -29q-8 -4 -8 -16q-182 -223 -295 -401q0 -8 -8 -23q-27 -27 -62 -78q-2 -2 -12 -10l-2 -6l-234 -336q-86 -125 -108 -203q-2 -16 -33 -110q-14 -45 -14 -72q0 -23 8 -47q18 -14 41 -15 q20 0 58 11.5t53 13.5q160 88 374 307l27 -16q-8 -8 -39 -55q-23 -35 -47 -45q-135 -133 -188 -173q-121 -88 -234 -88q-76 0 -117 25q-70 43 -69 178q0 92 63 223q23 45 117 207q18 10 34.5 39t26.5 37q16 25 45 72q20 14 33 41q-49 2 -117 2q-156 0 -229 -11 q-68 -80 -207 -233q-33 -27 -85 -79t-158 -154q-18 -18 -68 -62q-16 -6 -45 -24q-35 -31 -113 -84q-12 -6 -35 -17q-31 -20 -94 -61q-127 -82 -262 -117q-8 -6 -98 -25q-106 -23 -185 -22q-131 0 -231 43q-131 55 -152 164q-16 88 -20 112zM1651 774q43 -4 69 -4q27 0 256 8 q117 160 553 697q2 14 19.5 30.5t17.5 20.5q0 6 -4 16q45 42 45 105q0 33 -20 30l-7 2q-84 -16 -172 -100q-47 -49 -145 -145q-6 -6 -30.5 -29t-43.5 -41l-30 -43q-2 -4 -170 -178q-186 -195 -338 -369zM2454 1907q14 33 24 45q16 27 41 26q39 2 61 -14q31 -57 27 -78 q-6 -4 -10 -12q-14 -35 -23 -35q-59 -6 -69 -2q-51 37 -51 70zM2744 1901q31 74 66 73q45 4 61 -12q31 -55 29 -74q0 -2 -14 -33q-9 -18 -25 -18q-8 -2 -25 -8q-23 -4 -69 35q-18 14 -23 37z" />
<glyph unicode="&#xc5;" horiz-adv-x="2392" d="M-170 143q0 45 29 68q12 47 57 86t92 39q72 0 119 -39t47 -109q0 -74 -84 -120q-49 -29 -74 -29q-23 0 -43 10q-10 -6 -20 -24l12 -58q98 -86 271 -86q145 0 309 62q27 2 123 49q313 150 780 661q123 133 440 480q37 41 137 147q43 45 158 158q20 18 72 63l147 131 q86 70 166 103q131 -6 131 -160q0 -74 -61 -156q-94 -125 -103 -139q-2 -6 -16 -29q-8 -4 -8 -16q-182 -223 -295 -401q0 -8 -8 -23q-27 -27 -62 -78q-2 -2 -12 -10l-2 -6l-234 -336q-86 -125 -108 -203q-2 -16 -33 -110q-14 -45 -14 -72q0 -23 8 -47q18 -14 41 -15 q20 0 58 11.5t53 13.5q160 88 374 307l27 -16q-8 -8 -39 -55q-23 -35 -47 -45q-135 -133 -188 -173q-121 -88 -234 -88q-76 0 -117 25q-70 43 -69 178q0 92 63 223q23 45 117 207q18 10 34.5 39t26.5 37q16 25 45 72q20 14 33 41q-49 2 -117 2q-156 0 -229 -11 q-68 -80 -207 -233q-33 -27 -85 -79t-158 -154q-18 -18 -68 -62q-16 -6 -45 -24q-35 -31 -113 -84q-12 -6 -35 -17q-31 -20 -94 -61q-127 -82 -262 -117q-8 -6 -98 -25q-106 -23 -185 -22q-131 0 -231 43q-131 55 -152 164q-16 88 -20 112zM1651 774q43 -4 69 -4q27 0 256 8 q117 160 553 697q2 14 19.5 30.5t17.5 20.5q0 6 -4 16q45 42 45 105q0 33 -20 30l-7 2q-84 -16 -172 -100q-47 -49 -145 -145q-6 -6 -30.5 -29t-43.5 -41l-30 -43q-2 -4 -170 -178q-186 -195 -338 -369zM2556 1956q0 63 46 109t110 46q63 0 108 -46t45 -109t-45 -109.5 t-108 -46.5t-109.5 46t-46.5 110zM2599 1956q0 -47 32.5 -80t80.5 -33q47 0 78.5 33t31.5 80q0 45 -32.5 77.5t-77.5 32.5q-47 0 -80 -31.5t-33 -78.5z" />
<glyph unicode="&#xc6;" horiz-adv-x="3381" d="M-170 143q0 45 29 68q12 47 57 86t92 39q72 0 119 -39t47 -109q0 -74 -84 -120q-49 -29 -74 -29q-23 0 -43 10q-10 -6 -20 -24l12 -58q98 -86 271 -86q145 0 309 62q27 2 123 49q313 150 780 661q123 133 440 480q37 41 137 147q43 45 158 158q20 18 72 63l147 131 q86 70 166 103q131 -6 131 -160q0 -74 -61 -156q-94 -125 -103 -139q-2 -6 -16 -29q-8 -4 -8 -16q-182 -223 -295 -401q0 -8 -8 -23q-27 -27 -62 -78q-2 -2 -12 -10l-2 -6l-234 -336q-86 -125 -108 -203q-2 -16 -33 -110q-14 -45 -14 -72q0 -23 8 -47q18 -14 41 -15 q20 0 58 11.5t53 13.5q86 47 176 121q-27 66 -27 137q0 133 70 246q164 266 454 424q37 16 128.5 60t125.5 95q29 39 37 113t15 150q14 106 77 186q129 164 334 207q8 12 21 12q4 0 13 -2t13 -2q12 0 35 3t35 3q117 0 207 -61q102 -67 102 -178q0 -117 -101.5 -213.5 t-219.5 -96.5q-61 0 -117 39q-63 43 -64 101q0 119 123 182l17 -25q-76 -59 -76 -182q25 -61 115 -61q92 0 171.5 84.5t79.5 179.5q0 63 -53 112t-119 60q-27 4 -65 4q-315 0 -383 -283q-16 -123 -35 -244q-27 -109 -174 -188q-66 -37 -180 -84q-387 -295 -414 -645 q119 117 123 117t4 -6q0 -10 -10 -37q-8 -8 -39 -56q-23 -35 -47 -45l-33 -32q6 -238 232 -238q115 0 323 100q193 92 313 258q14 23 52 82q59 94 59 203q0 63 -145 113q-150 -4 -288 -96.5t-206 -229.5q-8 -18 -31 -100l-24 10q14 184 181 324.5t353 140.5q98 0 167 -61.5 t69 -157.5q0 -23 -12 -66q-82 -285 -543 -506q-145 -70 -326 -69q-199 0 -297 174q-164 -145 -303 -146q-76 0 -117 25q-70 43 -69 178q0 92 63 223q23 45 117 207q18 10 34.5 39t26.5 37q16 25 47 72q18 14 31 41q-49 2 -117 2q-156 0 -229 -11q-68 -80 -207 -233 q-33 -27 -85 -79t-158 -154q-18 -18 -68 -62q-16 -6 -45 -24q-35 -31 -113 -84q-12 -6 -35 -17q-31 -20 -94 -61q-127 -82 -262 -117q-8 -6 -98 -25q-106 -23 -185 -22q-131 0 -231 43q-131 55 -152 164q-16 88 -20 112zM1653 774q41 -4 67 -4q27 0 256 8q117 160 553 697 q2 14 19.5 30.5t17.5 20.5q0 6 -4 16q45 42 45 105q0 33 -20 30l-7 2q-84 -16 -172 -100q-47 -49 -145 -145q-6 -6 -30.5 -29t-43.5 -41l-30 -43q-2 -4 -170 -178q-186 -197 -336 -369z" />
<glyph unicode="&#xc7;" horiz-adv-x="1296" d="M43 246q0 90 41 219q10 59 51 162q2 2 86 127q12 18 160 202q-92 16 -143 27q-84 18 -140 41l6 25q172 -31 316 -43q49 57 133 133q72 61 141 123q113 102 469 331q14 2 42 18.5t44 16.5q201 90 324 90q192 0 192 -127q0 -117 -192 -268q-53 -41 -206 -124t-218 -105 q-16 -4 -47 -13q-53 -25 -115 -43q-254 -80 -407 -80q-125 -147 -183 -247q-18 -43 -61 -123q-8 -12 -25 -39q-12 -35 -41 -103q-37 -66 -55 -167q-14 -82 -14 -132q0 -215 213 -215q104 0 254 62q35 18 102 61q160 127 227 209q115 137 115 275q0 147 -156 147 q-178 0 -323 -188q-66 -84 -96 -252h-25q-6 35 -6 51q0 115 82 231q78 104 186 164q86 47 189 47q227 0 227 -213q0 -10 -8 -92q-133 -279 -379 -426q-215 -129 -389 -129q-205 0 -303 137q-51 72 -64 179q-4 16 -4 51zM135 -444q25 33 29 34q2 -2 2 -4q6 -8 70 -18h57 q76 0 88 78q4 29 -8 51q-4 6 -23 16q-10 8 -49 8q-25 0 -53 -12l-4 19l32 39l27 40l74 93l55 4l-43 -66l-53 -61q8 4 57 4q16 0 47 -17q12 -4 31 -16q29 -29 21 -80q-4 -25 -26 -64.5t-40 -54.5q-4 -4 -45 -20q-57 -23 -109 -23q-10 0 -53 9q-4 0 -53 12q-10 10 -31 29z M627 1022h8q43 0 264 51q23 10 72 24.5t98 30.5q115 37 295 138q55 31 111 71l100 117q74 96 74 145q0 45 -19 62q-35 4 -55 4q-100 0 -313 -96q-18 -8 -66 -31q-90 -49 -252 -186.5t-233 -221.5q-61 -72 -84 -108z" />
<glyph unicode="&#xc8;" horiz-adv-x="1339" d="M12 217q0 133 70 246q164 266 455 424q37 16 131 61q125 61 151 146q10 106 23.5 211.5t77.5 185.5q129 164 333 207q8 12 21 12q4 0 14 -2t15 -2q12 0 33.5 3t33.5 3q115 0 207 -61q104 -67 104 -178q0 -119 -102 -214.5t-221 -95.5q-59 0 -118.5 41t-59.5 99 q0 119 120 182l17 -25q-76 -59 -76 -182q25 -61 115 -61q92 0 172 84.5t80 179.5q0 63 -53.5 112t-118.5 60q-27 4 -66 4q-315 0 -383 -283q-16 -121 -33 -241q-25 -109 -176 -191q-82 -45 -88 -49q-59 -29 -92 -35q-416 -315 -416 -694q0 -248 232 -248q113 0 323 100 q195 92 314 258q8 12 53 82q59 92 59 203q0 63 -145 113q-152 -4 -288 -96.5t-206 -229.5q-12 -27 -30 -100l-25 10q12 184 182 326q164 139 350 139q98 0 167 -61.5t69 -157.5q0 -29 -10 -66q-82 -285 -545 -506q-145 -70 -326 -69q-147 0 -245.5 104.5t-98.5 251.5z M1147 2087v10q18 10 37 10q66 0 129 -59q51 -55 102 -111q127 -133 127 -143q0 -8 -10 -8q-12 2 -70 18q-29 39 -106 88q-55 35 -121 78q-88 70 -88 117z" />
<glyph unicode="&#xc9;" horiz-adv-x="1339" d="M12 217q0 133 70 246q164 266 455 424q37 16 131 61q125 61 151 146q10 106 23.5 211.5t77.5 185.5q129 164 333 207q8 12 21 12q4 0 14 -2t15 -2q12 0 33.5 3t33.5 3q115 0 207 -61q104 -67 104 -178q0 -119 -102 -214.5t-221 -95.5q-59 0 -118.5 41t-59.5 99 q0 119 120 182l17 -25q-76 -59 -76 -182q25 -61 115 -61q92 0 172 84.5t80 179.5q0 63 -53.5 112t-118.5 60q-27 4 -66 4q-315 0 -383 -283q-16 -121 -33 -241q-25 -109 -176 -191q-82 -45 -88 -49q-59 -29 -92 -35q-416 -315 -416 -694q0 -248 232 -248q113 0 323 100 q195 92 314 258q8 12 53 82q59 92 59 203q0 63 -145 113q-152 -4 -288 -96.5t-206 -229.5q-12 -27 -30 -100l-25 10q12 184 182 326q164 139 350 139q98 0 167 -61.5t69 -157.5q0 -29 -10 -66q-82 -285 -545 -506q-145 -70 -326 -69q-147 0 -245.5 104.5t-98.5 251.5z M1370 1817l2 2q131 80 367 200q16 4 35 4q36 0 77 -18q-2 -29 -49 -57l-73 -33q-68 -20 -183 -60q-39 -14 -100 -43q-76 -2 -76 5z" />
<glyph unicode="&#xca;" horiz-adv-x="1339" d="M12 217q0 133 70 246q164 266 455 424q37 16 131 61q125 61 151 146q10 106 23.5 211.5t77.5 185.5q129 164 333 207q8 12 21 12q4 0 14 -2t15 -2q12 0 33.5 3t33.5 3q115 0 207 -61q104 -67 104 -178q0 -119 -102 -214.5t-221 -95.5q-59 0 -118.5 41t-59.5 99 q0 119 120 182l17 -25q-76 -59 -76 -182q25 -61 115 -61q92 0 172 84.5t80 179.5q0 63 -53.5 112t-118.5 60q-27 4 -66 4q-315 0 -383 -283q-16 -121 -33 -241q-25 -109 -176 -191q-82 -45 -88 -49q-59 -29 -92 -35q-416 -315 -416 -694q0 -248 232 -248q113 0 323 100 q195 92 314 258q8 12 53 82q59 92 59 203q0 63 -145 113q-152 -4 -288 -96.5t-206 -229.5q-12 -27 -30 -100l-25 10q12 184 182 326q164 139 350 139q98 0 167 -61.5t69 -157.5q0 -29 -10 -66q-82 -285 -545 -506q-145 -70 -326 -69q-147 0 -245.5 104.5t-98.5 251.5z M1130 1792q248 145 371 231q31 23 88 48q12 -27 49 -138q10 -30 35 -104q-27 -23 -82 -60l-73 205l-9 -6q-43 -33 -329 -180q-10 -2 -21 -2q-16 0 -29 6z" />
<glyph unicode="&#xcb;" horiz-adv-x="1339" d="M12 217q0 133 70 246q164 266 455 424q37 16 131 61q125 61 151 146q10 106 23.5 211.5t77.5 185.5q129 164 333 207q8 12 21 12q4 0 14 -2t15 -2q12 0 33.5 3t33.5 3q115 0 207 -61q104 -67 104 -178q0 -119 -102 -214.5t-221 -95.5q-59 0 -118.5 41t-59.5 99 q0 119 120 182l17 -25q-76 -59 -76 -182q25 -61 115 -61q92 0 172 84.5t80 179.5q0 63 -53.5 112t-118.5 60q-27 4 -66 4q-315 0 -383 -283q-16 -121 -33 -241q-25 -109 -176 -191q-82 -45 -88 -49q-59 -29 -92 -35q-416 -315 -416 -694q0 -248 232 -248q113 0 323 100 q195 92 314 258q8 12 53 82q59 92 59 203q0 63 -145 113q-152 -4 -288 -96.5t-206 -229.5q-12 -27 -30 -100l-25 10q12 184 182 326q164 139 350 139q98 0 167 -61.5t69 -157.5q0 -29 -10 -66q-82 -285 -545 -506q-145 -70 -326 -69q-147 0 -245.5 104.5t-98.5 251.5z M1219 1874q25 68 65 74q39 0 59 -15l21 -41q10 -20 6 -37q-6 -6 -10 -12q-14 -35 -23 -35q-61 -8 -69 -2q-49 35 -49 68zM1507 1868q31 74 66 74q45 4 61 -13q33 -55 29 -74q-2 -2 -14 -30q-9 -21 -25 -21q-6 -2 -25 -6q-20 -6 -67 33q-20 14 -25 37z" />
<glyph unicode="&#xcc;" d="M-143 170q0 96 56 152.5t153 56.5q55 -23 73 -41q25 -27 25 -80q0 -39 -8 -51q-2 -4 -17 -19q-61 -68 -155 -71q-2 -10 -2 -19q0 -14 14 -59q100 -84 244 -84q397 0 786 510q27 47 84 133q25 27 68 84q12 27 41 76q20 23 57 67q12 20 47 74q244 377 561 629q45 29 135 92 h-53q-606 0 -852 -150q-53 -33 -94 -90q-47 -63 -47 -118q0 -68 71 -82q29 -6 103 -6q61 0 126.5 45t92.5 102q-4 57 -13.5 66.5t-29.5 31.5q29 18 53 19q33 0 58.5 -27t25.5 -59q0 -72 -82 -138q-113 -90 -276 -90q-31 0 -90 4q-23 20 -60 19q-68 72 -67 129q0 23 24.5 77 t42.5 72q25 27 88 68q203 133 607 172q106 10 114 10q-14 0 49 -2h48q43 0 128 8.5t125.5 8.5t111.5 30.5t93 30.5q51 0 51 -29q0 -33 -51 -57q-59 -4 -141 -31q-88 -29 -131 -61q-180 -139 -358 -385q-59 -80 -291 -440q-176 -272 -316 -422q-41 -35 -123 -107 q-16 -18 -51 -55q-12 -12 -84 -58q-317 -205 -577 -204q-227 0 -344 159q-43 59 -43 109zM1671 2087q0 4 2 10q18 10 37 10q66 0 129 -59q51 -55 103 -111q126 -133 126 -143q0 -8 -10 -8q-12 2 -69 18q-29 39 -107 88q-55 35 -121 78q-90 72 -90 117z" />
<glyph unicode="&#xcd;" d="M-143 170q0 96 56 152.5t153 56.5q55 -23 73 -41q25 -27 25 -80q0 -39 -8 -51q-2 -4 -17 -19q-61 -68 -155 -71q-2 -10 -2 -19q0 -14 14 -59q100 -84 244 -84q397 0 786 510q27 47 84 133q25 27 68 84q12 27 41 76q20 23 57 67q12 20 47 74q244 377 561 629q45 29 135 92 h-53q-606 0 -852 -150q-53 -33 -94 -90q-47 -63 -47 -118q0 -68 71 -82q29 -6 103 -6q61 0 126.5 45t92.5 102q-4 57 -13.5 66.5t-29.5 31.5q29 18 53 19q33 0 58.5 -27t25.5 -59q0 -72 -82 -138q-113 -90 -276 -90q-31 0 -90 4q-23 20 -60 19q-68 72 -67 129q0 23 24.5 77 t42.5 72q25 27 88 68q203 133 607 172q106 10 114 10q-14 0 49 -2h48q43 0 128 8.5t125.5 8.5t111.5 30.5t93 30.5q51 0 51 -29q0 -33 -51 -57q-59 -4 -141 -31q-88 -29 -131 -61q-180 -139 -358 -385q-59 -80 -291 -440q-176 -272 -316 -422q-41 -35 -123 -107 q-16 -18 -51 -55q-12 -12 -84 -58q-317 -205 -577 -204q-227 0 -344 159q-43 59 -43 109zM1747 1802l2 2q131 80 367 201q18 6 36 6q35 0 74 -20q-2 -37 -123 -90q-63 -18 -182 -60q-43 -16 -100 -41q-74 -4 -74 2z" />
<glyph unicode="&#xce;" d="M-143 170q0 96 56 152.5t153 56.5q55 -23 73 -41q25 -27 25 -80q0 -39 -8 -51q-2 -4 -17 -19q-61 -68 -155 -71q-2 -10 -2 -19q0 -14 14 -59q100 -84 244 -84q397 0 786 510q27 47 84 133q25 27 68 84q12 27 41 76q20 23 57 67q12 20 47 74q244 377 561 629q45 29 135 92 h-53q-606 0 -852 -150q-53 -33 -94 -90q-47 -63 -47 -118q0 -68 71 -82q29 -6 103 -6q61 0 126.5 45t92.5 102q-4 57 -13.5 66.5t-29.5 31.5q29 18 53 19q33 0 58.5 -27t25.5 -59q0 -72 -82 -138q-113 -90 -276 -90q-31 0 -90 4q-23 20 -60 19q-68 72 -67 129q0 23 24.5 77 t42.5 72q25 27 88 68q203 133 607 172q106 10 114 10q-14 0 49 -2h48q43 0 128 8.5t125.5 8.5t111.5 30.5t93 30.5q51 0 51 -29q0 -33 -51 -57q-59 -4 -141 -31q-88 -29 -131 -61q-180 -139 -358 -385q-59 -80 -291 -440q-176 -272 -316 -422q-41 -35 -123 -107 q-16 -18 -51 -55q-12 -12 -84 -58q-317 -205 -577 -204q-227 0 -344 159q-43 59 -43 109zM1610 1808q246 145 370 232q29 23 88 47q12 -27 50 -137q9 -31 34 -105q-27 -23 -81 -59l-74 205l-8 -6q-39 -29 -330 -181q-10 -2 -21 -2q-16 0 -28 6z" />
<glyph unicode="&#xcf;" d="M-143 170q0 96 56 152.5t153 56.5q55 -23 73 -41q25 -27 25 -80q0 -39 -8 -51q-2 -4 -17 -19q-61 -68 -155 -71q-2 -10 -2 -19q0 -14 14 -59q100 -84 244 -84q397 0 786 510q27 47 84 133q25 27 68 84q12 27 41 76q20 23 57 67q12 20 47 74q244 377 561 629q45 29 135 92 h-53q-606 0 -852 -150q-53 -33 -94 -90q-47 -63 -47 -118q0 -68 71 -82q29 -6 103 -6q61 0 126.5 45t92.5 102q-4 57 -13.5 66.5t-29.5 31.5q29 18 53 19q33 0 58.5 -27t25.5 -59q0 -72 -82 -138q-113 -90 -276 -90q-31 0 -90 4q-23 20 -60 19q-68 72 -67 129q0 23 24.5 77 t42.5 72q25 27 88 68q203 133 607 172q106 10 114 10q-14 0 49 -2h48q43 0 128 8.5t125.5 8.5t111.5 30.5t93 30.5q51 0 51 -29q0 -33 -51 -57q-59 -4 -141 -31q-88 -29 -131 -61q-180 -139 -358 -385q-59 -80 -291 -440q-176 -272 -316 -422q-41 -35 -123 -107 q-16 -18 -51 -55q-12 -12 -84 -58q-317 -205 -577 -204q-227 0 -344 159q-43 59 -43 109zM1663 1882q14 33 25 45q16 25 41 29q41 0 61 -14l20 -41q10 -20 7 -37q-7 -7 -11 -13q-14 -35 -22 -34q-59 -8 -70 -2q-51 35 -51 67zM1954 1876q31 74 65 74q45 4 62 -13 q33 -55 28 -73q-2 -2 -14 -31q-8 -21 -24 -21q-6 -2 -25 -6q-23 -6 -70 33q-18 14 -22 37z" />
<glyph unicode="&#xd1;" horiz-adv-x="2582" d="M-172 215q0 72 50 135.5t120 63.5q25 0 65 -19q63 -29 64 -139q0 -51 -57 -84q-49 -23 -101 -45q-2 -10 -2 -18q0 -106 164 -150q86 -23 158 -22q90 0 188 16q23 14 68 22q53 8 71 15q94 27 230 94q279 141 534 403q451 461 703 912q47 94 145 284q20 37 53 37 q31 0 31 -32q0 -2 -2 -9v-6l-4 -4l-4 -6q-51 -125 -76 -320q-12 -109 -39 -327q-39 -250 -102 -709q371 602 684 942q53 57 115 111q6 4 16 10q76 78 166 146q199 150 442 196q20 4 29 4q102 0 188 -61q27 -18 33 -27q31 -41 31 -96q0 -59 -113 -119q-10 -4 -20 -4 q-25 0 -52 23q14 29 15 67q0 100 -72 135q-39 18 -67 19q-35 0 -135.5 -43t-137.5 -68q-16 -12 -57 -41q-23 -12 -76 -45q-211 -141 -512 -547q-377 -506 -592 -899q-14 -29 -55 -102q-20 -31 -74 -31q0 39 23 98q29 72 32 97q43 227 179 1192q-221 -354 -566 -723 q-76 -84 -239 -242q-14 -8 -45 -29q-33 -29 -72 -59q-285 -217 -618 -295q-12 -14 -47 -13t-42 -14q-88 -4 -127 -4q-29 0 -87 6.5t-86.5 6.5t-79 24.5t-76.5 26.5q-72 59 -74 61q-41 37 -61 76q-2 18 -14.5 61t-12.5 68zM2488 1747q66 104 121 123q61 35 92 35 q74 0 156 -52q29 -18 47 -18q82 0 135 70q4 6 15 6q10 0 24 -4q-12 -18 -31 -52q-10 -12 -63 -67q-8 -8 -45 -16q-23 -4 -53 -13q-12 -6 -33 -6q-55 0 -86 25q-55 43 -123 43q-41 0 -78 -39q-8 -8 -37 -35h-41zM2904 1372z" />
<glyph unicode="&#xd2;" d="M43 240q0 195 129 411q25 35 88 131q14 25 53 82q31 43 158 183q436 483 858 614q139 43 187 43q104 0 182 -49q90 -58 90 -156q0 -53 -29 -90q-16 -8 -16 -63q0 -20 -23 -119q-16 -76 -96 -230q-12 -23 -43 -82q-23 -29 -78 -106q-131 -184 -225 -295q-49 -63 -94 -111 l-10 -6q-31 -18 -74 -63l-70 -72q-291 -268 -502 -346q-84 -31 -178 -31q-307 0 -307 355zM203 172q0 -111 16 -154q29 -76 123 -75q31 0 93.5 12t83 24.5t30.5 12.5l4 -2q195 92 373 274q498 508 673 942q37 90 37 146q0 111 -53 151q-39 29 -72 29q-12 0 -24 -4 q-195 -63 -338 -258q-123 -168 -184 -393h-25q-8 29 -8 51q0 53 53 174q57 131 152 239q16 18 69 68q186 170 338 170q91 0 154 -66q-23 129 -170 129q-111 0 -250 -53q-47 -18 -166 -104q-139 -100 -293 -266q-324 -350 -452 -594q-20 -41 -105 -250q-59 -150 -59 -203z M1331 2103q0 4 2 11q18 10 35 10q63 0 131 -60q51 -55 103 -110q127 -134 127 -144q0 -8 -11 -8q-4 0 -71 19q-25 37 -107 88q-102 63 -119 78q-90 72 -90 116z" />
<glyph unicode="&#xd3;" d="M43 240q0 195 129 411q25 35 88 131q14 25 53 82q31 43 158 183q436 483 858 614q139 43 187 43q104 0 182 -49q90 -58 90 -156q0 -53 -29 -90q-16 -8 -16 -63q0 -20 -23 -119q-16 -76 -96 -230q-12 -23 -43 -82q-23 -29 -78 -106q-131 -184 -225 -295q-49 -63 -94 -111 l-10 -6q-31 -18 -74 -63l-70 -72q-291 -268 -502 -346q-84 -31 -178 -31q-307 0 -307 355zM203 172q0 -111 16 -154q29 -76 123 -75q31 0 93.5 12t83 24.5t30.5 12.5l4 -2q195 92 373 274q498 508 673 942q37 90 37 146q0 111 -53 151q-39 29 -72 29q-12 0 -24 -4 q-195 -63 -338 -258q-123 -168 -184 -393h-25q-8 29 -8 51q0 53 53 174q57 131 152 239q16 18 69 68q186 170 338 170q91 0 154 -66q-23 129 -170 129q-111 0 -250 -53q-47 -18 -166 -104q-139 -100 -293 -266q-324 -350 -452 -594q-20 -41 -105 -250q-59 -150 -59 -203z M1444 1810l2 2q131 80 366 201q18 6 37 6q35 0 76 -20q-2 -37 -123 -90q-66 -18 -182 -60q-47 -16 -100 -41q-76 -4 -76 2z" />
<glyph unicode="&#xd4;" d="M43 240q0 195 129 411q25 35 88 131q14 25 53 82q31 43 158 183q436 483 858 614q139 43 187 43q104 0 182 -49q90 -58 90 -156q0 -53 -29 -90q-16 -8 -16 -63q0 -20 -23 -119q-16 -76 -96 -230q-12 -23 -43 -82q-23 -29 -78 -106q-131 -184 -225 -295q-49 -63 -94 -111 l-10 -6q-31 -18 -74 -63l-70 -72q-291 -268 -502 -346q-84 -31 -178 -31q-307 0 -307 355zM203 172q0 -111 16 -154q29 -76 123 -75q31 0 93.5 12t83 24.5t30.5 12.5l4 -2q195 92 373 274q498 508 673 942q37 90 37 146q0 111 -53 151q-39 29 -72 29q-12 0 -24 -4 q-195 -63 -338 -258q-123 -168 -184 -393h-25q-8 29 -8 51q0 53 53 174q57 131 152 239q16 18 69 68q186 170 338 170q91 0 154 -66q-23 129 -170 129q-111 0 -250 -53q-47 -18 -166 -104q-139 -100 -293 -266q-324 -350 -452 -594q-20 -41 -105 -250q-59 -150 -59 -203z M1255 1784q246 145 371 231q29 23 88 47q12 -27 49 -137q10 -30 35 -104q-27 -23 -82 -60l-74 205l-8 -6q-39 -29 -329 -180q-10 -2 -21 -2q-16 0 -29 6z" />
<glyph unicode="&#xd5;" d="M43 240q0 195 129 411q25 35 88 131q14 25 53 82q31 43 158 183q436 483 858 614q139 43 187 43q104 0 182 -49q90 -58 90 -156q0 -53 -29 -90q-16 -8 -16 -63q0 -20 -23 -119q-16 -76 -96 -230q-12 -23 -43 -82q-23 -29 -78 -106q-131 -184 -225 -295q-49 -63 -94 -111 l-10 -6q-31 -18 -74 -63l-70 -72q-291 -268 -502 -346q-84 -31 -178 -31q-307 0 -307 355zM203 172q0 -111 16 -154q29 -76 123 -75q31 0 93.5 12t83 24.5t30.5 12.5l4 -2q195 92 373 274q498 508 673 942q37 90 37 146q0 111 -53 151q-39 29 -72 29q-12 0 -24 -4 q-195 -63 -338 -258q-123 -168 -184 -393h-25q-8 29 -8 51q0 53 53 174q57 131 152 239q16 18 69 68q186 170 338 170q91 0 154 -66q-23 129 -170 129q-111 0 -250 -53q-47 -18 -166 -104q-139 -100 -293 -266q-324 -350 -452 -594q-20 -41 -105 -250q-59 -150 -59 -203z M1260 1800q68 106 118 121l33 21q27 16 62 16q74 0 155 -51q29 -18 47 -19q82 0 133 70q8 10 41 0q-12 -16 -30 -49q-10 -12 -64 -68q-8 -8 -47 -16t-51 -15q-23 -8 -60 -2q-39 6 -59 23q-55 43 -123 43q-43 0 -78 -39q-6 -6 -37 -35h-40z" />
<glyph unicode="&#xd6;" d="M43 240q0 195 129 411q25 35 88 131q14 25 53 82q31 43 158 183q436 483 858 614q139 43 187 43q104 0 182 -49q90 -58 90 -156q0 -53 -29 -90q-16 -8 -16 -63q0 -20 -23 -119q-16 -76 -96 -230q-12 -23 -43 -82q-23 -29 -78 -106q-131 -184 -225 -295q-49 -63 -94 -111 l-10 -6q-31 -18 -74 -63l-70 -72q-291 -268 -502 -346q-84 -31 -178 -31q-307 0 -307 355zM203 172q0 -111 16 -154q29 -76 123 -75q31 0 93.5 12t83 24.5t30.5 12.5l4 -2q195 92 373 274q498 508 673 942q37 90 37 146q0 111 -53 151q-39 29 -72 29q-12 0 -24 -4 q-195 -63 -338 -258q-123 -168 -184 -393h-25q-8 29 -8 51q0 53 53 174q57 131 152 239q16 18 69 68q186 170 338 170q91 0 154 -66q-23 129 -170 129q-111 0 -250 -53q-47 -18 -166 -104q-139 -100 -293 -266q-324 -350 -452 -594q-20 -41 -105 -250q-59 -150 -59 -203z M1438 1905q14 35 22 47q18 23 43 26q41 0 62 -14q29 -66 26 -78q-6 -4 -10 -12q-16 -35 -22 -35q-59 -8 -70 -2q-51 35 -51 68zM1726 1901q31 74 68 73q45 4 61 -14q31 -55 29 -74q-4 -2 -16 -31q-8 -18 -17.5 -20t-29.5 -6q-18 -4 -33 2q-29 23 -37 31q-18 18 -25 39z" />
<glyph unicode="&#xd7;" horiz-adv-x="1456" d="M283 195l391 393l-391 393l67 68l393 -392l394 394l73 -70l-397 -395l393 -391l-69 -70l-392 393l-391 -393z" />
<glyph unicode="&#xd8;" d="M-240 25q49 53 134 108q72 45 143 92l6 4v11q0 195 129 411q25 35 88 131q14 25 53 82q31 43 158 183q436 483 858 614q139 43 187 43q104 0 182 -49q92 -57 92 -156q0 -53 -31 -90q-6 -4 -16 -20q55 39 262 149q14 -31 8 -47q-8 -25 -61 -51q-72 -43 -215 -127v-4 q-4 -23 -17 -82q-16 -76 -96 -230q-12 -23 -43 -82q-23 -29 -78 -106q-131 -184 -225 -295q-49 -63 -94 -111l-10 -6q-31 -18 -74 -63l-70 -72q-291 -268 -502 -346q-84 -31 -178 -31q-268 0 -301 277q-98 -66 -186 -119q-49 -29 -103 -18zM203 172q0 -111 16 -154 q29 -76 123 -75q31 0 93.5 12t83 24.5t30.5 12.5l4 -2q195 92 373 274q526 539 673 942q5 7 9 23l-58 -39q-39 -27 -139 -94q-35 -23 -154 -103l-1034 -717q-20 -57 -20 -104zM262 375q59 41 94 69q43 37 224 154q72 47 258 172q76 49 149 96q10 6 203 138q119 84 432 294 l6 5q8 41 8 49q0 111 -53 151q-39 29 -72 29q-12 0 -24 -4q-195 -63 -338 -258q-123 -168 -184 -393h-25q-8 29 -8 51q0 53 53 174q57 131 152 239q16 18 69 68q186 170 338 170q91 0 154 -66q-23 131 -170 132q-111 0 -250 -56q-53 -20 -166 -104q-102 -74 -156.5 -126 t-136.5 -140q-324 -350 -452 -594q-20 -39 -105 -250z" />
<glyph unicode="&#xd9;" horiz-adv-x="1675" d="M84 106q0 80 47 173q16 27 96 153q141 225 310 447q186 246 221 297q123 182 172 325q16 47 16 76q0 14 -6 29q-39 20 -80 20q-80 0 -223 -86q-90 -53 -201 -160l-184 -178l-25 25q150 166 248 250q150 127 301 176q70 23 98 22q100 0 181 -80q20 -47 20 -98 q0 -100 -100 -262q2 -4 2 -8q0 -10 -11.5 -20.5t-21.5 -20.5q-45 -49 -113 -150q-76 -111 -110 -153q2 -4 2 -9q0 -27 -33 -34q-68 -106 -127 -189q-20 -27 -71 -94q-76 -106 -175 -268q-8 -27 -28 -78q-6 -12 -25 -43q-47 -88 -47 -176q0 10 2 -25q16 -20 94 -20 q59 10 107 26q115 41 233 146q72 63 195 198q31 39 113 140q111 133 239 303q14 25 43 71q27 35 94 127q53 82 197 293q31 41 108 150q12 18 46 67q25 33 86 119q10 16 41 58q29 29 75 28q16 0 35 -8l4 -4h4q6 4 17 4q12 0 22 -12q0 -41 -26 -78q-33 -37 -64 -80 q-45 -68 -156 -225l-161 -221q-391 -553 -586 -910q-2 -18 -15.5 -59t-13.5 -66q0 -72 103 -71q141 0 370 190q57 47 322 299l16 -20q-23 -57 -166 -195q-10 -12 -110 -98q-127 -109 -201 -154q-123 -76 -235 -76q-225 0 -226 207q0 72 25 127l-4 4q-150 -158 -262 -231 q-164 -106 -330 -107q-80 0 -127 72q-41 61 -41 145zM1182 1985q0 4 2 10q18 10 35 10q63 0 131 -59q51 -55 102 -111q127 -133 127 -143q0 -8 -10 -9q-4 0 -72 19q-25 37 -106 88q-102 63 -119 78q-90 72 -90 117z" />
<glyph unicode="&#xda;" horiz-adv-x="1675" d="M84 106q0 80 47 173q16 27 96 153q141 225 310 447q186 246 221 297q123 182 172 325q16 47 16 76q0 14 -6 29q-39 20 -80 20q-80 0 -223 -86q-90 -53 -201 -160l-184 -178l-25 25q150 166 248 250q150 127 301 176q70 23 98 22q100 0 181 -80q20 -47 20 -98 q0 -100 -100 -262q2 -4 2 -8q0 -10 -11.5 -20.5t-21.5 -20.5q-45 -49 -113 -150q-76 -111 -110 -153q2 -4 2 -9q0 -27 -33 -34q-68 -106 -127 -189q-20 -27 -71 -94q-76 -106 -175 -268q-8 -27 -28 -78q-6 -12 -25 -43q-47 -88 -47 -176q0 10 2 -25q16 -20 94 -20 q59 10 107 26q115 41 233 146q72 63 195 198q31 39 113 140q111 133 239 303q14 25 43 71q27 35 94 127q53 82 197 293q31 41 108 150q12 18 46 67q25 33 86 119q10 16 41 58q29 29 75 28q16 0 35 -8l4 -4h4q6 4 17 4q12 0 22 -12q0 -41 -26 -78q-33 -37 -64 -80 q-45 -68 -156 -225l-161 -221q-391 -553 -586 -910q-2 -18 -15.5 -59t-13.5 -66q0 -72 103 -71q141 0 370 190q57 47 322 299l16 -20q-23 -57 -166 -195q-10 -12 -110 -98q-127 -109 -201 -154q-123 -76 -235 -76q-225 0 -226 207q0 72 25 127l-4 4q-150 -158 -262 -231 q-164 -106 -330 -107q-80 0 -127 72q-41 61 -41 145zM1391 1761l2 2q131 80 366 201q18 6 37 6q35 0 76 -20q-2 -37 -123 -90q-66 -18 -182 -60q-47 -16 -101 -41q-76 -4 -75 2z" />
<glyph unicode="&#xdb;" horiz-adv-x="1675" d="M84 106q0 80 47 173q16 27 96 153q141 225 310 447q186 246 221 297q123 182 172 325q16 47 16 76q0 14 -6 29q-39 20 -80 20q-80 0 -223 -86q-90 -53 -201 -160l-184 -178l-25 25q150 166 248 250q150 127 301 176q70 23 98 22q100 0 181 -80q20 -47 20 -98 q0 -100 -100 -262q2 -4 2 -8q0 -10 -11.5 -20.5t-21.5 -20.5q-45 -49 -113 -150q-76 -111 -110 -153q2 -4 2 -9q0 -27 -33 -34q-68 -106 -127 -189q-20 -27 -71 -94q-76 -106 -175 -268q-8 -27 -28 -78q-6 -12 -25 -43q-47 -88 -47 -176q0 10 2 -25q16 -20 94 -20 q59 10 107 26q115 41 233 146q72 63 195 198q31 39 113 140q111 133 239 303q14 25 43 71q27 35 94 127q53 82 197 293q31 41 108 150q12 18 46 67q25 33 86 119q10 16 41 58q29 29 75 28q16 0 35 -8l4 -4h4q6 4 17 4q12 0 22 -12q0 -41 -26 -78q-33 -37 -64 -80 q-45 -68 -156 -225l-161 -221q-391 -553 -586 -910q-2 -18 -15.5 -59t-13.5 -66q0 -72 103 -71q141 0 370 190q57 47 322 299l16 -20q-23 -57 -166 -195q-10 -12 -110 -98q-127 -109 -201 -154q-123 -76 -235 -76q-225 0 -226 207q0 72 25 127l-4 4q-150 -158 -262 -231 q-164 -106 -330 -107q-80 0 -127 72q-41 61 -41 145zM1214 1743q248 145 371 231q31 23 88 47q12 -27 49 -137q10 -30 35 -104q-27 -23 -82 -60l-73 205l-9 -6q-43 -33 -329 -180q-10 -2 -21 -2q-16 0 -29 6z" />
<glyph unicode="&#xdc;" horiz-adv-x="1675" d="M84 106q0 80 47 173q16 27 96 153q141 225 310 447q186 246 221 297q123 182 172 325q16 47 16 76q0 14 -6 29q-39 20 -80 20q-80 0 -223 -86q-90 -53 -201 -160l-184 -178l-25 25q150 166 248 250q150 127 301 176q70 23 98 22q100 0 181 -80q20 -47 20 -98 q0 -100 -100 -262q2 -4 2 -8q0 -10 -11.5 -20.5t-21.5 -20.5q-45 -49 -113 -150q-76 -111 -110 -153q2 -4 2 -9q0 -27 -33 -34q-68 -106 -127 -189q-20 -27 -71 -94q-76 -106 -175 -268q-8 -27 -28 -78q-6 -12 -25 -43q-47 -88 -47 -176q0 10 2 -25q16 -20 94 -20 q59 10 107 26q115 41 233 146q72 63 195 198q31 39 113 140q111 133 239 303q14 25 43 71q27 35 94 127q53 82 197 293q31 41 108 150q12 18 46 67q25 33 86 119q10 16 41 58q29 29 75 28q16 0 35 -8l4 -4h4q6 4 17 4q12 0 22 -12q0 -41 -26 -78q-33 -37 -64 -80 q-45 -68 -156 -225l-161 -221q-391 -553 -586 -910q-2 -18 -15.5 -59t-13.5 -66q0 -72 103 -71q141 0 370 190q57 47 322 299l16 -20q-23 -57 -166 -195q-10 -12 -110 -98q-127 -109 -201 -154q-123 -76 -235 -76q-225 0 -226 207q0 72 25 127l-4 4q-150 -158 -262 -231 q-164 -106 -330 -107q-80 0 -127 72q-41 61 -41 145zM1286 1855q14 33 23 48q18 23 43 26q41 0 61 -16q31 -57 27 -78q-6 -4 -10 -10q-14 -37 -23 -37q-59 -6 -70 -2q-51 37 -51 69zM1577 1849q29 74 65 74q45 4 62 -12q31 -55 29 -74q-2 -2 -15 -33q-10 -18 -21.5 -19 t-27.5 -7q-23 -4 -70 34q-18 14 -22 37z" />
<glyph unicode="&#xdf;" horiz-adv-x="563" d="M-1403 -893q0 43 8 62q4 10 33 49q154 211 395 340q268 143 291 155q166 86 297 140l33 26q92 121 164 236q82 129 295 452q35 51 125 183l24 34q39 51 139 187q246 334 418 495q156 147 199 179q127 94 239 94q53 0 90 -30t37 -81q0 -172 -370 -454q-154 -117 -346 -205 q-70 -33 -191 -84l-45 -60q-55 -80 -196 -301q-57 -90 -185 -274l-217 -316q375 166 578 338q66 61 233 220q8 8 14 8q12 0 13 -15q0 -104 -396 -383q-174 -123 -507 -268q2 -2 2 -6q0 -10 -58 -76q-182 -264 -286 -383q-135 -156 -291 -262q-199 -137 -359 -137 q-35 0 -61 12q-4 -2 -12 -2q-49 0 -80 41q-27 35 -27 86zM-1305 -895q0 -57 31 -74q27 -2 45 -2q244 0 467 269q12 18 49 62t129 155q2 12 41 67q11 14 115 182q-100 -49 -223 -108q-307 -145 -445 -262q-12 -10 -59 -53q-150 -139 -150 -236zM545 975l4 -4q233 106 422 252 q301 235 301 440q0 10 -37 27q-168 -37 -358 -275q-217 -270 -332 -440z" />
<glyph unicode="&#xe0;" horiz-adv-x="1005" d="M-164 88q0 117 137 287q18 23 226 243q16 0 32.5 16.5t26.5 24.5q31 16 76 48q98 68 145 90q86 43 164 43t115 -78q14 27 65 65q10 12 33 13q29 0 64 -23v-41q-176 -211 -424 -545q-49 -66 -58 -77q-33 -51 -39 -82q-2 -12 -2 -37q12 -29 41 -29q197 0 561 397 q127 137 134 138q10 -1 10 -13q0 -41 -96 -155q-72 -86 -136 -146q-299 -283 -469 -282q-70 0 -115.5 42t-41.5 109q-113 -82 -142 -98q-92 -53 -161 -53q-43 0 -82 16q-63 72 -64 127zM-43 10q6 -12 25 -12q29 0 61 10q20 6 70 35q160 92 376 371l117 147q72 94 72 164 q0 31 -16 55q-10 4 -23 4q-45 0 -72 -8q-94 -29 -248 -186q-127 -131 -204 -244q-10 -16 -37 -61l-80 -129q-39 -74 -41 -146zM465 1280q0 4 2 10q18 10 37 10q66 0 129 -59q51 -55 102 -111q127 -133 127 -143q0 -8 -10 -8q-12 2 -70 18q-31 39 -106 88l-121 78 q-90 72 -90 117z" />
<glyph unicode="&#xe1;" horiz-adv-x="1005" d="M-164 88q0 117 137 287q18 23 226 243q16 0 32.5 16.5t26.5 24.5q31 16 76 48q98 68 145 90q86 43 164 43t115 -78q14 27 65 65q10 12 33 13q29 0 64 -23v-41q-176 -211 -424 -545q-49 -66 -58 -77q-33 -51 -39 -82q-2 -12 -2 -37q12 -29 41 -29q197 0 561 397 q127 137 134 138q10 -1 10 -13q0 -41 -96 -155q-72 -86 -136 -146q-299 -283 -469 -282q-70 0 -115.5 42t-41.5 109q-113 -82 -142 -98q-92 -53 -161 -53q-43 0 -82 16q-63 72 -64 127zM-43 10q6 -12 25 -12q29 0 61 10q20 6 70 35q160 92 376 371l117 147q72 94 72 164 q0 31 -16 55q-10 4 -23 4q-45 0 -72 -8q-94 -29 -248 -186q-127 -131 -204 -244q-10 -16 -37 -61l-80 -129q-39 -74 -41 -146zM705 983q2 0 4 2q131 80 364 201q18 6 37 6q37 -1 76 -21q-2 -37 -123 -90q-66 -18 -182 -59q-47 -16 -101 -41q-76 -4 -75 2z" />
<glyph unicode="&#xe2;" horiz-adv-x="1005" d="M-164 88q0 117 137 287q18 23 226 243q16 0 32.5 16.5t26.5 24.5q31 16 76 48q98 68 145 90q86 43 164 43t115 -78q14 27 65 65q10 12 33 13q29 0 64 -23v-41q-176 -211 -424 -545q-49 -66 -58 -77q-33 -51 -39 -82q-2 -12 -2 -37q12 -29 41 -29q197 0 561 397 q127 137 134 138q10 -1 10 -13q0 -41 -96 -155q-72 -86 -136 -146q-299 -283 -469 -282q-70 0 -115.5 42t-41.5 109q-113 -82 -142 -98q-92 -53 -161 -53q-43 0 -82 16q-63 72 -64 127zM-43 10q6 -12 25 -12q29 0 61 10q20 6 70 35q160 92 376 371l117 147q72 94 72 164 q0 31 -16 55q-10 4 -23 4q-45 0 -72 -8q-94 -29 -248 -186q-127 -131 -204 -244q-10 -16 -37 -61l-80 -129q-39 -74 -41 -146zM526 965q246 145 371 233q14 4 43 24.5t45 20.5q12 -35 47 -135q12 -30 37 -104q-27 -25 -84 -62l-72 207l-8 -6q-39 -29 -330 -180 q-14 -4 -24 -5q-14 0 -25 7z" />
<glyph unicode="&#xe3;" horiz-adv-x="1005" d="M-164 88q0 117 137 287q18 23 226 243q16 0 32.5 16.5t26.5 24.5q31 16 76 48q98 68 145 90q86 43 164 43t115 -78q14 27 65 65q10 12 33 13q29 0 64 -23v-41q-176 -211 -424 -545q-49 -66 -58 -77q-33 -51 -39 -82q-2 -12 -2 -37q12 -29 41 -29q197 0 561 397 q127 137 134 138q10 -1 10 -13q0 -41 -96 -155q-72 -86 -136 -146q-299 -283 -469 -282q-70 0 -115.5 42t-41.5 109q-113 -82 -142 -98q-92 -53 -161 -53q-43 0 -82 16q-63 72 -64 127zM-43 10q6 -12 25 -12q29 0 61 10q20 6 70 35q160 92 376 371l117 147q72 94 72 164 q0 31 -16 55q-10 4 -23 4q-45 0 -72 -8q-94 -29 -248 -186q-127 -131 -204 -244q-10 -16 -37 -61l-80 -129q-39 -74 -41 -146zM539 969q63 102 120 123q20 12 41 23t52 11q74 0 155 -51q29 -18 47 -18q82 0 136 69q4 6 16 7q8 -1 24 -5q-12 -16 -30 -51q-12 -12 -66 -67 q-8 -8 -45 -17q-23 -6 -53 -12q-12 -4 -29 -4q-57 0 -90 24q-53 41 -121 41q-43 0 -80 -38q-6 -6 -36 -35h-41z" />
<glyph unicode="&#xe4;" horiz-adv-x="1005" d="M-164 88q0 117 137 287q18 23 226 243q16 0 32.5 16.5t26.5 24.5q31 16 76 48q98 68 145 90q86 43 164 43t115 -78q14 27 65 65q10 12 33 13q29 0 64 -23v-41q-176 -211 -424 -545q-49 -66 -58 -77q-33 -51 -39 -82q-2 -12 -2 -37q12 -29 41 -29q197 0 561 397 q127 137 134 138q10 -1 10 -13q0 -41 -96 -155q-72 -86 -136 -146q-299 -283 -469 -282q-70 0 -115.5 42t-41.5 109q-113 -82 -142 -98q-92 -53 -161 -53q-43 0 -82 16q-63 72 -64 127zM-43 10q6 -12 25 -12q29 0 61 10q20 6 70 35q160 92 376 371l117 147q72 94 72 164 q0 31 -16 55q-10 4 -23 4q-45 0 -72 -8q-94 -29 -248 -186q-127 -131 -204 -244q-10 -16 -37 -61l-80 -129q-39 -74 -41 -146zM631 1055q25 68 65 73q39 0 60 -16q31 -57 26 -76q-6 -6 -8 -12q-16 -37 -24 -37q-59 -6 -70 -2q-49 37 -49 70zM920 1049q31 74 65 73 q45 4 64 -12q31 -55 26 -74q-2 -2 -14 -30q-9 -21 -25 -21l-24 -8q-20 -4 -68 35q-18 14 -24 37z" />
<glyph unicode="&#xe5;" horiz-adv-x="1005" d="M-164 88q0 117 137 287q18 23 226 243q16 0 32.5 16.5t26.5 24.5q31 16 76 48q98 68 145 90q86 43 164 43t115 -78q14 27 65 65q10 12 33 13q29 0 64 -23v-41q-176 -211 -424 -545q-49 -66 -58 -77q-33 -51 -39 -82q-2 -12 -2 -37q12 -29 41 -29q197 0 561 397 q127 137 134 138q10 -1 10 -13q0 -41 -96 -155q-72 -86 -136 -146q-299 -283 -469 -282q-70 0 -115.5 42t-41.5 109q-113 -82 -142 -98q-92 -53 -161 -53q-43 0 -82 16q-63 72 -64 127zM-43 10q6 -12 25 -12q29 0 61 10q20 6 70 35q160 92 376 371l117 147q72 94 72 164 q0 31 -16 55q-10 4 -23 4q-45 0 -72 -8q-94 -29 -248 -186q-127 -131 -204 -244q-10 -16 -37 -61l-80 -129q-39 -74 -41 -146zM758 1075q0 63 45 108.5t108 45.5t109.5 -45.5t46.5 -108.5t-46 -109t-110 -46q-63 0 -108 46t-45 109zM801 1075q0 -47 31.5 -79.5t78.5 -32.5 t80 32.5t33 79.5t-33 79t-80 32q-45 0 -77.5 -33t-32.5 -78z" />
<glyph unicode="&#xe6;" horiz-adv-x="1228" d="M-164 88q0 117 137 287q18 23 226 243q16 0 32.5 16.5t26.5 24.5q31 16 76 48q98 68 145 90q86 43 164 43t115 -78q16 27 61 74q16 14 29 8q6 -4 33 -23v-47q133 88 204 88q135 0 136 -100q0 -152 -226 -275q-184 -100 -364 -118l-84 -138q-45 -82 -53 -151q0 -27 10 -72 q8 -12 35 -12q279 0 667 389q8 8 39 40t55 56q8 6 17 6q12 0 12 -14q0 -49 -131 -172q-145 -137 -299 -229q-203 -123 -344 -123q-186 0 -186 178q0 29 8 61q-29 -27 -92 -92q-113 -82 -142 -98q-92 -53 -161 -53q-43 0 -82 16q-63 72 -64 127zM-43 10q6 -12 25 -12 q29 0 61 10q20 6 70 35q160 92 376 371l117 147q72 94 72 164q0 31 -16 55q-10 6 -23 6q-39 0 -72 -10q-96 -31 -248 -186q-127 -131 -204 -244q-10 -16 -37 -61l-80 -129q-39 -74 -41 -146zM670 426q160 20 286 102q154 101 154 242q0 39 -51 39q-16 0 -48 -18.5t-42 -20.5 q-111 -90 -299 -344z" />
<glyph unicode="&#xe7;" horiz-adv-x="700" d="M-213 -391q25 33 29 35q2 0 2 -2q6 -10 67 -21h60q43 0 67 27q14 14 21 53q4 29 -8 49q-4 6 -23 19q-10 6 -49 6q-25 0 -53 -13l-4 21l32 39l27 39l74 94l55 2l-43 -66l-53 -61q8 4 57 4q12 0 47 -16q8 -4 31 -15q28 -28 20 -79q-4 -25 -25.5 -65t-39.5 -54 q-4 -4 -45 -21q-57 -23 -109 -22l-53 8q-29 4 -53 10q-10 12 -31 29zM-131 123q0 41 25 98q33 76 38 96q78 104 148 187q31 37 211 207q117 111 307 131q133 -35 133 -97q0 -37 -28.5 -74.5t-63.5 -37.5q-33 0 -33 31q0 10 2 27.5t2 27.5q0 57 -63 57q-137 0 -379 -356 q-92 -137 -113 -176q-55 -109 -55 -201v-12q27 -37 59 -37q227 0 611 375q27 27 96 94q18 16 35 16q14 0 14 -16q0 -29 -59 -88q-147 -150 -326 -273q-233 -162 -375 -161q-80 0 -133 51t-53 131z" />
<glyph unicode="&#xe8;" horiz-adv-x="749" d="M-109 127q0 90 52 180q88 154 241 293q289 262 424 262t135 -100q0 -152 -227 -275q-184 -100 -362 -118l-84 -138q-45 -82 -54 -151q0 -27 11 -72q6 -12 32 -12q281 0 670 389q8 8 39 40t55 56q8 6 17 6q12 0 12 -14q0 -51 -131 -172q-147 -137 -299 -229 q-201 -123 -344 -123q-186 0 -187 178zM193 426q160 20 286 102q154 101 154 242q0 39 -51 39q-16 0 -47 -18.5t-43 -20.5q-111 -90 -299 -344zM393 1272q0 2 2 8q18 10 37 10q63 0 129 -61q51 -53 103 -107q127 -133 127 -145q0 -6 -11 -6q-4 0 -69 16q-29 39 -107 88 q-55 35 -121 78q-90 72 -90 119z" />
<glyph unicode="&#xe9;" horiz-adv-x="749" d="M-109 127q0 90 52 180q88 154 241 293q289 262 424 262t135 -100q0 -152 -227 -275q-184 -100 -362 -118l-84 -138q-45 -82 -54 -151q0 -27 11 -72q6 -12 32 -12q281 0 670 389q8 8 39 40t55 56q8 6 17 6q12 0 12 -14q0 -51 -131 -172q-147 -137 -299 -229 q-201 -123 -344 -123q-186 0 -187 178zM193 426q160 20 286 102q154 101 154 242q0 39 -51 39q-16 0 -47 -18.5t-43 -20.5q-111 -90 -299 -344zM621 981q0 2 2 2q131 80 366 203q16 4 33 4q37 -1 78 -21q-2 -29 -49 -55q-37 -16 -74 -35q-82 -23 -180 -57q-33 -12 -103 -43 q-74 -4 -73 2z" />
<glyph unicode="&#xea;" horiz-adv-x="749" d="M-109 127q0 90 52 180q88 154 241 293q289 262 424 262t135 -100q0 -152 -227 -275q-184 -100 -362 -118l-84 -138q-45 -82 -54 -151q0 -27 11 -72q6 -12 32 -12q281 0 670 389q8 8 39 40t55 56q8 6 17 6q12 0 12 -14q0 -51 -131 -172q-147 -137 -299 -229 q-201 -123 -344 -123q-186 0 -187 178zM193 426q160 20 286 102q154 101 154 242q0 39 -51 39q-16 0 -47 -18.5t-43 -20.5q-111 -90 -299 -344zM401 967q246 145 371 233q14 4 43 24.5t43 20.5q10 -20 49 -135q10 -30 35 -104q-25 -25 -82 -62l-72 207l-8 -6 q-39 -29 -329 -180q-14 -4 -25 -4q-14 0 -25 6z" />
<glyph unicode="&#xeb;" horiz-adv-x="749" d="M-109 127q0 90 52 180q88 154 241 293q289 262 424 262t135 -100q0 -152 -227 -275q-184 -100 -362 -118l-84 -138q-45 -82 -54 -151q0 -27 11 -72q6 -12 32 -12q281 0 670 389q8 8 39 40t55 56q8 6 17 6q12 0 12 -14q0 -51 -131 -172q-147 -137 -299 -229 q-201 -123 -344 -123q-186 0 -187 178zM193 426q160 20 286 102q154 101 154 242q0 39 -51 39q-16 0 -47 -18.5t-43 -20.5q-111 -90 -299 -344zM461 1051q12 33 22 45q16 25 43 28q39 0 60 -16q31 -57 26 -78q-6 -4 -10 -10q-14 -37 -22 -37q-59 -6 -70 -2q-49 37 -49 70z M750 1044q31 74 65 74q45 4 64 -12q31 -55 26 -74q0 -2 -14 -33q-9 -18 -25 -18l-24 -8q-20 -4 -68 35q-18 14 -24 36z" />
<glyph unicode="&#xec;" horiz-adv-x="573" d="M-150 90q0 76 82 193q244 348 418 563q25 8 51 8q41 0 60 -33q-10 -31 -41 -73q-25 -35 -49 -70q-29 -43 -95 -129q-115 -150 -163 -217q-104 -143 -140 -230q-12 -31 -10 -67q12 -29 39 -29q121 0 295 139q111 88 266 258q127 137 135 138q11 -1 11 -13q0 -31 -52 -98 q-127 -166 -290 -303q-217 -182 -359 -182q-158 0 -158 145zM166 1294q0 4 2 11q16 10 35 10q63 0 131 -60l102 -110q127 -134 127 -144q0 -8 -10 -8q-4 0 -72 19q-31 39 -106 88q-55 35 -119 78q-90 72 -90 116z" />
<glyph unicode="&#xed;" horiz-adv-x="573" d="M-150 90q0 76 82 193q244 348 418 563q25 8 51 8q41 0 60 -33q-10 -31 -41 -73q-25 -35 -49 -70q-29 -43 -95 -129q-115 -150 -163 -217q-104 -143 -140 -230q-12 -31 -10 -67q12 -29 39 -29q121 0 295 139q111 88 266 258q127 137 135 138q11 -1 11 -13q0 -31 -52 -98 q-127 -166 -290 -303q-217 -182 -359 -182q-158 0 -158 145zM393 1010q0 2 2 2q131 80 367 200q18 6 37 7q34 -1 75 -21q-2 -29 -49 -55q-37 -16 -73 -35q-66 -18 -183 -59q-47 -16 -100 -41q-76 -4 -76 2z" />
<glyph unicode="&#xee;" horiz-adv-x="573" d="M-150 90q0 76 82 193q244 348 418 563q25 8 51 8q41 0 60 -33q-10 -31 -41 -73q-25 -35 -49 -70q-29 -43 -95 -129q-115 -150 -163 -217q-104 -143 -140 -230q-12 -31 -10 -67q12 -29 39 -29q121 0 295 139q111 88 266 258q127 137 135 138q11 -1 11 -13q0 -31 -52 -98 q-127 -166 -290 -303q-217 -182 -359 -182q-158 0 -158 145zM199 948q248 145 370 232q29 23 88 47q10 -20 50 -137q9 -29 34 -103q-27 -25 -82 -61l-73 204l-8 -4q-68 -47 -330 -180q-12 -4 -25 -4q-12 0 -24 6z" />
<glyph unicode="&#xef;" horiz-adv-x="573" d="M-150 90q0 76 82 193q244 348 418 563q25 8 51 8q41 0 60 -33q-10 -31 -41 -73q-25 -35 -49 -70q-29 -43 -95 -129q-115 -150 -163 -217q-104 -143 -140 -230q-12 -31 -10 -67q12 -29 39 -29q121 0 295 139q111 88 266 258q127 137 135 138q11 -1 11 -13q0 -31 -52 -98 q-127 -166 -290 -303q-217 -182 -359 -182q-158 0 -158 145zM250 1069q14 33 24 45q16 25 41 29q41 0 62 -15l20 -41q10 -20 6 -36q-6 -7 -10 -13q-14 -35 -22 -34q-59 -8 -70 -3q-51 35 -51 68zM541 1063q31 74 65 74q45 4 62 -13q31 -55 28 -73q-2 -2 -14 -31 q-9 -21 -25 -21q-6 -2 -24 -6q-23 -6 -70 33q-18 14 -22 37z" />
<glyph unicode="&#xf1;" horiz-adv-x="991" d="M-283 -25l4 37q104 123 261 336q205 281 254 342q41 53 81 107q25 16 56 16q14 0 41 -6q12 -8 12 -27q0 -31 -86 -155q240 215 367 215q141 0 141 -109q0 -90 -72 -178q-43 -49 -131 -147q-20 -31 -61 -91q-14 -14 -49 -51q-70 -80 -125 -213q0 -43 22 -43q197 0 561 398 q127 137 133 137q11 -1 11 -13q0 -33 -50 -98q-119 -158 -290 -301q-217 -182 -355 -182q-152 0 -151 135q0 61 59 147q53 76 195 236q125 141 186 242q18 74 19 61q0 12 -9 18q-207 -14 -475 -317q-20 -25 -76 -86l-149 -166q-23 -31 -74 -92q-25 -20 -59 -74 q-6 -4 -47 -55q-29 -37 -56 -37q-10 0 -20 4q-14 -4 -23 -4q-27 0 -45 14zM444 956q66 104 121 123q61 35 92 35q74 0 156 -51q29 -18 47 -19q82 0 133 70q8 10 41 2q-12 -18 -30 -51q-10 -12 -64 -68q-8 -8 -45 -16q-23 -4 -53 -12q-23 -10 -60 -4q-39 8 -59 22 q-57 43 -123 43q-41 0 -78 -39q-8 -8 -37 -35h-41z" />
<glyph unicode="&#xf2;" horiz-adv-x="872" d="M-141 111q0 104 94 237q20 31 170 205q12 16 47 55q35 23 74 51q115 82 153 105q94 53 178 53q100 0 134 -76q-2 -33 63 -75q36 13 102 36l-49 -63q-23 -12 -92 -29q-12 16 -31 15q-63 -162 -198 -332q-129 -158 -277 -273q-109 -84 -211 -83q-74 0 -115.5 49t-41.5 125z M-23 27q0 -37 52 -37q139 0 331 239q248 308 248 496q0 18 -4 35q-12 4 -24 4q-145 0 -377 -297q-225 -287 -226 -440zM369 1262q0 4 2 10q18 10 35 10q63 0 131 -59q51 -55 102 -111q127 -133 127 -143q0 -8 -10 -8q-4 0 -70 18q-29 39 -106 88q-55 35 -121 78 q-90 72 -90 117z" />
<glyph unicode="&#xf3;" horiz-adv-x="872" d="M-141 111q0 104 94 237q20 31 170 205q12 16 47 55q35 23 74 51q115 82 153 105q94 53 178 53q100 0 134 -76q-2 -33 63 -75q36 13 102 36l-49 -63q-23 -12 -92 -29q-12 16 -31 15q-63 -162 -198 -332q-129 -158 -277 -273q-109 -84 -211 -83q-74 0 -115.5 49t-41.5 125z M-23 27q0 -37 52 -37q139 0 331 239q248 308 248 496q0 18 -4 35q-12 4 -24 4q-145 0 -377 -297q-225 -287 -226 -440zM598 977l2 2q131 80 367 201q16 4 34 4q37 -1 76 -19q-2 -29 -49 -57l-74 -33q-47 -14 -180 -59q-45 -14 -102 -43q-74 -2 -74 4z" />
<glyph unicode="&#xf4;" horiz-adv-x="872" d="M-141 111q0 104 94 237q20 31 170 205q12 16 47 55q35 23 74 51q115 82 153 105q94 53 178 53q100 0 134 -76q-2 -33 63 -75q36 13 102 36l-49 -63q-23 -12 -92 -29q-12 16 -31 15q-63 -162 -198 -332q-129 -158 -277 -273q-109 -84 -211 -83q-74 0 -115.5 49t-41.5 125z M-23 27q0 -37 52 -37q139 0 331 239q248 308 248 496q0 18 -4 35q-12 4 -24 4q-145 0 -377 -297q-225 -287 -226 -440zM377 897q246 147 371 233q29 23 86 48q10 -20 49 -138l16 -45q11 -30 19 -59q-25 -23 -82 -59l-72 204l-8 -6q-39 -29 -330 -180q-12 -2 -25 -2 q-14 0 -24 4z" />
<glyph unicode="&#xf5;" horiz-adv-x="872" d="M-141 111q0 104 94 237q20 31 170 205q12 16 47 55q35 23 74 51q115 82 153 105q94 53 178 53q100 0 134 -76q-2 -33 63 -75q36 13 102 36l-49 -63q-23 -12 -92 -29q-12 16 -31 15q-63 -162 -198 -332q-129 -158 -277 -273q-109 -84 -211 -83q-74 0 -115.5 49t-41.5 125z M-23 27q0 -37 52 -37q139 0 331 239q248 308 248 496q0 18 -4 35q-12 4 -24 4q-145 0 -377 -297q-225 -287 -226 -440zM330 922q10 16 30 41q2 2 33 37.5t56 41.5q55 35 94 35q61 0 112 -24q61 -43 90 -43q84 0 134 67q8 10 41 2q-12 -16 -31 -49q0 -4 -66 -67 q-10 -12 -45 -19q-43 -8 -51 -12q-23 -8 -59 -2q-39 6 -60 22q-55 43 -123 43q-45 0 -79 -39q-16 -18 -35 -34h-41z" />
<glyph unicode="&#xf6;" horiz-adv-x="872" d="M-141 111q0 104 94 237q20 31 170 205q12 16 47 55q35 23 74 51q115 82 153 105q94 53 178 53q100 0 134 -76q-2 -33 63 -75q36 13 102 36l-49 -63q-23 -12 -92 -29q-12 16 -31 15q-63 -162 -198 -332q-129 -158 -277 -273q-109 -84 -211 -83q-74 0 -115.5 49t-41.5 125z M-23 27q0 -37 52 -37q139 0 331 239q248 308 248 496q0 18 -4 35q-12 4 -24 4q-145 0 -377 -297q-225 -287 -226 -440zM420 1008q14 33 24 47q16 23 43 26q39 0 60 -14q33 -57 26 -78q-6 -4 -10 -12q-14 -35 -22 -35q-59 -6 -70 -2q-51 35 -51 68zM711 1004q31 74 65 73 q45 4 62 -12q33 -57 28 -76q-2 -2 -14 -31q-9 -18 -25 -18q-8 -4 -24 -8q-18 -4 -33 2q-18 14 -36.5 31.5t-22.5 38.5z" />
<glyph unicode="&#xf7;" horiz-adv-x="1116" d="M-39 416l47 69h934l-47 -69h-934zM150 125q0 59 59 84q10 0 27.5 2t27.5 2q27 0 49 -14q2 -8 20.5 -28t18.5 -30q0 -4 -4 -12q-4 -31 -31 -78q-39 -31 -88 -31h-12q-6 2 -10 3q-57 59 -57 102zM565 811q0 59 58 84q10 0 28.5 2t28.5 2q27 0 47 -14q2 -6 20.5 -26 t18.5 -32v-6l-2 -4q-6 -33 -31 -80q-41 -31 -90 -30h-10q-8 2 -12 2q-55 61 -56 102z" />
<glyph unicode="&#xf8;" horiz-adv-x="872" d="M-315 -78q63 80 151 146l25 18q-2 12 -2 25q0 104 94 237q20 31 170 205q12 16 47 55q35 23 74 51q115 82 153 105q94 53 178 53q100 0 134 -76q33 29 157 109q17 -29 13 -47q-6 -16 -35 -35q-8 -4 -111 -76q4 -4 39 -26q37 14 102 36l-49 -63q-23 -12 -92 -29 q-12 16 -31 15q-63 -162 -198 -332q-129 -158 -277 -273q-109 -84 -211 -83q-100 0 -139 86q-53 -43 -139 -99q-12 -4 -27 -4q-12 0 -26 2zM-23 27q0 -37 52 -37q133 0 317 223q157 191 229 365l-14 -11q-10 -6 -78 -61l-487 -391q-18 -53 -19 -88zM55 244q20 12 64 37 q150 106 479 368q10 43 10 76q0 18 -4 35q-12 4 -24 4q-117 0 -299 -207q-139 -158 -226 -313z" />
<glyph unicode="&#xf9;" horiz-adv-x="972" d="M-178 35q0 80 123 270q84 129 125 174q82 115 254 334q51 16 88 16q29 0 53 -12q0 -33 -25.5 -66.5t-50.5 -62.5l-264 -342q-209 -274 -209 -326q0 -4 4 -12q16 -12 37 -12q16 0 48 11t44 13l135 99q51 37 119 114q84 80 209 242q39 49 152 209q47 66 59 82q35 43 76 68 q8 -2 16 -3q6 0 20.5 2.5t20.5 2.5q33 0 47 -27q-37 -59 -117 -164q-53 -70 -120 -160q-55 -70 -164 -206q-117 -147 -127 -209q-2 -12 -2 -39q14 -29 41 -29q127 0 313 156q104 86 246 241q127 137 135 138q10 -1 10 -11q0 -37 -49 -100q-127 -166 -291 -303 q-215 -180 -360 -180q-154 0 -154 137q0 18 6 41q-199 -182 -321 -182q-127 0 -127 96zM422 1262q0 4 2 10q18 10 35 10q63 0 131 -59q51 -55 102 -111q127 -133 127 -143q0 -8 -10 -8q-4 0 -70 18q-29 39 -106 88q-55 35 -121 78q-90 72 -90 117z" />
<glyph unicode="&#xfa;" horiz-adv-x="972" d="M-178 35q0 80 123 270q84 129 125 174q82 115 254 334q51 16 88 16q29 0 53 -12q0 -33 -25.5 -66.5t-50.5 -62.5l-264 -342q-209 -274 -209 -326q0 -4 4 -12q16 -12 37 -12q16 0 48 11t44 13l135 99q51 37 119 114q84 80 209 242q39 49 152 209q47 66 59 82q35 43 76 68 q8 -2 16 -3q6 0 20.5 2.5t20.5 2.5q33 0 47 -27q-37 -59 -117 -164q-53 -70 -120 -160q-55 -70 -164 -206q-117 -147 -127 -209q-2 -12 -2 -39q14 -29 41 -29q127 0 313 156q104 86 246 241q127 137 135 138q10 -1 10 -11q0 -37 -49 -100q-127 -166 -291 -303 q-215 -180 -360 -180q-154 0 -154 137q0 18 6 41q-199 -182 -321 -182q-127 0 -127 96zM582 975l2 2q131 80 364 201q18 6 37 6q37 -1 76 -21q-2 -37 -123 -90q-63 -18 -182 -59q-43 -16 -101 -41q-74 -4 -73 2z" />
<glyph unicode="&#xfb;" horiz-adv-x="972" d="M-178 35q0 80 123 270q84 129 125 174q82 115 254 334q51 16 88 16q29 0 53 -12q0 -33 -25.5 -66.5t-50.5 -62.5l-264 -342q-209 -274 -209 -326q0 -4 4 -12q16 -12 37 -12q16 0 48 11t44 13l135 99q51 37 119 114q84 80 209 242q39 49 152 209q47 66 59 82q35 43 76 68 q8 -2 16 -3q6 0 20.5 2.5t20.5 2.5q33 0 47 -27q-37 -59 -117 -164q-53 -70 -120 -160q-55 -70 -164 -206q-117 -147 -127 -209q-2 -12 -2 -39q14 -29 41 -29q127 0 313 156q104 86 246 241q127 137 135 138q10 -1 10 -11q0 -37 -49 -100q-127 -166 -291 -303 q-215 -180 -360 -180q-154 0 -154 137q0 18 6 41q-199 -182 -321 -182q-127 0 -127 96zM420 975q248 147 373 233q14 4 42.5 24.5t43.5 20.5q14 -27 49 -135q10 -30 35 -104q-25 -23 -82 -60l-72 205l-8 -6q-39 -29 -332 -180q-12 -4 -25 -4q-12 0 -24 6z" />
<glyph unicode="&#xfc;" horiz-adv-x="972" d="M-178 35q0 80 123 270q84 129 125 174q82 115 254 334q51 16 88 16q29 0 53 -12q0 -33 -25.5 -66.5t-50.5 -62.5l-264 -342q-209 -274 -209 -326q0 -4 4 -12q16 -12 37 -12q16 0 48 11t44 13l135 99q51 37 119 114q84 80 209 242q39 49 152 209q47 66 59 82q35 43 76 68 q8 -2 16 -3q6 0 20.5 2.5t20.5 2.5q33 0 47 -27q-37 -59 -117 -164q-53 -70 -120 -160q-55 -70 -164 -206q-117 -147 -127 -209q-2 -12 -2 -39q14 -29 41 -29q127 0 313 156q104 86 246 241q127 137 135 138q10 -1 10 -11q0 -37 -49 -100q-127 -166 -291 -303 q-215 -180 -360 -180q-154 0 -154 137q0 18 6 41q-199 -182 -321 -182q-127 0 -127 96zM485 1063q14 33 25 45q16 25 41 29q41 0 61 -17q31 -57 27 -78q-6 -4 -10 -10q-14 -37 -23 -37q-59 -6 -69 -2q-51 37 -52 70zM776 1057q31 74 66 73q45 4 61 -12q31 -55 29 -74 q0 -2 -14 -32q-9 -19 -25 -19q-8 -2 -25 -8q-23 -4 -69 35q-18 14 -23 37z" />
<glyph unicode="&#xff;" horiz-adv-x="983" d="M-979 -889q0 55 41 111q150 203 393 325q178 90 529 252q20 6 57 23q14 23 33 22q29 27 116 160q31 47 43 64q-162 -125 -264 -125q-55 0 -98 28q-49 33 -49 84q0 94 72 199q10 16 133 168q41 51 172 240q37 53 59 79q39 47 76 68q8 -2 16 -2q6 0 20.5 2t20.5 2 q35 0 47 -27q-29 -49 -291 -395q-231 -307 -231 -358q0 -18 25 -35h20q86 0 174 59q47 33 141 121q25 23 84 78q106 102 224 264q66 96 200 285q18 25 84 49q59 -8 60 -39q0 -4 -406 -561q-20 -27 -73.5 -98.5t-106.5 -135.5q-20 -33 -63 -92l286 160q162 92 273 184 q49 41 149 142q23 23 82 80q8 6 16 8q15 -1 15 -15q0 -63 -211 -241q-125 -106 -350 -238q-317 -186 -365 -217q-205 -291 -303 -405q-184 -213 -383 -326q-152 -86 -279 -86q-37 0 -69 12q-12 -6 -25 -6q-39 0 -67 49q-27 43 -27 84zM-881 -893q0 -57 31 -76q14 -2 31 -2 q252 0 475 256q86 98 182 213q0 18 15 35l28 33q5 6 111 174q-33 -16 -221 -100q-215 -96 -385 -211q-266 -182 -267 -322zM524 1044q25 68 66 74q39 0 59 -14q33 -57 27 -78q-6 -4 -8 -12q-16 -35 -25 -35q-61 -8 -70 -2q-49 35 -49 67zM813 1038q31 74 66 74q45 6 63 -12 q31 -55 27 -74q-2 -2 -15 -31q-8 -18 -24 -20q-6 -2 -23 -6q-25 -6 -69 32q-18 16 -25 37z" />
<glyph unicode="&#x152;" horiz-adv-x="2381" d="M43 240q0 195 129 411q25 35 88 131q14 25 53 82q31 43 158 183q436 483 858 614q139 43 187 43q104 0 182 -49q92 -57 92 -156q0 -53 -31 -90q-16 -8 -16 -63q0 -20 -23 -119q-16 -74 -96 -230q-20 -39 -78 -131q94 47 189 95q121 70 129 143q6 68 22 201q14 106 78 186 q131 164 332 207q10 12 22 12q4 0 13.5 -2t13.5 -2q12 0 34.5 3t35.5 3q115 0 204 -61q105 -69 105 -178q0 -117 -101.5 -213.5t-220.5 -96.5q-61 0 -116 39q-63 43 -64 101q0 119 121 182l16 -25q-76 -59 -73 -182q23 -61 114 -61q92 0 172 84.5t80 179.5q0 63 -53 112 t-119 60q-27 4 -65 4q-315 0 -383 -283q-16 -123 -35 -244q-27 -109 -174 -188q-66 -37 -181 -84q-416 -315 -415 -694q0 -248 231 -248q115 0 324 100q197 94 313 258q14 23 51 82q59 92 60 203q0 63 -146 113q-152 -4 -289 -96.5t-204 -229.5q-10 -18 -31 -100l-25 10 q12 184 183 328q164 137 352 137q98 0 166.5 -61.5t68.5 -157.5q0 -23 -12 -66q-84 -285 -543 -506q-145 -70 -327 -69q-147 0 -244.5 104.5t-97.5 251.5q0 39 6 78q-109 -113 -250 -217q-158 -115 -285 -162q-84 -31 -178 -31q-307 0 -307 355zM203 172q0 -111 16 -154 q29 -76 123 -75q31 0 93.5 12t83 24.5t30.5 12.5l4 -2q195 92 373 274q498 508 673 942q37 90 37 146q0 111 -53 151q-39 29 -72 29q-12 0 -24 -4q-195 -63 -338 -258q-123 -168 -184 -393h-25q-8 29 -8 51q0 53 53 174q57 131 152 239q16 18 69 68q186 170 338 170 q91 0 154 -66q-23 131 -170 132q-111 0 -250 -56q-53 -20 -166 -104q-102 -74 -156.5 -126t-136.5 -140q-324 -350 -452 -594q-20 -41 -105 -250q-59 -150 -59 -203z" />
<glyph unicode="&#x153;" horiz-adv-x="1232" d="M-141 111q0 104 94 237q20 31 170 205q12 16 47 55q35 23 74 51q115 82 153 105q94 53 178 53q100 0 134 -76q4 -20 4 -45q0 -29 -6 -61q262 227 383 227q135 0 135 -100q0 -152 -228 -275q-184 -100 -362 -118l-84 -138q-45 -82 -53 -151q0 -27 10 -72q6 -12 33 -12 q281 0 669 389q8 8 39 40t56 56q8 6 16 6q12 0 12 -14q0 -51 -131 -172q-147 -137 -299 -229q-201 -123 -344 -123q-186 0 -186 178q0 10 2 23q-219 -213 -359 -213q-74 0 -115.5 49t-41.5 125zM-23 27q0 -37 52 -37q139 0 331 239q248 308 248 496q0 18 -4 35q-12 4 -24 4 q-145 0 -377 -297q-225 -287 -226 -440zM674 426q160 20 287 102q153 101 153 242q0 39 -51 39q-16 0 -47 -18.5t-43 -20.5q-111 -90 -299 -344z" />
<glyph unicode="&#x178;" horiz-adv-x="1613" d="M-412 -930q0 104 68 199q43 59 149 151q33 23 191 136q109 78 352 215q102 57 369 211q102 141 227 337v7q-135 -137 -278 -240q-205 -150 -326 -149q-98 0 -160 51q-68 55 -67 151q0 94 96 258q23 39 82 138q127 162 229 299q37 55 139 196q20 27 70 92q14 25 49 86 q49 82 106.5 191.5t57.5 204.5q0 53 -78 53q-100 0 -172 -45q-195 -123 -342 -277q-55 -59 -198 -217l-27 15q178 272 414 434q201 137 315 137q178 0 227 -191q-35 -199 -118 -311q-18 -23 -38 -52.5t-26 -59.5q-35 -20 -96 -127q0 -27 -27 -33q-20 -25 -59 -78 q-10 -25 -68 -92q-96 -115 -336 -512q-74 -123 -73 -189q0 -23 2 -36q35 -35 86 -35q72 0 192 71q422 252 856 899q68 109 252 383q68 94 238 340q29 16 63 17q49 0 90 -31q-16 -59 -57 -119q-27 -35 -76 -106.5t-270 -394.5q-193 -283 -361 -519q-4 -33 -34 -65 q-47 -49 -52 -57q-20 -33 -73 -117q-41 -57 -146 -209l447 270q80 49 86 49q8 0 8 -14q0 -25 -66 -80q-2 -2 -100 -63q-70 -45 -250 -158q-66 -39 -211 -133q-2 -2 -35 -47l-81 -113q-45 -66 -173 -233q-162 -203 -382 -369q-264 -197 -469 -219q-20 8 -52 8q-84 47 -84 92z M-266 -924q0 -25 22 -39q145 12 297 132q86 68 236 233q25 23 82 88q84 101 274 377q-209 -113 -264 -143q-147 -84 -254 -160q-16 -12 -61 -43l-17 -8q-23 -20 -72 -58q-20 -6 -90 -73q-154 -147 -153 -306zM1243 1743q14 33 23 47q18 23 43 27q41 0 61 -15q29 -72 27 -78 q-7 -6 -11 -12q-16 -35 -22 -35q-61 -8 -70 -2q-51 35 -51 68zM1532 1737q31 74 67 73q45 4 62 -12q31 -55 29 -74q-4 -2 -17 -30q-8 -21 -18 -21q-16 -2 -29 -6q-23 -6 -70 33q-18 14 -24 37z" />
<glyph unicode="&#x2c6;" horiz-adv-x="612" d="M360 930q246 145 371 231q31 23 88 47q10 -20 49 -137q10 -28 35 -102q-27 -25 -82 -62l-73 205l-9 -4q-70 -47 -329 -180q-12 -4 -25 -4q-12 0 -25 6z" />
<glyph unicode="&#x2dc;" horiz-adv-x="608" d="M375 936q66 104 121 123q61 35 92 35q74 0 155 -52q29 -18 48 -18q82 0 133 70q8 10 41 2q-12 -18 -31 -52q-10 -12 -64 -67q-8 -8 -45 -16q-23 -4 -53 -13q-23 -10 -59 -4q-39 8 -60 23q-57 43 -123 43q-41 0 -77 -39q-8 -8 -37 -35h-41z" />
<glyph unicode="&#x2000;" horiz-adv-x="1083" />
<glyph unicode="&#x2001;" horiz-adv-x="2167" />
<glyph unicode="&#x2002;" horiz-adv-x="1083" />
<glyph unicode="&#x2003;" horiz-adv-x="2167" />
<glyph unicode="&#x2004;" horiz-adv-x="722" />
<glyph unicode="&#x2005;" horiz-adv-x="541" />
<glyph unicode="&#x2006;" horiz-adv-x="361" />
<glyph unicode="&#x2007;" horiz-adv-x="361" />
<glyph unicode="&#x2008;" horiz-adv-x="270" />
<glyph unicode="&#x2009;" horiz-adv-x="433" />
<glyph unicode="&#x200a;" horiz-adv-x="120" />
<glyph unicode="&#x2010;" horiz-adv-x="1060" d="M188 416q0 16 16.5 50t16.5 60q23 18 27 27l8 -4l-2 14l16 8q94 -20 84 -20q-12 0 37 2h39q16 0 47 11t47 11q18 0 31 -10q39 -4 55 -4q25 0 72 6t72 6q6 0 16 -2h16l7 -2q29 25 36 25q11 0 23 -14q-8 -31 -46 -80t-48 -76h-80q-6 0 -410 -12q-25 -8 -73 -33q-6 29 -7 37 z" />
<glyph unicode="&#x2011;" horiz-adv-x="1060" d="M188 416q0 16 16.5 50t16.5 60q23 18 27 27l8 -4l-2 14l16 8q94 -20 84 -20q-12 0 37 2h39q16 0 47 11t47 11q18 0 31 -10q39 -4 55 -4q25 0 72 6t72 6q6 0 16 -2h16l7 -2q29 25 36 25q11 0 23 -14q-8 -31 -46 -80t-48 -76h-80q-6 0 -410 -12q-25 -8 -73 -33q-6 29 -7 37 z" />
<glyph unicode="&#x2012;" horiz-adv-x="1060" d="M188 416q0 16 16.5 50t16.5 60q23 18 27 27l8 -4l-2 14l16 8q94 -20 84 -20q-12 0 37 2h39q16 0 47 11t47 11q18 0 31 -10q39 -4 55 -4q25 0 72 6t72 6q6 0 16 -2h16l7 -2q29 25 36 25q11 0 23 -14q-8 -31 -46 -80t-48 -76h-80q-6 0 -410 -12q-25 -8 -73 -33q-6 29 -7 37 z" />
<glyph unicode="&#x2013;" horiz-adv-x="1304" d="M188 434q0 10 16.5 37t16.5 55q23 18 31 29h2v8l16 8q94 -20 84 -20q-12 0 37 2h39q16 0 47 11t47 11q18 0 31 -10q29 -4 86 -4t170 6t170 6q35 0 51 -4h2q27 25 35 25q15 0 25 -16q-8 -27 -46 -70t-49 -66h-81q-4 0 -650 -12l-73 -31q-6 27 -7 35z" />
<glyph unicode="&#x2014;" horiz-adv-x="1579" d="M188 451q0 10 17.5 27.5t15.5 47.5q16 12 31 29v-2l4 -2l-2 12l16 8q94 -20 84 -20q-12 0 37 2h39q16 0 47 11t47 11q18 0 31 -10q27 -4 68 -4q117 0 350 6t350 6q35 0 68 -4q20 25 34 25q15 0 23 -16q-8 -25 -46 -60t-46 -57h-84q-147 0 -1004 -12l-73 -31q-6 23 -7 33z " />
<glyph unicode="&#x2018;" horiz-adv-x="544" d="M791 1360q0 147 163 217q82 35 166 35q29 -1 29 -15q0 -18 -37 -22q-98 -10 -162 -78q-6 -14 -18 -47l6 -10q4 -31 57 -58q4 -10 4 -22q0 -61 -34 -82q-8 -6 -91 -25q-29 10 -56 44t-27 63z" />
<glyph unicode="&#x2019;" horiz-adv-x="544" d="M700 1245q0 16 35 25q100 23 156 90q6 16 14 51q-16 35 -69 59q-8 16 -9 33q0 57 33 76q10 8 82 27q23 -4 41 -19q25 -20 33 -24q20 -23 20 -60q0 -55 -22 -104q-8 -18 -31 -45q-104 -125 -258 -125q-25 0 -25 16z" />
<glyph unicode="&#x201a;" horiz-adv-x="585" d="M-111 -156q0 14 23 23l8 2q59 14 88 29q37 16 72 61q4 12 10 41q-18 47 -67 70q-8 16 -9 32q0 57 33 78q12 6 84 25q35 -6 63.5 -37t28.5 -66q0 -55 -20 -104q-8 -16 -33 -47q-104 -123 -256 -123q-25 0 -25 16z" />
<glyph unicode="&#x201c;" horiz-adv-x="917" d="M793 1360q0 147 161 217q80 35 166 35q29 -1 29 -15q0 -18 -35 -22q-152 -18 -182 -125l8 -10q2 -31 55 -58q6 -14 6 -22q0 -61 -34 -82q-10 -4 -93 -25q-31 10 -56 43t-25 64zM1124 1360q0 150 162 217q82 35 168 35q29 -1 29 -15q0 -18 -37 -22q-61 -6 -91 -20.5 t-71 -57.5q-8 -14 -18 -47l6 -10q4 -33 57 -58q2 -10 2 -22q0 -61 -35 -82q-8 -4 -88 -25q-31 10 -57.5 43t-26.5 64z" />
<glyph unicode="&#x201d;" horiz-adv-x="917" d="M700 1245q0 16 25 23l8 2q43 10 88 30q37 16 70 60q4 14 12 41q-18 47 -67 69q-8 16 -9 33q0 57 33 78q12 6 84 25q35 -6 63.5 -37t28.5 -66q0 -57 -20 -104q-10 -18 -33 -45q-104 -125 -256 -125q-27 0 -27 16zM1032 1245q0 16 35 25q100 23 156 90q6 16 14 51 q-16 35 -70 59q-8 16 -8 33q0 57 33 76q10 8 82 27q23 -4 41 -19q25 -20 33 -24q20 -23 20 -60q0 -55 -22 -104q-8 -18 -31 -45q-104 -125 -258 -125q-25 0 -25 16z" />
<glyph unicode="&#x201e;" horiz-adv-x="917" d="M-111 -156q0 14 23 23l8 2q59 14 88 29q37 16 72 61q4 12 10 41q-18 47 -67 70q-8 16 -9 32q0 57 33 78q12 6 84 25q35 -6 63.5 -37t28.5 -66q0 -55 -20 -104q-8 -16 -33 -47q-104 -123 -256 -123q-25 0 -25 16zM219 -156q0 16 35 25q104 23 156 90q8 16 14 49 q-16 37 -68 62q-10 16 -10 32q0 57 33 76q10 8 84 27q25 -4 39 -19q25 -20 33 -24q20 -25 20 -60q0 -59 -20 -104q-8 -18 -33 -47q-102 -123 -258 -123q-25 0 -25 16z" />
<glyph unicode="&#x2022;" horiz-adv-x="761" d="M47 535q0 70 46 139t110 98q-18 0 51 2h51q94 0 148 -41q102 -78 102 -180q0 -150 -76 -211q-37 -29 -101.5 -51.5t-111.5 -22.5q-33 0 -65 8q-154 119 -154 259z" />
<glyph unicode="&#x2026;" horiz-adv-x="1652" d="M0 100q0 59 57 82q10 0 27.5 2t28.5 2q27 0 47 -12q2 -8 20.5 -27.5t18.5 -29.5q-2 -6 -4 -19q-14 -57 -29 -69q-39 -31 -88 -31q-4 0 -12 2h-11q-55 59 -55 100zM551 100q0 59 57 82q10 0 27.5 2t28.5 2q27 0 47 -12q2 -8 20.5 -27.5t18.5 -29.5q-2 -6 -5 -19 q-14 -57 -28 -69q-39 -31 -88 -31q-4 0 -13 2h-10q-55 59 -55 100zM1102 100q0 59 57 82q10 0 27.5 2t27.5 2q27 0 48 -12q2 -8 20 -27.5t18 -29.5q-2 -6 -4 -19q-14 -57 -28 -69q-39 -31 -88 -31q-4 0 -13 2h-10q-55 59 -55 100z" />
<glyph unicode="&#x202f;" horiz-adv-x="433" />
<glyph unicode="&#x2039;" horiz-adv-x="860" d="M236 494l620 401q2 -10 -8 -55q-57 -57 -211 -162q-164 -115 -221 -166l-2 -10l129 -377q-59 -55 -68 -55z" />
<glyph unicode="&#x203a;" horiz-adv-x="860" d="M162 70q-4 12 8 55q66 70 211 168q164 109 219 160l4 12l-129 375q59 55 68 55l239 -424z" />
<glyph unicode="&#x205f;" horiz-adv-x="541" />
<glyph unicode="&#x2122;" horiz-adv-x="2553" d="M940 1550q0 29 13.5 85.5t13.5 84.5l-11 12q-12 11 -12 25q25 16 115 17q47 0 142 2t142 2q10 6 25 6q-4 0 49 -6h80q12 0 37 2t37 2q23 0 131 -4q12 0 18 -33v-107q0 -6 3 -17t3 -17t-2 -37q-6 0 -15 -2t-15 -2q-8 0 -15 6q-4 33 -80 102q-43 55 -86 55h-16 q-10 -2 -16 -2v2q-6 -2 -15 -2q-6 0 -18 2h-18q-10 0 -19 -4q-4 -14 -4 -34v-291q0 -14 2 -45t2 -45v-78q0 -16 -2 -47v-33q0 -12 -2 -39t-2 -39q0 -74 47 -96h12q10 -2 29 0q20 2 29 2q66 0 65 -27q0 -8 -6 -14q-20 -4 -29 -4q-45 0 -134 3t-134 3q-8 0 -24.5 -3t-22.5 -3 q-119 -6 -90 -6q-33 0 -57 20v4q0 27 53 27q10 0 27.5 -2t27.5 -2q35 0 43 31q31 41 31 251v154q0 31 2 90v66v147q-12 8 -45 8q-39 0 -103 -4q-72 -57 -102 -108v-2q-2 -4 -14 -23q-2 -4 -7.5 -28.5t-21.5 -24.5q-41 0 -41 20zM1757 1733q0 20 43 36h29q18 -2 26 -2 q35 0 64 11l16 -6q6 10 19 10h49q66 -2 49 -2q2 -2 27 -13q12 -31 49 -84q16 -66 160 -389q31 -68 59 -129q25 55 55 123q0 16 17.5 39t19.5 31q25 59 109 239q8 20 32 70v6q0 6 6.5 13.5t6.5 13.5q16 25 16 39q0 8 -6 16v17q96 4 158 4q137 0 172 -19v-6q0 -16 -33 -37 q-20 4 -33 4h-59l-33 -39q-6 -98 -4 -178l2 -119q2 -37 5 -105.5t9 -236.5q23 -37 39 -43h60q45 1 57 -30q0 -23 -31 -23t-93 4t-93 4q-18 0 -56 -4t-57 -4h-10q-8 2 -12 2q-111 0 -47 -2q-27 0 -45 17q0 37 45 36q8 0 25.5 -2t25.5 -2q49 0 49 88q0 12 -3 38t-3 38 q0 14 2 40t2 40q0 6 -2 16v17q0 16 2 51t2 51v115l2 115q0 6 -4 17t-4 15t4 9.5t4 7.5t-2 6q-12 -25 -160 -330q-18 -37 -57 -133q-12 -14 -109 -225q-6 -6 -22 -6q-12 0 -23 32q-20 35 -49 109q-8 18 -33 72q-82 195 -176 399l-2 -2q0 -68 -6 -202t-6 -202q0 -117 24 -157 q12 -20 76 -21q43 0 62 -24q-4 -27 -43 -27q-4 0 -14.5 -2t-14.5 -2q-8 0 -22.5 2t-22.5 2t-16 -2q-45 6 -88 6q-47 0 -70 -6h-53q-29 0 -50 20v7q-2 14 13 18q23 6 22 8h15q6 0 20 -2t21 -2q33 0 75 94q16 279 17 398q0 29 8 86t8 86q0 12 -8 20q-2 16 -22.5 29.5 t-24.5 19.5q-12 2 -90 2q-33 0 -66 11z" />
<glyph unicode="&#xe000;" horiz-adv-x="860" d="M0 0v860h860v-860h-860z" />
</font>
</defs>
</svg>
